0
SECTION
2
HEADER
9
$ACADVER
1
AC1032
9
$DWGCODEPAGE
3
ANSI_1254
9
$LASTSAVEDBY
1
YEKTAMAK-163
9
$HANDSEED
5
2BB
9
$ANGBASE
50
0.0
9
$ANGDIR
70
0
9
$ATTMODE
70
1
9
$AUNITS
70
0
9
$AUPREC
70
2
9
$CECOLOR
62
256
9
$CELTSCALE
40
1.0
9
$CELTYPE
6
ByLayer
9
$CELWEIGHT
370
-1
9
$CLAYER
8
0
9
$CMLJUST
70
0
9
$CMLSCALE
40
20.0
9
$CMLSTYLE
2
Standard
9
$DIMSTYLE
2
ISO-25
9
$TEXTSIZE
40
3.5
9
$TEXTSTYLE
7
STANDARD
9
$LUNITS
70
2
9
$LUPREC
70
2
9
$MIRRTEXT
70
1
9
$EXTNAMES
290
1
9
$INSBASE
10
0.0
20
0.0
30
0.0
9
$INSUNITS
70
4
9
$LTSCALE
40
1.0
9
$LWDISPLAY
290
1
9
$PDMODE
70
0
9
$PDSIZE
40
-1.0
9
$PLINEGEN
70
0
9
$PSLTSCALE
70
1
9
$SPLINESEGS
70
6
9
$SURFU
70
6
9
$SURFV
70
6
9
$TDCREATE
40
2461018.96667824
9
$TDUCREATE
40
2461018.84168927
9
$TDUPDATE
40
2461019.0270486
9
$TDUUPDATE
40
2461018.9020486
9
$TDINDWG
40
0.0048726967592593
9
$UCSORG
10
0.0
20
0.0
30
0.0
9
$UCSXDIR
10
1.0
20
0.0
30
0.0
9
$UCSYDIR
10
0.0
20
1.0
30
0.0
9
$DIMADEC
70
0
9
$DIMALT
70
0
9
$DIMALTD
70
3
9
$DIMALTF
40
0.0393700787
9
$DIMALTRND
40
0.0
9
$DIMALTTD
70
3
9
$DIMALTTZ
70
0
9
$DIMALTU
70
2
9
$DIMALTZ
70
0
9
$DIMAPOST
1

9
$DIMATFIT
70
3
9
$DIMAUNIT
70
0
9
$DIMASZ
40
2.5
9
$DIMAZIN
70
3
9
$DIMSAH
70
0
9
$DIMBLK
1

9
$DIMLDRBLK
1

9
$DIMCEN
40
2.5
9
$DIMCLRD
70
0
9
$DIMCLRE
70
0
9
$DIMCLRT
70
0
9
$DIMDEC
70
2
9
$DIMDLE
40
0.0
9
$DIMDLI
40
3.75
9
$DIMDSEP
70
44
9
$DIMEXE
40
1.25
9
$DIMEXO
40
0.625
9
$DIMFXLON
70
0
9
$DIMFXL
40
1.0
9
$DIMGAP
40
0.625
9
$DIMJUST
70
0
9
$DIMLFAC
40
1.0
9
$DIMLUNIT
70
2
9
$DIMLWD
70
-2
9
$DIMLWE
70
-2
9
$DIMPOST
1

9
$DIMRND
40
0.0
9
$DIMSCALE
40
1.0
9
$DIMSD1
70
0
9
$DIMSD2
70
0
9
$DIMSE1
70
0
9
$DIMSE2
70
0
9
$DIMSOXD
70
0
9
$DIMTAD
70
1
9
$DIMTDEC
70
2
9
$DIMTFAC
40
1.0
9
$DIMTIH
70
0
9
$DIMTIX
70
0
9
$DIMTM
40
0.0
9
$DIMTMOVE
70
0
9
$DIMTOFL
70
1
9
$DIMTOH
70
0
9
$DIMTOL
70
0
9
$DIMLIM
70
0
9
$DIMTOLJ
70
0
9
$DIMTP
40
0.0
9
$DIMTXT
40
2.5
9
$DIMTXTDIRECTION
70
0
9
$DIMTZIN
70
8
9
$DIMZIN
70
8
9
$DIMFRAC
70
0
9
$DIMLTYPE
6
ByBlock
9
$DIMLTEX1
6
ByBlock
9
$DIMLTEX2
6
ByBlock
9
$REQUIREDVERSIONS
160
0
9
$EXTMIN
10
-1235.0
20
-285.0
30
0.0
9
$EXTMAX
10
1235.0
20
285.0
30
0.0
9
$LIMMIN
10
0.0
20
0.0
9
$LIMMAX
10
420.0
20
297.0
9
$ORTHOMODE
70
0
9
$REGENMODE
70
1
9
$FILLMODE
70
1
9
$QTEXTMODE
70
0
9
$TRACEWID
40
1.0
9
$DISPSILH
70
0
9
$SKETCHINC
40
1.0
9
$FILLETRAD
40
10.0
9
$MENU
1
.
9
$ELEVATION
40
0.0
9
$PELEVATION
40
0.0
9
$THICKNESS
40
0.0
9
$LIMCHECK
70
0
9
$CHAMFERA
40
0.0
9
$CHAMFERB
40
0.0
9
$CHAMFERC
40
0.0
9
$CHAMFERD
40
0.0
9
$SKPOLY
70
0
9
$TDUSRTIMER
40
0.0048726968
9
$USRTIMER
70
1
9
$PLINEWID
40
0.0
9
$SPLFRAME
70
0
9
$SPLINETYPE
70
6
9
$SURFTAB1
70
6
9
$SURFTAB2
70
6
9
$SURFTYPE
70
6
9
$UCSBASE
2

9
$UCSNAME
2

9
$UCSORTHOREF
2

9
$UCSORTHOVIEW
70
0
9
$UCSORGTOP
10
0.0
20
0.0
30
0.0
9
$UCSORGBOTTOM
10
0.0
20
0.0
30
0.0
9
$UCSORGLEFT
10
0.0
20
0.0
30
0.0
9
$UCSORGRIGHT
10
0.0
20
0.0
30
0.0
9
$UCSORGFRONT
10
0.0
20
0.0
30
0.0
9
$UCSORGBACK
10
0.0
20
0.0
30
0.0
9
$PUCSBASE
2

9
$PUCSNAME
2

9
$PUCSORG
10
0.0
20
0.0
30
0.0
9
$PUCSXDIR
10
1.0
20
0.0
30
0.0
9
$PUCSYDIR
10
0.0
20
1.0
30
0.0
9
$PUCSORTHOREF
2

9
$PUCSORTHOVIEW
70
0
9
$PUCSORGTOP
10
0.0
20
0.0
30
0.0
9
$PUCSORGBOTTOM
10
0.0
20
0.0
30
0.0
9
$PUCSORGLEFT
10
0.0
20
0.0
30
0.0
9
$PUCSORGRIGHT
10
0.0
20
0.0
30
0.0
9
$PUCSORGFRONT
10
0.0
20
0.0
30
0.0
9
$PUCSORGBACK
10
0.0
20
0.0
30
0.0
9
$USERI1
70
0
9
$USERI2
70
0
9
$USERI3
70
0
9
$USERI4
70
0
9
$USERI5
70
0
9
$USERR1
40
0.0
9
$USERR2
40
0.0
9
$USERR3
40
0.0
9
$USERR4
40
0.0
9
$USERR5
40
0.0
9
$WORLDVIEW
70
1
9
$SHADEDGE
70
3
9
$SHADEDIF
70
70
9
$TILEMODE
70
1
9
$MAXACTVP
70
64
9
$PINSBASE
10
0.0
20
0.0
30
0.0
9
$PLIMCHECK
70
0
9
$PEXTMIN
10
100000000000000000000.0
20
100000000000000000000.0
30
100000000000000000000.0
9
$PEXTMAX
10
-100000000000000000000.0
20
-100000000000000000000.0
30
-100000000000000000000.0
9
$PLIMMIN
10
0.0
20
0.0
9
$PLIMMAX
10
420.0
20
297.0
9
$UNITMODE
70
0
9
$VISRETAIN
70
1
9
$TREEDEPTH
70
3020
9
$PROXYGRAPHICS
70
1
9
$MEASUREMENT
70
1
9
$ENDCAPS
280
0
9
$JOINSTYLE
280
0
9
$HYPERLINKBASE
1

9
$STYLESHEET
1

9
$XEDIT
290
1
9
$CEPSNTYPE
380
0
9
$PSTYLEMODE
290
1
9
$FINGERPRINTGUID
2
{961E61F3-DE51-4B89-8891-762105EBD74E}
9
$VERSIONGUID
2
{FCFD2D90-A212-B14A-9C10-9239B3ECD3B5}
9
$PSVPSCALE
40
0.0
9
$OLESTARTUP
290
0
9
$SORTENTS
280
127
9
$INDEXCTL
280
0
9
$HIDETEXT
280
0
9
$XCLIPFRAME
280
2
9
$HALOGAP
280
0
9
$OBSCOLOR
70
257
9
$OBSLTYPE
280
0
9
$INTERSECTIONDISPLAY
280
0
9
$INTERSECTIONCOLOR
70
257
9
$PROJECTNAME
1

9
$CAMERADISPLAY
290
0
9
$LENSLENGTH
40
50.0
9
$CAMERAHEIGHT
40
0.0
9
$STEPSPERSEC
40
2.0
9
$STEPSIZE
40
6.0
9
$3DDWFPREC
40
2.0
9
$PSOLWIDTH
40
0.25
9
$PSOLHEIGHT
40
4.0
9
$LOFTANG1
40
1.5707963267949
9
$LOFTANG2
40
1.5707963267949
9
$LOFTMAG1
40
0.0
9
$LOFTMAG2
40
0.0
9
$LOFTPARAM
70
7
9
$LOFTNORMALS
280
1
9
$LATITUDE
40
37.795
9
$LONGITUDE
40
-122.394
9
$NORTHDIRECTION
40
0.0
9
$TIMEZONE
70
-8000
9
$LIGHTGLYPHDISPLAY
280
1
9
$TILEMODELIGHTSYNCH
280
1
9
$CMATERIAL
347
105
9
$SOLIDHIST
280
0
9
$SHOWHIST
280
1
9
$DWFFRAME
280
2
9
$DGNFRAME
280
0
9
$REALWORLDSCALE
290
1
9
$INTERFERECOLOR
62
1
9
$CSHADOW
280
0
9
$SHADOWPLANELOCATION
40
0.0
0
ENDSEC
0
SECTION
2
CLASSES
0
CLASS
1
RASTERVARIABLES
2
AcDbRasterVariables
3
ISM
90
0
91
1
280
0
281
0
0
ENDSEC
0
SECTION
2
TABLES
0
TABLE
2
APPID
5
9
330
0
100
AcDbSymbolTable
70
8
0
APPID
5
12
330
9
100
AcDbSymbolTableRecord
100
AcDbRegAppTableRecord
2
ACAD
70
0
0
APPID
5
142
330
9
100
AcDbSymbolTableRecord
100
AcDbRegAppTableRecord
2
ACAD_DSTYLE_DIMRADIAL_EXTENSION
70
0
0
APPID
5
143
330
9
100
AcDbSymbolTableRecord
100
AcDbRegAppTableRecord
2
Acad_TC
70
0
0
APPID
5
284
330
9
100
AcDbSymbolTableRecord
100
AcDbRegAppTableRecord
2
ACAD_NAV_VCDISPLAY
70
0
0
APPID
5
2B5
330
9
100
AcDbSymbolTableRecord
100
AcDbRegAppTableRecord
2
AcCmTransparency
70
0
0
APPID
5
2B6
330
9
100
AcDbSymbolTableRecord
100
AcDbRegAppTableRecord
2
AcAecLayerStandard
70
0
0
APPID
5
2B7
330
9
100
AcDbSymbolTableRecord
100
AcDbRegAppTableRecord
2
GradientColor1ACI
70
0
0
APPID
5
2B8
330
9
100
AcDbSymbolTableRecord
100
AcDbRegAppTableRecord
2
GradientColor2ACI
70
0
0
ENDTAB
0
TABLE
2
VPORT
5
8
330
0
100
AcDbSymbolTable
70
1
0
VPORT
5
294
330
8
100
AcDbSymbolTableRecord
100
AcDbViewportTableRecord
2
*Active
70
0
10
0.0
20
0.0
11
1.0
21
1.0
12
0.0
22
0.0
13
0.0
23
0.0
14
0.5
24
0.5
15
10.0
25
10.0
16
0.0
26
0.0
36
1.0
17
0.0
27
0.0
37
0.0
40
10.0
41
1.0
75
0
76
1
0
ENDTAB
0
TABLE
2
LTYPE
5
5
330
0
100
AcDbSymbolTable
70
9
0
LTYPE
5
14
330
5
100
AcDbSymbolTableRecord
100
AcDbLinetypeTableRecord
2
ByBlock
70
0
3

72
65
73
0
40
0.0
0
LTYPE
5
15
330
5
100
AcDbSymbolTableRecord
100
AcDbLinetypeTableRecord
2
ByLayer
70
0
3

72
65
73
0
40
0.0
0
LTYPE
5
16
330
5
100
AcDbSymbolTableRecord
100
AcDbLinetypeTableRecord
2
Continuous
70
0
3
Solid line
72
65
73
0
40
0.0
0
LTYPE
5
6E
330
5
100
AcDbSymbolTableRecord
100
AcDbLinetypeTableRecord
2
HIDDEN
70
0
3
Hidden __ __ __ __ __ __ __ __ __ __ __ __ __ __
72
65
73
2
40
1.905
49
1.27
74
0
49
-0.635
74
0
0
LTYPE
5
6F
330
5
100
AcDbSymbolTableRecord
100
AcDbLinetypeTableRecord
2
PHANTOM
70
0
3
Phantom ______  __  __  ______  __  __  ______
72
65
73
6
40
12.7
49
6.35
74
0
49
-1.27
74
0
49
1.27
74
0
49
-1.27
74
0
49
1.27
74
0
49
-1.27
74
0
0
LTYPE
5
70
330
5
100
AcDbSymbolTableRecord
100
AcDbLinetypeTableRecord
2
CENTER
70
0
3
Center ____ _ ____ _ ____ _ ____ _ ____ _ ____
72
65
73
4
40
10.16
49
6.35
74
0
49
-1.27
74
0
49
1.27
74
0
49
-1.27
74
0
0
LTYPE
5
71
330
5
100
AcDbSymbolTableRecord
100
AcDbLinetypeTableRecord
2
CENTERX2
70
0
3
Center (2x) ________  __  ________  __  _____
72
65
73
4
40
20.32
49
12.7
74
0
49
-2.54
74
0
49
2.54
74
0
49
-2.54
74
0
0
LTYPE
5
72
330
5
100
AcDbSymbolTableRecord
100
AcDbLinetypeTableRecord
2
DOT2
70
0
3
Dot (.5x) ........................................
72
65
73
2
40
0.635
49
0.0
74
0
49
-0.635
74
0
0
LTYPE
5
152
330
5
100
AcDbSymbolTableRecord
100
AcDbLinetypeTableRecord
2
CENTER2
70
0
3
Center (.5x) ___ _ ___ _ ___ _ ___ _ ___ _ ___
72
65
73
4
40
1.125
49
0.75
74
0
49
-0.125
74
0
49
0.125
74
0
49
-0.125
74
0
0
ENDTAB
0
TABLE
2
LAYER
5
2
102
{ACAD_XDICTIONARY
360
295
102
}
330
0
100
AcDbSymbolTable
70
1
0
LAYER
5
10
330
2
100
AcDbSymbolTableRecord
100
AcDbLayerTableRecord
2
0
70
0
62
7
6
Continuous
290
1
370
-3
390
0
0
ENDTAB
0
TABLE
2
STYLE
5
3
330
0
100
AcDbSymbolTable
70
1
0
STYLE
5
11
330
3
100
AcDbSymbolTableRecord
100
AcDbTextStyleTableRecord
2
STANDARD
3

70
0
71
0
40
0.0
41
1.0
42
0.0
50
0.0
1001
ACAD
1000
CENTURY GOTHIC
1071
0
0
ENDTAB
0
TABLE
2
DIMSTYLE
5
A
330
0
100
AcDbSymbolTable
70
2
100
AcDbDimStyleTable
0
DIMSTYLE
105
27
330
A
100
AcDbSymbolTableRecord
100
AcDbDimStyleTableRecord
2
ISO-25
3

4

40
1.0
41
2.5
42
0.625
43
3.75
44
1.25
45
0.0
46
0.0
47
0.0
48
0.0
49
1.0
70
0
71
0
72
0
73
0
74
0
75
0
76
0
77
1
78
8
79
3
140
2.5
141
2.5
143
0.0393700787
144
1.0
146
1.0
147
0.625
148
0.0
170
0
171
3
172
1
174
0
175
0
176
0
177
0
178
0
179
0
271
2
272
2
273
2
274
3
275
0
276
0
277
2
278
44
279
0
280
0
281
0
282
0
283
0
284
8
285
0
286
0
289
3
290
0
294
0
340
11
173
0
345
14
346
14
347
14
371
-2
372
-2
0
DIMSTYLE
105
29E
330
A
100
AcDbSymbolTableRecord
100
AcDbDimStyleTableRecord
2
Standard
3

4

40
1.0
41
0.18
42
0.0625
43
0.38
44
0.18
45
0.0
46
0.0
47
0.0
48
0.0
49
1.0
70
0
71
0
72
0
73
0
74
0
75
0
76
0
77
0
78
0
79
0
140
0.18
141
0.09
143
25.4
144
1.0
146
1.0
147
0.09
148
0.0
170
0
171
2
172
0
174
0
175
0
176
0
177
0
178
0
179
0
271
4
272
4
273
2
274
2
275
0
276
0
277
2
278
46
279
0
280
0
281
0
282
0
283
1
284
0
285
0
286
0
289
3
290
0
294
0
340
11
173
0
345
14
346
14
347
14
371
-2
372
-2
0
ENDTAB
0
TABLE
2
VIEW
5
6
330
0
100
AcDbSymbolTable
70
0
0
ENDTAB
0
TABLE
2
UCS
5
7
330
0
100
AcDbSymbolTable
70
0
0
ENDTAB
0
TABLE
2
BLOCK_RECORD
5
1
330
0
100
AcDbSymbolTable
70
23
0
BLOCK_RECORD
5
1F
330
1
100
AcDbSymbolTableRecord
100
AcDbBlockTableRecord
2
*Model_Space
340
22
0
BLOCK_RECORD
5
1B
330
1
100
AcDbSymbolTableRecord
100
AcDbBlockTableRecord
2
*Paper_Space
340
1E
0
BLOCK_RECORD
5
23
330
1
100
AcDbSymbolTableRecord
100
AcDbBlockTableRecord
2
*Paper_Space0
340
26
0
BLOCK_RECORD
5
14E
330
1
100
AcDbSymbolTableRecord
100
AcDbBlockTableRecord
2
*U1
340
0
0
BLOCK_RECORD
5
15E
330
1
100
AcDbSymbolTableRecord
100
AcDbBlockTableRecord
2
*U2
340
0
0
BLOCK_RECORD
5
16D
330
1
100
AcDbSymbolTableRecord
100
AcDbBlockTableRecord
2
*U3
340
0
0
BLOCK_RECORD
5
17C
330
1
100
AcDbSymbolTableRecord
100
AcDbBlockTableRecord
2
*U4
340
0
0
BLOCK_RECORD
5
18B
330
1
100
AcDbSymbolTableRecord
100
AcDbBlockTableRecord
2
*U5
340
0
0
BLOCK_RECORD
5
19A
330
1
100
AcDbSymbolTableRecord
100
AcDbBlockTableRecord
2
*U6
340
0
0
BLOCK_RECORD
5
1A9
330
1
100
AcDbSymbolTableRecord
100
AcDbBlockTableRecord
2
*U7
340
0
0
BLOCK_RECORD
5
1B8
330
1
100
AcDbSymbolTableRecord
100
AcDbBlockTableRecord
2
*U8
340
0
0
BLOCK_RECORD
5
1C7
330
1
100
AcDbSymbolTableRecord
100
AcDbBlockTableRecord
2
*U9
340
0
0
BLOCK_RECORD
5
1D6
330
1
100
AcDbSymbolTableRecord
100
AcDbBlockTableRecord
2
*U10
340
0
0
BLOCK_RECORD
5
1E5
330
1
100
AcDbSymbolTableRecord
100
AcDbBlockTableRecord
2
*U11
340
0
0
BLOCK_RECORD
5
1F4
330
1
100
AcDbSymbolTableRecord
100
AcDbBlockTableRecord
2
*U12
340
0
0
BLOCK_RECORD
5
203
330
1
100
AcDbSymbolTableRecord
100
AcDbBlockTableRecord
2
*U13
340
0
0
BLOCK_RECORD
5
212
330
1
100
AcDbSymbolTableRecord
100
AcDbBlockTableRecord
2
*U14
340
0
0
BLOCK_RECORD
5
221
330
1
100
AcDbSymbolTableRecord
100
AcDbBlockTableRecord
2
*U15
340
0
0
BLOCK_RECORD
5
230
330
1
100
AcDbSymbolTableRecord
100
AcDbBlockTableRecord
2
*U16
340
0
0
BLOCK_RECORD
5
23F
330
1
100
AcDbSymbolTableRecord
100
AcDbBlockTableRecord
2
*U17
340
0
0
BLOCK_RECORD
5
24E
330
1
100
AcDbSymbolTableRecord
100
AcDbBlockTableRecord
2
*U18
340
0
0
BLOCK_RECORD
5
25D
330
1
100
AcDbSymbolTableRecord
100
AcDbBlockTableRecord
2
*U19
340
0
0
BLOCK_RECORD
5
26C
330
1
100
AcDbSymbolTableRecord
100
AcDbBlockTableRecord
2
*U20
340
0
0
ENDTAB
0
ENDSEC
0
SECTION
2
BLOCKS
0
BLOCK
5
20
330
1F
100
AcDbEntity
67
0
8
0
100
AcDbBlockBegin
2
*Model_Space
70
0
10
0.0
20
0.0
30
0.0
3
*Model_Space
4

0
ENDBLK
5
21
330
1F
100
AcDbEntity
8
0
100
AcDbBlockEnd
0
BLOCK
5
1C
330
1B
100
AcDbEntity
67
1
8
0
100
AcDbBlockBegin
2
*Paper_Space
70
0
10
0.0
20
0.0
30
0.0
3
*Paper_Space
4

0
ENDBLK
5
1D
330
1B
100
AcDbEntity
8
0
100
AcDbBlockEnd
0
BLOCK
5
24
330
23
100
AcDbEntity
67
1
8
0
100
AcDbBlockBegin
2
*Paper_Space0
70
0
10
0.0
20
0.0
30
0.0
3
*Paper_Space0
4

0
VIEWPORT
5
29D
330
23
100
AcDbEntity
67
1
8
0
62
256
6
ByLayer
370
-1
48
1.0
60
0
100
AcDbViewport
10
0.0
20
0.0
30
0.0
40
297.0
41
210.0
68
1
69
1
12
50.0
22
100.0
13
0.0
23
0.0
14
10.0
24
10.0
15
10.0
25
10.0
16
0.0
26
0.0
36
1.0
17
0.0
27
0.0
37
0.0
42
50.0
43
0.0
44
0.0
45
250.0
50
0.0
51
0.0
72
1000
90
819232
110
0.0
120
0.0
130
0.0
111
1.0
121
0.0
131
0.0
112
0.0
122
1.0
132
0.0
0
ENDBLK
5
25
330
23
100
AcDbEntity
8
0
100
AcDbBlockEnd
0
BLOCK
5
14F
330
14E
100
AcDbEntity
8
0
100
AcDbBlockBegin
2
*U1
70
1
10
0.0
20
0.0
30
0.0
3
*U1
4

0
LINE
5
154
330
14E
100
AcDbEntity
8
0
62
0
440
16777216
6
Continuous
370
-1
48
1.0
60
0
100
AcDbLine
10
-0.210000000000002
20
0.0
30
0.0
11
0.210000000000002
21
0.0
31
0.0
39
0.0
210
0.0
220
0.0
230
1.0
0
LINE
5
155
330
14E
100
AcDbEntity
8
0
62
0
440
16777216
6
Continuous
370
-1
48
1.0
60
0
100
AcDbLine
10
0.0
20
-0.210000000000002
30
0.0
11
0.0
21
0.210000000000002
31
0.0
39
0.0
210
0.0
220
0.0
230
1.0
0
LINE
5
156
330
14E
100
AcDbEntity
8
0
62
0
440
16777216
6
CENTER2
370
-1
48
1.0
60
0
100
AcDbLine
10
-5.60000000000002
20
0.0
30
0.0
11
-0.420000000000004
21
0.0
31
0.0
39
0.0
210
0.0
220
0.0
230
1.0
0
LINE
5
157
330
14E
100
AcDbEntity
8
0
62
0
440
16777216
6
CENTER2
370
-1
48
1.0
60
0
100
AcDbLine
10
0.420000000000005
20
0.0
30
0.0
11
5.60000000000002
21
0.0
31
0.0
39
0.0
210
0.0
220
0.0
230
1.0
0
LINE
5
158
330
14E
100
AcDbEntity
8
0
62
0
440
16777216
6
CENTER2
370
-1
48
1.0
60
0
100
AcDbLine
10
0.0
20
-5.60000000000002
30
0.0
11
0.0
21
-0.420000000000004
31
0.0
39
0.0
210
0.0
220
0.0
230
1.0
0
LINE
5
159
330
14E
100
AcDbEntity
8
0
62
0
440
16777216
6
CENTER2
370
-1
48
1.0
60
0
100
AcDbLine
10
0.0
20
0.420000000000005
30
0.0
11
0.0
21
5.60000000000002
31
0.0
39
0.0
210
0.0
220
0.0
230
1.0
0
ENDBLK
5
150
330
14E
100
AcDbEntity
8
0
100
AcDbBlockEnd
0
BLOCK
5
15F
330
15E
100
AcDbEntity
8
0
100
AcDbBlockBegin
2
*U2
70
1
10
0.0
20
0.0
30
0.0
3
*U2
4

0
LINE
5
163
330
15E
100
AcDbEntity
8
0
62
0
440
16777216
6
Continuous
370
-1
48
1.0
60
0
100
AcDbLine
10
-0.210000000000002
20
0.0
30
0.0
11
0.210000000000002
21
0.0
31
0.0
39
0.0
210
0.0
220
0.0
230
1.0
0
LINE
5
164
330
15E
100
AcDbEntity
8
0
62
0
440
16777216
6
Continuous
370
-1
48
1.0
60
0
100
AcDbLine
10
0.0
20
-0.210000000000002
30
0.0
11
0.0
21
0.210000000000002
31
0.0
39
0.0
210
0.0
220
0.0
230
1.0
0
LINE
5
165
330
15E
100
AcDbEntity
8
0
62
0
440
16777216
6
CENTER2
370
-1
48
1.0
60
0
100
AcDbLine
10
-5.60000000000002
20
0.0
30
0.0
11
-0.420000000000004
21
0.0
31
0.0
39
0.0
210
0.0
220
0.0
230
1.0
0
LINE
5
166
330
15E
100
AcDbEntity
8
0
62
0
440
16777216
6
CENTER2
370
-1
48
1.0
60
0
100
AcDbLine
10
0.420000000000005
20
0.0
30
0.0
11
5.60000000000002
21
0.0
31
0.0
39
0.0
210
0.0
220
0.0
230
1.0
0
LINE
5
167
330
15E
100
AcDbEntity
8
0
62
0
440
16777216
6
CENTER2
370
-1
48
1.0
60
0
100
AcDbLine
10
0.0
20
-5.60000000000002
30
0.0
11
0.0
21
-0.420000000000004
31
0.0
39
0.0
210
0.0
220
0.0
230
1.0
0
LINE
5
168
330
15E
100
AcDbEntity
8
0
62
0
440
16777216
6
CENTER2
370
-1
48
1.0
60
0
100
AcDbLine
10
0.0
20
0.420000000000005
30
0.0
11
0.0
21
5.60000000000002
31
0.0
39
0.0
210
0.0
220
0.0
230
1.0
0
ENDBLK
5
160
330
15E
100
AcDbEntity
8
0
100
AcDbBlockEnd
0
BLOCK
5
16E
330
16D
100
AcDbEntity
8
0
100
AcDbBlockBegin
2
*U3
70
1
10
0.0
20
0.0
30
0.0
3
*U3
4

0
LINE
5
172
330
16D
100
AcDbEntity
8
0
62
0
440
16777216
6
Continuous
370
-1
48
1.0
60
0
100
AcDbLine
10
-0.210000000000002
20
0.0
30
0.0
11
0.210000000000002
21
0.0
31
0.0
39
0.0
210
0.0
220
0.0
230
1.0
0
LINE
5
173
330
16D
100
AcDbEntity
8
0
62
0
440
16777216
6
Continuous
370
-1
48
1.0
60
0
100
AcDbLine
10
0.0
20
-0.210000000000002
30
0.0
11
0.0
21
0.210000000000002
31
0.0
39
0.0
210
0.0
220
0.0
230
1.0
0
LINE
5
174
330
16D
100
AcDbEntity
8
0
62
0
440
16777216
6
CENTER2
370
-1
48
1.0
60
0
100
AcDbLine
10
-5.60000000000002
20
0.0
30
0.0
11
-0.420000000000004
21
0.0
31
0.0
39
0.0
210
0.0
220
0.0
230
1.0
0
LINE
5
175
330
16D
100
AcDbEntity
8
0
62
0
440
16777216
6
CENTER2
370
-1
48
1.0
60
0
100
AcDbLine
10
0.420000000000005
20
0.0
30
0.0
11
5.60000000000002
21
0.0
31
0.0
39
0.0
210
0.0
220
0.0
230
1.0
0
LINE
5
176
330
16D
100
AcDbEntity
8
0
62
0
440
16777216
6
CENTER2
370
-1
48
1.0
60
0
100
AcDbLine
10
0.0
20
-5.60000000000002
30
0.0
11
0.0
21
-0.420000000000004
31
0.0
39
0.0
210
0.0
220
0.0
230
1.0
0
LINE
5
177
330
16D
100
AcDbEntity
8
0
62
0
440
16777216
6
CENTER2
370
-1
48
1.0
60
0
100
AcDbLine
10
0.0
20
0.420000000000005
30
0.0
11
0.0
21
5.60000000000002
31
0.0
39
0.0
210
0.0
220
0.0
230
1.0
0
ENDBLK
5
16F
330
16D
100
AcDbEntity
8
0
100
AcDbBlockEnd
0
BLOCK
5
17D
330
17C
100
AcDbEntity
8
0
100
AcDbBlockBegin
2
*U4
70
1
10
0.0
20
0.0
30
0.0
3
*U4
4

0
LINE
5
181
330
17C
100
AcDbEntity
8
0
62
0
440
16777216
6
Continuous
370
-1
48
1.0
60
0
100
AcDbLine
10
-0.210000000000002
20
0.0
30
0.0
11
0.210000000000002
21
0.0
31
0.0
39
0.0
210
0.0
220
0.0
230
1.0
0
LINE
5
182
330
17C
100
AcDbEntity
8
0
62
0
440
16777216
6
Continuous
370
-1
48
1.0
60
0
100
AcDbLine
10
0.0
20
-0.210000000000002
30
0.0
11
0.0
21
0.210000000000002
31
0.0
39
0.0
210
0.0
220
0.0
230
1.0
0
LINE
5
183
330
17C
100
AcDbEntity
8
0
62
0
440
16777216
6
CENTER2
370
-1
48
1.0
60
0
100
AcDbLine
10
-5.60000000000002
20
0.0
30
0.0
11
-0.420000000000004
21
0.0
31
0.0
39
0.0
210
0.0
220
0.0
230
1.0
0
LINE
5
184
330
17C
100
AcDbEntity
8
0
62
0
440
16777216
6
CENTER2
370
-1
48
1.0
60
0
100
AcDbLine
10
0.420000000000005
20
0.0
30
0.0
11
5.60000000000002
21
0.0
31
0.0
39
0.0
210
0.0
220
0.0
230
1.0
0
LINE
5
185
330
17C
100
AcDbEntity
8
0
62
0
440
16777216
6
CENTER2
370
-1
48
1.0
60
0
100
AcDbLine
10
0.0
20
-5.60000000000002
30
0.0
11
0.0
21
-0.420000000000004
31
0.0
39
0.0
210
0.0
220
0.0
230
1.0
0
LINE
5
186
330
17C
100
AcDbEntity
8
0
62
0
440
16777216
6
CENTER2
370
-1
48
1.0
60
0
100
AcDbLine
10
0.0
20
0.420000000000005
30
0.0
11
0.0
21
5.60000000000002
31
0.0
39
0.0
210
0.0
220
0.0
230
1.0
0
ENDBLK
5
17E
330
17C
100
AcDbEntity
8
0
100
AcDbBlockEnd
0
BLOCK
5
18C
330
18B
100
AcDbEntity
8
0
100
AcDbBlockBegin
2
*U5
70
1
10
0.0
20
0.0
30
0.0
3
*U5
4

0
LINE
5
190
330
18B
100
AcDbEntity
8
0
62
0
440
16777216
6
Continuous
370
-1
48
1.0
60
0
100
AcDbLine
10
-0.210000000000002
20
0.0
30
0.0
11
0.210000000000002
21
0.0
31
0.0
39
0.0
210
0.0
220
0.0
230
1.0
0
LINE
5
191
330
18B
100
AcDbEntity
8
0
62
0
440
16777216
6
Continuous
370
-1
48
1.0
60
0
100
AcDbLine
10
0.0
20
-0.210000000000002
30
0.0
11
0.0
21
0.210000000000002
31
0.0
39
0.0
210
0.0
220
0.0
230
1.0
0
LINE
5
192
330
18B
100
AcDbEntity
8
0
62
0
440
16777216
6
CENTER2
370
-1
48
1.0
60
0
100
AcDbLine
10
-5.60000000000002
20
0.0
30
0.0
11
-0.420000000000004
21
0.0
31
0.0
39
0.0
210
0.0
220
0.0
230
1.0
0
LINE
5
193
330
18B
100
AcDbEntity
8
0
62
0
440
16777216
6
CENTER2
370
-1
48
1.0
60
0
100
AcDbLine
10
0.420000000000005
20
0.0
30
0.0
11
5.60000000000002
21
0.0
31
0.0
39
0.0
210
0.0
220
0.0
230
1.0
0
LINE
5
194
330
18B
100
AcDbEntity
8
0
62
0
440
16777216
6
CENTER2
370
-1
48
1.0
60
0
100
AcDbLine
10
0.0
20
-5.60000000000002
30
0.0
11
0.0
21
-0.420000000000004
31
0.0
39
0.0
210
0.0
220
0.0
230
1.0
0
LINE
5
195
330
18B
100
AcDbEntity
8
0
62
0
440
16777216
6
CENTER2
370
-1
48
1.0
60
0
100
AcDbLine
10
0.0
20
0.420000000000005
30
0.0
11
0.0
21
5.60000000000002
31
0.0
39
0.0
210
0.0
220
0.0
230
1.0
0
ENDBLK
5
18D
330
18B
100
AcDbEntity
8
0
100
AcDbBlockEnd
0
BLOCK
5
19B
330
19A
100
AcDbEntity
8
0
100
AcDbBlockBegin
2
*U6
70
1
10
0.0
20
0.0
30
0.0
3
*U6
4

0
LINE
5
19F
330
19A
100
AcDbEntity
8
0
62
0
440
16777216
6
Continuous
370
-1
48
1.0
60
0
100
AcDbLine
10
-0.210000000000002
20
0.0
30
0.0
11
0.210000000000002
21
0.0
31
0.0
39
0.0
210
0.0
220
0.0
230
1.0
0
LINE
5
1A0
330
19A
100
AcDbEntity
8
0
62
0
440
16777216
6
Continuous
370
-1
48
1.0
60
0
100
AcDbLine
10
0.0
20
-0.210000000000002
30
0.0
11
0.0
21
0.210000000000002
31
0.0
39
0.0
210
0.0
220
0.0
230
1.0
0
LINE
5
1A1
330
19A
100
AcDbEntity
8
0
62
0
440
16777216
6
CENTER2
370
-1
48
1.0
60
0
100
AcDbLine
10
-5.60000000000002
20
0.0
30
0.0
11
-0.420000000000004
21
0.0
31
0.0
39
0.0
210
0.0
220
0.0
230
1.0
0
LINE
5
1A2
330
19A
100
AcDbEntity
8
0
62
0
440
16777216
6
CENTER2
370
-1
48
1.0
60
0
100
AcDbLine
10
0.420000000000005
20
0.0
30
0.0
11
5.60000000000002
21
0.0
31
0.0
39
0.0
210
0.0
220
0.0
230
1.0
0
LINE
5
1A3
330
19A
100
AcDbEntity
8
0
62
0
440
16777216
6
CENTER2
370
-1
48
1.0
60
0
100
AcDbLine
10
0.0
20
-5.60000000000002
30
0.0
11
0.0
21
-0.420000000000004
31
0.0
39
0.0
210
0.0
220
0.0
230
1.0
0
LINE
5
1A4
330
19A
100
AcDbEntity
8
0
62
0
440
16777216
6
CENTER2
370
-1
48
1.0
60
0
100
AcDbLine
10
0.0
20
0.420000000000005
30
0.0
11
0.0
21
5.60000000000002
31
0.0
39
0.0
210
0.0
220
0.0
230
1.0
0
ENDBLK
5
19C
330
19A
100
AcDbEntity
8
0
100
AcDbBlockEnd
0
BLOCK
5
1AA
330
1A9
100
AcDbEntity
8
0
100
AcDbBlockBegin
2
*U7
70
1
10
0.0
20
0.0
30
0.0
3
*U7
4

0
LINE
5
1AE
330
1A9
100
AcDbEntity
8
0
62
0
440
16777216
6
Continuous
370
-1
48
1.0
60
0
100
AcDbLine
10
-0.210000000000002
20
0.0
30
0.0
11
0.210000000000002
21
0.0
31
0.0
39
0.0
210
0.0
220
0.0
230
1.0
0
LINE
5
1AF
330
1A9
100
AcDbEntity
8
0
62
0
440
16777216
6
Continuous
370
-1
48
1.0
60
0
100
AcDbLine
10
0.0
20
-0.210000000000002
30
0.0
11
0.0
21
0.210000000000002
31
0.0
39
0.0
210
0.0
220
0.0
230
1.0
0
LINE
5
1B0
330
1A9
100
AcDbEntity
8
0
62
0
440
16777216
6
CENTER2
370
-1
48
1.0
60
0
100
AcDbLine
10
-5.60000000000002
20
0.0
30
0.0
11
-0.420000000000004
21
0.0
31
0.0
39
0.0
210
0.0
220
0.0
230
1.0
0
LINE
5
1B1
330
1A9
100
AcDbEntity
8
0
62
0
440
16777216
6
CENTER2
370
-1
48
1.0
60
0
100
AcDbLine
10
0.420000000000005
20
0.0
30
0.0
11
5.60000000000002
21
0.0
31
0.0
39
0.0
210
0.0
220
0.0
230
1.0
0
LINE
5
1B2
330
1A9
100
AcDbEntity
8
0
62
0
440
16777216
6
CENTER2
370
-1
48
1.0
60
0
100
AcDbLine
10
0.0
20
-5.60000000000002
30
0.0
11
0.0
21
-0.420000000000004
31
0.0
39
0.0
210
0.0
220
0.0
230
1.0
0
LINE
5
1B3
330
1A9
100
AcDbEntity
8
0
62
0
440
16777216
6
CENTER2
370
-1
48
1.0
60
0
100
AcDbLine
10
0.0
20
0.420000000000005
30
0.0
11
0.0
21
5.60000000000002
31
0.0
39
0.0
210
0.0
220
0.0
230
1.0
0
ENDBLK
5
1AB
330
1A9
100
AcDbEntity
8
0
100
AcDbBlockEnd
0
BLOCK
5
1B9
330
1B8
100
AcDbEntity
8
0
100
AcDbBlockBegin
2
*U8
70
1
10
0.0
20
0.0
30
0.0
3
*U8
4

0
LINE
5
1BD
330
1B8
100
AcDbEntity
8
0
62
0
440
16777216
6
Continuous
370
-1
48
1.0
60
0
100
AcDbLine
10
-0.210000000000002
20
0.0
30
0.0
11
0.210000000000002
21
0.0
31
0.0
39
0.0
210
0.0
220
0.0
230
1.0
0
LINE
5
1BE
330
1B8
100
AcDbEntity
8
0
62
0
440
16777216
6
Continuous
370
-1
48
1.0
60
0
100
AcDbLine
10
0.0
20
-0.210000000000002
30
0.0
11
0.0
21
0.210000000000002
31
0.0
39
0.0
210
0.0
220
0.0
230
1.0
0
LINE
5
1BF
330
1B8
100
AcDbEntity
8
0
62
0
440
16777216
6
CENTER2
370
-1
48
1.0
60
0
100
AcDbLine
10
-5.60000000000002
20
0.0
30
0.0
11
-0.420000000000004
21
0.0
31
0.0
39
0.0
210
0.0
220
0.0
230
1.0
0
LINE
5
1C0
330
1B8
100
AcDbEntity
8
0
62
0
440
16777216
6
CENTER2
370
-1
48
1.0
60
0
100
AcDbLine
10
0.420000000000005
20
0.0
30
0.0
11
5.60000000000002
21
0.0
31
0.0
39
0.0
210
0.0
220
0.0
230
1.0
0
LINE
5
1C1
330
1B8
100
AcDbEntity
8
0
62
0
440
16777216
6
CENTER2
370
-1
48
1.0
60
0
100
AcDbLine
10
0.0
20
-5.60000000000002
30
0.0
11
0.0
21
-0.420000000000004
31
0.0
39
0.0
210
0.0
220
0.0
230
1.0
0
LINE
5
1C2
330
1B8
100
AcDbEntity
8
0
62
0
440
16777216
6
CENTER2
370
-1
48
1.0
60
0
100
AcDbLine
10
0.0
20
0.420000000000005
30
0.0
11
0.0
21
5.60000000000002
31
0.0
39
0.0
210
0.0
220
0.0
230
1.0
0
ENDBLK
5
1BA
330
1B8
100
AcDbEntity
8
0
100
AcDbBlockEnd
0
BLOCK
5
1C8
330
1C7
100
AcDbEntity
8
0
100
AcDbBlockBegin
2
*U9
70
1
10
0.0
20
0.0
30
0.0
3
*U9
4

0
LINE
5
1CC
330
1C7
100
AcDbEntity
8
0
62
0
440
16777216
6
Continuous
370
-1
48
1.0
60
0
100
AcDbLine
10
-0.21
20
0.0
30
0.0
11
0.21
21
0.0
31
0.0
39
0.0
210
0.0
220
0.0
230
1.0
0
LINE
5
1CD
330
1C7
100
AcDbEntity
8
0
62
0
440
16777216
6
Continuous
370
-1
48
1.0
60
0
100
AcDbLine
10
0.0
20
-0.21
30
0.0
11
0.0
21
0.21
31
0.0
39
0.0
210
0.0
220
0.0
230
1.0
0
LINE
5
1CE
330
1C7
100
AcDbEntity
8
0
62
0
440
16777216
6
CENTER2
370
-1
48
1.0
60
0
100
AcDbLine
10
-5.6
20
0.0
30
0.0
11
-0.42
21
0.0
31
0.0
39
0.0
210
0.0
220
0.0
230
1.0
0
LINE
5
1CF
330
1C7
100
AcDbEntity
8
0
62
0
440
16777216
6
CENTER2
370
-1
48
1.0
60
0
100
AcDbLine
10
0.42
20
0.0
30
0.0
11
5.6
21
0.0
31
0.0
39
0.0
210
0.0
220
0.0
230
1.0
0
LINE
5
1D0
330
1C7
100
AcDbEntity
8
0
62
0
440
16777216
6
CENTER2
370
-1
48
1.0
60
0
100
AcDbLine
10
0.0
20
-5.6
30
0.0
11
0.0
21
-0.42
31
0.0
39
0.0
210
0.0
220
0.0
230
1.0
0
LINE
5
1D1
330
1C7
100
AcDbEntity
8
0
62
0
440
16777216
6
CENTER2
370
-1
48
1.0
60
0
100
AcDbLine
10
0.0
20
0.42
30
0.0
11
0.0
21
5.6
31
0.0
39
0.0
210
0.0
220
0.0
230
1.0
0
ENDBLK
5
1C9
330
1C7
100
AcDbEntity
8
0
100
AcDbBlockEnd
0
BLOCK
5
1D7
330
1D6
100
AcDbEntity
8
0
100
AcDbBlockBegin
2
*U10
70
1
10
0.0
20
0.0
30
0.0
3
*U10
4

0
LINE
5
1DB
330
1D6
100
AcDbEntity
8
0
62
0
440
16777216
6
Continuous
370
-1
48
1.0
60
0
100
AcDbLine
10
-0.21
20
0.0
30
0.0
11
0.21
21
0.0
31
0.0
39
0.0
210
0.0
220
0.0
230
1.0
0
LINE
5
1DC
330
1D6
100
AcDbEntity
8
0
62
0
440
16777216
6
Continuous
370
-1
48
1.0
60
0
100
AcDbLine
10
0.0
20
-0.21
30
0.0
11
0.0
21
0.21
31
0.0
39
0.0
210
0.0
220
0.0
230
1.0
0
LINE
5
1DD
330
1D6
100
AcDbEntity
8
0
62
0
440
16777216
6
CENTER2
370
-1
48
1.0
60
0
100
AcDbLine
10
-5.6
20
0.0
30
0.0
11
-0.42
21
0.0
31
0.0
39
0.0
210
0.0
220
0.0
230
1.0
0
LINE
5
1DE
330
1D6
100
AcDbEntity
8
0
62
0
440
16777216
6
CENTER2
370
-1
48
1.0
60
0
100
AcDbLine
10
0.42
20
0.0
30
0.0
11
5.6
21
0.0
31
0.0
39
0.0
210
0.0
220
0.0
230
1.0
0
LINE
5
1DF
330
1D6
100
AcDbEntity
8
0
62
0
440
16777216
6
CENTER2
370
-1
48
1.0
60
0
100
AcDbLine
10
0.0
20
-5.6
30
0.0
11
0.0
21
-0.42
31
0.0
39
0.0
210
0.0
220
0.0
230
1.0
0
LINE
5
1E0
330
1D6
100
AcDbEntity
8
0
62
0
440
16777216
6
CENTER2
370
-1
48
1.0
60
0
100
AcDbLine
10
0.0
20
0.42
30
0.0
11
0.0
21
5.6
31
0.0
39
0.0
210
0.0
220
0.0
230
1.0
0
ENDBLK
5
1D8
330
1D6
100
AcDbEntity
8
0
100
AcDbBlockEnd
0
BLOCK
5
1E6
330
1E5
100
AcDbEntity
8
0
100
AcDbBlockBegin
2
*U11
70
1
10
0.0
20
0.0
30
0.0
3
*U11
4

0
LINE
5
1EA
330
1E5
100
AcDbEntity
8
0
62
0
440
16777216
6
Continuous
370
-1
48
1.0
60
0
100
AcDbLine
10
-0.21
20
0.0
30
0.0
11
0.21
21
0.0
31
0.0
39
0.0
210
0.0
220
0.0
230
1.0
0
LINE
5
1EB
330
1E5
100
AcDbEntity
8
0
62
0
440
16777216
6
Continuous
370
-1
48
1.0
60
0
100
AcDbLine
10
0.0
20
-0.21
30
0.0
11
0.0
21
0.21
31
0.0
39
0.0
210
0.0
220
0.0
230
1.0
0
LINE
5
1EC
330
1E5
100
AcDbEntity
8
0
62
0
440
16777216
6
CENTER2
370
-1
48
1.0
60
0
100
AcDbLine
10
-5.6
20
0.0
30
0.0
11
-0.42
21
0.0
31
0.0
39
0.0
210
0.0
220
0.0
230
1.0
0
LINE
5
1ED
330
1E5
100
AcDbEntity
8
0
62
0
440
16777216
6
CENTER2
370
-1
48
1.0
60
0
100
AcDbLine
10
0.42
20
0.0
30
0.0
11
5.6
21
0.0
31
0.0
39
0.0
210
0.0
220
0.0
230
1.0
0
LINE
5
1EE
330
1E5
100
AcDbEntity
8
0
62
0
440
16777216
6
CENTER2
370
-1
48
1.0
60
0
100
AcDbLine
10
0.0
20
-5.6
30
0.0
11
0.0
21
-0.42
31
0.0
39
0.0
210
0.0
220
0.0
230
1.0
0
LINE
5
1EF
330
1E5
100
AcDbEntity
8
0
62
0
440
16777216
6
CENTER2
370
-1
48
1.0
60
0
100
AcDbLine
10
0.0
20
0.42
30
0.0
11
0.0
21
5.6
31
0.0
39
0.0
210
0.0
220
0.0
230
1.0
0
ENDBLK
5
1E7
330
1E5
100
AcDbEntity
8
0
100
AcDbBlockEnd
0
BLOCK
5
1F5
330
1F4
100
AcDbEntity
8
0
100
AcDbBlockBegin
2
*U12
70
1
10
0.0
20
0.0
30
0.0
3
*U12
4

0
LINE
5
1F9
330
1F4
100
AcDbEntity
8
0
62
0
440
16777216
6
Continuous
370
-1
48
1.0
60
0
100
AcDbLine
10
-0.21
20
0.0
30
0.0
11
0.21
21
0.0
31
0.0
39
0.0
210
0.0
220
0.0
230
1.0
0
LINE
5
1FA
330
1F4
100
AcDbEntity
8
0
62
0
440
16777216
6
Continuous
370
-1
48
1.0
60
0
100
AcDbLine
10
0.0
20
-0.21
30
0.0
11
0.0
21
0.21
31
0.0
39
0.0
210
0.0
220
0.0
230
1.0
0
LINE
5
1FB
330
1F4
100
AcDbEntity
8
0
62
0
440
16777216
6
CENTER2
370
-1
48
1.0
60
0
100
AcDbLine
10
-5.6
20
0.0
30
0.0
11
-0.42
21
0.0
31
0.0
39
0.0
210
0.0
220
0.0
230
1.0
0
LINE
5
1FC
330
1F4
100
AcDbEntity
8
0
62
0
440
16777216
6
CENTER2
370
-1
48
1.0
60
0
100
AcDbLine
10
0.42
20
0.0
30
0.0
11
5.6
21
0.0
31
0.0
39
0.0
210
0.0
220
0.0
230
1.0
0
LINE
5
1FD
330
1F4
100
AcDbEntity
8
0
62
0
440
16777216
6
CENTER2
370
-1
48
1.0
60
0
100
AcDbLine
10
0.0
20
-5.6
30
0.0
11
0.0
21
-0.42
31
0.0
39
0.0
210
0.0
220
0.0
230
1.0
0
LINE
5
1FE
330
1F4
100
AcDbEntity
8
0
62
0
440
16777216
6
CENTER2
370
-1
48
1.0
60
0
100
AcDbLine
10
0.0
20
0.42
30
0.0
11
0.0
21
5.6
31
0.0
39
0.0
210
0.0
220
0.0
230
1.0
0
ENDBLK
5
1F6
330
1F4
100
AcDbEntity
8
0
100
AcDbBlockEnd
0
BLOCK
5
204
330
203
100
AcDbEntity
8
0
100
AcDbBlockBegin
2
*U13
70
1
10
0.0
20
0.0
30
0.0
3
*U13
4

0
LINE
5
208
330
203
100
AcDbEntity
8
0
62
0
440
16777216
6
Continuous
370
-1
48
1.0
60
0
100
AcDbLine
10
-0.210000000000002
20
0.0
30
0.0
11
0.210000000000002
21
0.0
31
0.0
39
0.0
210
0.0
220
0.0
230
1.0
0
LINE
5
209
330
203
100
AcDbEntity
8
0
62
0
440
16777216
6
Continuous
370
-1
48
1.0
60
0
100
AcDbLine
10
0.0
20
-0.210000000000002
30
0.0
11
0.0
21
0.210000000000002
31
0.0
39
0.0
210
0.0
220
0.0
230
1.0
0
LINE
5
20A
330
203
100
AcDbEntity
8
0
62
0
440
16777216
6
CENTER2
370
-1
48
1.0
60
0
100
AcDbLine
10
-5.60000000000002
20
0.0
30
0.0
11
-0.420000000000004
21
0.0
31
0.0
39
0.0
210
0.0
220
0.0
230
1.0
0
LINE
5
20B
330
203
100
AcDbEntity
8
0
62
0
440
16777216
6
CENTER2
370
-1
48
1.0
60
0
100
AcDbLine
10
0.420000000000005
20
0.0
30
0.0
11
5.60000000000002
21
0.0
31
0.0
39
0.0
210
0.0
220
0.0
230
1.0
0
LINE
5
20C
330
203
100
AcDbEntity
8
0
62
0
440
16777216
6
CENTER2
370
-1
48
1.0
60
0
100
AcDbLine
10
0.0
20
-5.60000000000002
30
0.0
11
0.0
21
-0.420000000000004
31
0.0
39
0.0
210
0.0
220
0.0
230
1.0
0
LINE
5
20D
330
203
100
AcDbEntity
8
0
62
0
440
16777216
6
CENTER2
370
-1
48
1.0
60
0
100
AcDbLine
10
0.0
20
0.420000000000005
30
0.0
11
0.0
21
5.60000000000002
31
0.0
39
0.0
210
0.0
220
0.0
230
1.0
0
ENDBLK
5
205
330
203
100
AcDbEntity
8
0
100
AcDbBlockEnd
0
BLOCK
5
213
330
212
100
AcDbEntity
8
0
100
AcDbBlockBegin
2
*U14
70
1
10
0.0
20
0.0
30
0.0
3
*U14
4

0
LINE
5
217
330
212
100
AcDbEntity
8
0
62
0
440
16777216
6
Continuous
370
-1
48
1.0
60
0
100
AcDbLine
10
-0.210000000000002
20
0.0
30
0.0
11
0.210000000000002
21
0.0
31
0.0
39
0.0
210
0.0
220
0.0
230
1.0
0
LINE
5
218
330
212
100
AcDbEntity
8
0
62
0
440
16777216
6
Continuous
370
-1
48
1.0
60
0
100
AcDbLine
10
0.0
20
-0.210000000000002
30
0.0
11
0.0
21
0.210000000000002
31
0.0
39
0.0
210
0.0
220
0.0
230
1.0
0
LINE
5
219
330
212
100
AcDbEntity
8
0
62
0
440
16777216
6
CENTER2
370
-1
48
1.0
60
0
100
AcDbLine
10
-5.60000000000002
20
0.0
30
0.0
11
-0.420000000000004
21
0.0
31
0.0
39
0.0
210
0.0
220
0.0
230
1.0
0
LINE
5
21A
330
212
100
AcDbEntity
8
0
62
0
440
16777216
6
CENTER2
370
-1
48
1.0
60
0
100
AcDbLine
10
0.420000000000005
20
0.0
30
0.0
11
5.60000000000002
21
0.0
31
0.0
39
0.0
210
0.0
220
0.0
230
1.0
0
LINE
5
21B
330
212
100
AcDbEntity
8
0
62
0
440
16777216
6
CENTER2
370
-1
48
1.0
60
0
100
AcDbLine
10
0.0
20
-5.60000000000002
30
0.0
11
0.0
21
-0.420000000000004
31
0.0
39
0.0
210
0.0
220
0.0
230
1.0
0
LINE
5
21C
330
212
100
AcDbEntity
8
0
62
0
440
16777216
6
CENTER2
370
-1
48
1.0
60
0
100
AcDbLine
10
0.0
20
0.420000000000005
30
0.0
11
0.0
21
5.60000000000002
31
0.0
39
0.0
210
0.0
220
0.0
230
1.0
0
ENDBLK
5
214
330
212
100
AcDbEntity
8
0
100
AcDbBlockEnd
0
BLOCK
5
222
330
221
100
AcDbEntity
8
0
100
AcDbBlockBegin
2
*U15
70
1
10
0.0
20
0.0
30
0.0
3
*U15
4

0
LINE
5
226
330
221
100
AcDbEntity
8
0
62
0
440
16777216
6
Continuous
370
-1
48
1.0
60
0
100
AcDbLine
10
-0.209999999999991
20
0.0
30
0.0
11
0.209999999999991
21
0.0
31
0.0
39
0.0
210
0.0
220
0.0
230
1.0
0
LINE
5
227
330
221
100
AcDbEntity
8
0
62
0
440
16777216
6
Continuous
370
-1
48
1.0
60
0
100
AcDbLine
10
0.0
20
-0.209999999999991
30
0.0
11
0.0
21
0.209999999999991
31
0.0
39
0.0
210
0.0
220
0.0
230
1.0
0
LINE
5
228
330
221
100
AcDbEntity
8
0
62
0
440
16777216
6
CENTER2
370
-1
48
1.0
60
0
100
AcDbLine
10
-5.59999999999991
20
0.0
30
0.0
11
-0.419999999999982
21
0.0
31
0.0
39
0.0
210
0.0
220
0.0
230
1.0
0
LINE
5
229
330
221
100
AcDbEntity
8
0
62
0
440
16777216
6
CENTER2
370
-1
48
1.0
60
0
100
AcDbLine
10
0.419999999999982
20
0.0
30
0.0
11
5.59999999999991
21
0.0
31
0.0
39
0.0
210
0.0
220
0.0
230
1.0
0
LINE
5
22A
330
221
100
AcDbEntity
8
0
62
0
440
16777216
6
CENTER2
370
-1
48
1.0
60
0
100
AcDbLine
10
0.0
20
-5.59999999999991
30
0.0
11
0.0
21
-0.419999999999982
31
0.0
39
0.0
210
0.0
220
0.0
230
1.0
0
LINE
5
22B
330
221
100
AcDbEntity
8
0
62
0
440
16777216
6
CENTER2
370
-1
48
1.0
60
0
100
AcDbLine
10
0.0
20
0.419999999999982
30
0.0
11
0.0
21
5.59999999999991
31
0.0
39
0.0
210
0.0
220
0.0
230
1.0
0
ENDBLK
5
223
330
221
100
AcDbEntity
8
0
100
AcDbBlockEnd
0
BLOCK
5
231
330
230
100
AcDbEntity
8
0
100
AcDbBlockBegin
2
*U16
70
1
10
0.0
20
0.0
30
0.0
3
*U16
4

0
LINE
5
235
330
230
100
AcDbEntity
8
0
62
0
440
16777216
6
Continuous
370
-1
48
1.0
60
0
100
AcDbLine
10
-0.209999999999991
20
0.0
30
0.0
11
0.209999999999991
21
0.0
31
0.0
39
0.0
210
0.0
220
0.0
230
1.0
0
LINE
5
236
330
230
100
AcDbEntity
8
0
62
0
440
16777216
6
Continuous
370
-1
48
1.0
60
0
100
AcDbLine
10
0.0
20
-0.209999999999991
30
0.0
11
0.0
21
0.209999999999991
31
0.0
39
0.0
210
0.0
220
0.0
230
1.0
0
LINE
5
237
330
230
100
AcDbEntity
8
0
62
0
440
16777216
6
CENTER2
370
-1
48
1.0
60
0
100
AcDbLine
10
-5.59999999999991
20
0.0
30
0.0
11
-0.419999999999982
21
0.0
31
0.0
39
0.0
210
0.0
220
0.0
230
1.0
0
LINE
5
238
330
230
100
AcDbEntity
8
0
62
0
440
16777216
6
CENTER2
370
-1
48
1.0
60
0
100
AcDbLine
10
0.419999999999982
20
0.0
30
0.0
11
5.59999999999991
21
0.0
31
0.0
39
0.0
210
0.0
220
0.0
230
1.0
0
LINE
5
239
330
230
100
AcDbEntity
8
0
62
0
440
16777216
6
CENTER2
370
-1
48
1.0
60
0
100
AcDbLine
10
0.0
20
-5.59999999999991
30
0.0
11
0.0
21
-0.419999999999982
31
0.0
39
0.0
210
0.0
220
0.0
230
1.0
0
LINE
5
23A
330
230
100
AcDbEntity
8
0
62
0
440
16777216
6
CENTER2
370
-1
48
1.0
60
0
100
AcDbLine
10
0.0
20
0.419999999999982
30
0.0
11
0.0
21
5.59999999999991
31
0.0
39
0.0
210
0.0
220
0.0
230
1.0
0
ENDBLK
5
232
330
230
100
AcDbEntity
8
0
100
AcDbBlockEnd
0
BLOCK
5
240
330
23F
100
AcDbEntity
8
0
100
AcDbBlockBegin
2
*U17
70
1
10
0.0
20
0.0
30
0.0
3
*U17
4

0
LINE
5
244
330
23F
100
AcDbEntity
8
0
62
0
440
16777216
6
Continuous
370
-1
48
1.0
60
0
100
AcDbLine
10
-0.210000000000002
20
0.0
30
0.0
11
0.210000000000002
21
0.0
31
0.0
39
0.0
210
0.0
220
0.0
230
1.0
0
LINE
5
245
330
23F
100
AcDbEntity
8
0
62
0
440
16777216
6
Continuous
370
-1
48
1.0
60
0
100
AcDbLine
10
0.0
20
-0.210000000000002
30
0.0
11
0.0
21
0.210000000000002
31
0.0
39
0.0
210
0.0
220
0.0
230
1.0
0
LINE
5
246
330
23F
100
AcDbEntity
8
0
62
0
440
16777216
6
CENTER2
370
-1
48
1.0
60
0
100
AcDbLine
10
-5.60000000000002
20
0.0
30
0.0
11
-0.420000000000004
21
0.0
31
0.0
39
0.0
210
0.0
220
0.0
230
1.0
0
LINE
5
247
330
23F
100
AcDbEntity
8
0
62
0
440
16777216
6
CENTER2
370
-1
48
1.0
60
0
100
AcDbLine
10
0.420000000000005
20
0.0
30
0.0
11
5.60000000000002
21
0.0
31
0.0
39
0.0
210
0.0
220
0.0
230
1.0
0
LINE
5
248
330
23F
100
AcDbEntity
8
0
62
0
440
16777216
6
CENTER2
370
-1
48
1.0
60
0
100
AcDbLine
10
0.0
20
-5.60000000000002
30
0.0
11
0.0
21
-0.420000000000004
31
0.0
39
0.0
210
0.0
220
0.0
230
1.0
0
LINE
5
249
330
23F
100
AcDbEntity
8
0
62
0
440
16777216
6
CENTER2
370
-1
48
1.0
60
0
100
AcDbLine
10
0.0
20
0.420000000000005
30
0.0
11
0.0
21
5.60000000000002
31
0.0
39
0.0
210
0.0
220
0.0
230
1.0
0
ENDBLK
5
241
330
23F
100
AcDbEntity
8
0
100
AcDbBlockEnd
0
BLOCK
5
24F
330
24E
100
AcDbEntity
8
0
100
AcDbBlockBegin
2
*U18
70
1
10
0.0
20
0.0
30
0.0
3
*U18
4

0
LINE
5
253
330
24E
100
AcDbEntity
8
0
62
0
440
16777216
6
Continuous
370
-1
48
1.0
60
0
100
AcDbLine
10
-0.210000000000002
20
0.0
30
0.0
11
0.210000000000002
21
0.0
31
0.0
39
0.0
210
0.0
220
0.0
230
1.0
0
LINE
5
254
330
24E
100
AcDbEntity
8
0
62
0
440
16777216
6
Continuous
370
-1
48
1.0
60
0
100
AcDbLine
10
0.0
20
-0.210000000000002
30
0.0
11
0.0
21
0.210000000000002
31
0.0
39
0.0
210
0.0
220
0.0
230
1.0
0
LINE
5
255
330
24E
100
AcDbEntity
8
0
62
0
440
16777216
6
CENTER2
370
-1
48
1.0
60
0
100
AcDbLine
10
-5.60000000000002
20
0.0
30
0.0
11
-0.420000000000004
21
0.0
31
0.0
39
0.0
210
0.0
220
0.0
230
1.0
0
LINE
5
256
330
24E
100
AcDbEntity
8
0
62
0
440
16777216
6
CENTER2
370
-1
48
1.0
60
0
100
AcDbLine
10
0.420000000000005
20
0.0
30
0.0
11
5.60000000000002
21
0.0
31
0.0
39
0.0
210
0.0
220
0.0
230
1.0
0
LINE
5
257
330
24E
100
AcDbEntity
8
0
62
0
440
16777216
6
CENTER2
370
-1
48
1.0
60
0
100
AcDbLine
10
0.0
20
-5.60000000000002
30
0.0
11
0.0
21
-0.420000000000004
31
0.0
39
0.0
210
0.0
220
0.0
230
1.0
0
LINE
5
258
330
24E
100
AcDbEntity
8
0
62
0
440
16777216
6
CENTER2
370
-1
48
1.0
60
0
100
AcDbLine
10
0.0
20
0.420000000000005
30
0.0
11
0.0
21
5.60000000000002
31
0.0
39
0.0
210
0.0
220
0.0
230
1.0
0
ENDBLK
5
250
330
24E
100
AcDbEntity
8
0
100
AcDbBlockEnd
0
BLOCK
5
25E
330
25D
100
AcDbEntity
8
0
100
AcDbBlockBegin
2
*U19
70
1
10
0.0
20
0.0
30
0.0
3
*U19
4

0
LINE
5
262
330
25D
100
AcDbEntity
8
0
62
0
440
16777216
6
Continuous
370
-1
48
1.0
60
0
100
AcDbLine
10
-0.210000000000002
20
0.0
30
0.0
11
0.210000000000002
21
0.0
31
0.0
39
0.0
210
0.0
220
0.0
230
1.0
0
LINE
5
263
330
25D
100
AcDbEntity
8
0
62
0
440
16777216
6
Continuous
370
-1
48
1.0
60
0
100
AcDbLine
10
0.0
20
-0.210000000000002
30
0.0
11
0.0
21
0.210000000000002
31
0.0
39
0.0
210
0.0
220
0.0
230
1.0
0
LINE
5
264
330
25D
100
AcDbEntity
8
0
62
0
440
16777216
6
CENTER2
370
-1
48
1.0
60
0
100
AcDbLine
10
-5.60000000000002
20
0.0
30
0.0
11
-0.420000000000004
21
0.0
31
0.0
39
0.0
210
0.0
220
0.0
230
1.0
0
LINE
5
265
330
25D
100
AcDbEntity
8
0
62
0
440
16777216
6
CENTER2
370
-1
48
1.0
60
0
100
AcDbLine
10
0.420000000000005
20
0.0
30
0.0
11
5.60000000000002
21
0.0
31
0.0
39
0.0
210
0.0
220
0.0
230
1.0
0
LINE
5
266
330
25D
100
AcDbEntity
8
0
62
0
440
16777216
6
CENTER2
370
-1
48
1.0
60
0
100
AcDbLine
10
0.0
20
-5.60000000000002
30
0.0
11
0.0
21
-0.420000000000004
31
0.0
39
0.0
210
0.0
220
0.0
230
1.0
0
LINE
5
267
330
25D
100
AcDbEntity
8
0
62
0
440
16777216
6
CENTER2
370
-1
48
1.0
60
0
100
AcDbLine
10
0.0
20
0.420000000000005
30
0.0
11
0.0
21
5.60000000000002
31
0.0
39
0.0
210
0.0
220
0.0
230
1.0
0
ENDBLK
5
25F
330
25D
100
AcDbEntity
8
0
100
AcDbBlockEnd
0
BLOCK
5
26D
330
26C
100
AcDbEntity
8
0
100
AcDbBlockBegin
2
*U20
70
1
10
0.0
20
0.0
30
0.0
3
*U20
4

0
LINE
5
271
330
26C
100
AcDbEntity
8
0
62
0
440
16777216
6
Continuous
370
-1
48
1.0
60
0
100
AcDbLine
10
-0.210000000000002
20
0.0
30
0.0
11
0.210000000000002
21
0.0
31
0.0
39
0.0
210
0.0
220
0.0
230
1.0
0
LINE
5
272
330
26C
100
AcDbEntity
8
0
62
0
440
16777216
6
Continuous
370
-1
48
1.0
60
0
100
AcDbLine
10
0.0
20
-0.210000000000002
30
0.0
11
0.0
21
0.210000000000002
31
0.0
39
0.0
210
0.0
220
0.0
230
1.0
0
LINE
5
273
330
26C
100
AcDbEntity
8
0
62
0
440
16777216
6
CENTER2
370
-1
48
1.0
60
0
100
AcDbLine
10
-5.60000000000002
20
0.0
30
0.0
11
-0.420000000000004
21
0.0
31
0.0
39
0.0
210
0.0
220
0.0
230
1.0
0
LINE
5
274
330
26C
100
AcDbEntity
8
0
62
0
440
16777216
6
CENTER2
370
-1
48
1.0
60
0
100
AcDbLine
10
0.420000000000005
20
0.0
30
0.0
11
5.60000000000002
21
0.0
31
0.0
39
0.0
210
0.0
220
0.0
230
1.0
0
LINE
5
275
330
26C
100
AcDbEntity
8
0
62
0
440
16777216
6
CENTER2
370
-1
48
1.0
60
0
100
AcDbLine
10
0.0
20
-5.60000000000002
30
0.0
11
0.0
21
-0.420000000000004
31
0.0
39
0.0
210
0.0
220
0.0
230
1.0
0
LINE
5
276
330
26C
100
AcDbEntity
8
0
62
0
440
16777216
6
CENTER2
370
-1
48
1.0
60
0
100
AcDbLine
10
0.0
20
0.420000000000005
30
0.0
11
0.0
21
5.60000000000002
31
0.0
39
0.0
210
0.0
220
0.0
230
1.0
0
ENDBLK
5
26E
330
26C
100
AcDbEntity
8
0
100
AcDbBlockEnd
0
ENDSEC
0
SECTION
2
ENTITIES
0
VIEWPORT
5
29C
330
1B
100
AcDbEntity
67
1
8
0
62
256
6
ByLayer
370
-1
48
1.0
60
0
100
AcDbViewport
10
0.0
20
0.0
30
0.0
40
297.0
41
210.0
68
1
69
1
12
50.0
22
100.0
13
0.0
23
0.0
14
10.0
24
10.0
15
10.0
25
10.0
16
0.0
26
0.0
36
1.0
17
0.0
27
0.0
37
0.0
42
50.0
43
0.0
44
0.0
45
250.0
50
0.0
51
0.0
72
1000
90
819232
110
0.0
120
0.0
130
0.0
111
1.0
121
0.0
131
0.0
112
0.0
122
1.0
132
0.0
0
LINE
5
73
330
1F
100
AcDbEntity
67
0
8
0
62
7
6
Continuous
370
25
48
1.0
60
0
100
AcDbLine
10
-811.0
20
244.0
30
0.0
11
-811.0
21
275.0
31
0.0
39
0.0
210
0.0
220
0.0
230
1.0
0
ARC
5
74
330
1F
100
AcDbEntity
67
0
8
0
62
7
6
Continuous
370
25
48
1.0
60
0
100
AcDbCircle
39
0.0
10
-821.0
20
275.0
30
0.0
40
10.0000000000001
210
0.0
220
0.0
230
1.0
100
AcDbArc
50
0.0
51
90.0
0
LINE
5
75
330
1F
100
AcDbEntity
67
0
8
0
62
7
6
Continuous
370
25
48
1.0
60
0
100
AcDbLine
10
-821.0
20
285.0
30
0.0
11
-1184.0
21
285.0
31
0.0
39
0.0
210
0.0
220
0.0
230
1.0
0
LINE
5
76
330
1F
100
AcDbEntity
67
0
8
0
62
7
6
Continuous
370
25
48
1.0
60
0
100
AcDbLine
10
-1184.0
20
244.0
30
0.0
11
-1184.0
21
285.0
31
0.0
39
0.0
210
0.0
220
0.0
230
1.0
0
ARC
5
77
330
1F
100
AcDbEntity
67
0
8
0
62
7
6
Continuous
370
25
48
1.0
60
0
100
AcDbCircle
39
0.0
10
-1194.0
20
244.0
30
0.0
40
10.0000000000007
210
0.0
220
0.0
230
1.0
100
AcDbArc
50
270.0
51
0.0
0
LINE
5
78
330
1F
100
AcDbEntity
67
0
8
0
62
7
6
Continuous
370
25
48
1.0
60
0
100
AcDbLine
10
-1235.0
20
234.0
30
0.0
11
-1194.0
21
234.0
31
0.0
39
0.0
210
0.0
220
0.0
230
1.0
0
LINE
5
79
330
1F
100
AcDbEntity
67
0
8
0
62
7
6
Continuous
370
25
48
1.0
60
0
100
AcDbLine
10
-1235.0
20
234.0
30
0.0
11
-1235.0
21
-150.0
31
0.0
39
0.0
210
0.0
220
0.0
230
1.0
0
LINE
5
7A
330
1F
100
AcDbEntity
67
0
8
0
62
7
6
Continuous
370
25
48
1.0
60
0
100
AcDbLine
10
-1090.0
20
-150.0
30
0.0
11
-1235.0
21
-150.0
31
0.0
39
0.0
210
0.0
220
0.0
230
1.0
0
ARC
5
7B
330
1F
100
AcDbEntity
67
0
8
0
62
7
6
Continuous
370
25
48
1.0
60
0
100
AcDbCircle
39
0.0
10
-1090.0
20
-160.0
30
0.0
40
10.0
210
0.0
220
0.0
230
1.0
100
AcDbArc
50
0.0
51
90.0
0
LINE
5
7C
330
1F
100
AcDbEntity
67
0
8
0
62
7
6
Continuous
370
25
48
1.0
60
0
100
AcDbLine
10
-1080.0
20
-200.0
30
0.0
11
-1080.0
21
-160.0
31
0.0
39
0.0
210
0.0
220
0.0
230
1.0
0
LINE
5
7D
330
1F
100
AcDbEntity
67
0
8
0
62
7
6
Continuous
370
25
48
1.0
60
0
100
AcDbLine
10
-1084.0
20
-200.0
30
0.0
11
-1080.0
21
-200.0
31
0.0
39
0.0
210
0.0
220
0.0
230
1.0
0
LINE
5
7E
330
1F
100
AcDbEntity
67
0
8
0
62
7
6
Continuous
370
25
48
1.0
60
0
100
AcDbLine
10
-1084.0
20
-235.0
30
0.0
11
-1084.0
21
-200.0
31
0.0
39
0.0
210
0.0
220
0.0
230
1.0
0
LINE
5
7F
330
1F
100
AcDbEntity
67
0
8
0
62
7
6
Continuous
370
25
48
1.0
60
0
100
AcDbLine
10
-1043.0
20
-235.0
30
0.0
11
-1084.0
21
-235.0
31
0.0
39
0.0
210
0.0
220
0.0
230
1.0
0
ARC
5
80
330
1F
100
AcDbEntity
67
0
8
0
62
7
6
Continuous
370
25
48
1.0
60
0
100
AcDbCircle
39
0.0
10
-1043.0
20
-245.0
30
0.0
40
10.0
210
0.0
220
0.0
230
1.0
100
AcDbArc
50
0.0
51
90.0
0
LINE
5
81
330
1F
100
AcDbEntity
67
0
8
0
62
7
6
Continuous
370
25
48
1.0
60
0
100
AcDbLine
10
-1033.0
20
-285.0
30
0.0
11
-1033.0
21
-245.0
31
0.0
39
0.0
210
0.0
220
0.0
230
1.0
0
LINE
5
82
330
1F
100
AcDbEntity
67
0
8
0
62
7
6
Continuous
370
25
48
1.0
60
0
100
AcDbLine
10
-1033.0
20
-285.0
30
0.0
11
1033.0
21
-285.0
31
0.0
39
0.0
210
0.0
220
0.0
230
1.0
0
LINE
5
83
330
1F
100
AcDbEntity
67
0
8
0
62
7
6
Continuous
370
25
48
1.0
60
0
100
AcDbLine
10
1033.0
20
-245.0
30
0.0
11
1033.0
21
-285.0
31
0.0
39
0.0
210
0.0
220
0.0
230
1.0
0
ARC
5
84
330
1F
100
AcDbEntity
67
0
8
0
62
7
6
Continuous
370
25
48
1.0
60
0
100
AcDbCircle
39
0.0
10
1043.0
20
-245.0
30
0.0
40
10.0
210
0.0
220
0.0
230
1.0
100
AcDbArc
50
90.0
51
180.0
0
LINE
5
85
330
1F
100
AcDbEntity
67
0
8
0
62
7
6
Continuous
370
25
48
1.0
60
0
100
AcDbLine
10
1084.0
20
-235.0
30
0.0
11
1043.0
21
-235.0
31
0.0
39
0.0
210
0.0
220
0.0
230
1.0
0
LINE
5
86
330
1F
100
AcDbEntity
67
0
8
0
62
7
6
Continuous
370
25
48
1.0
60
0
100
AcDbLine
10
1084.0
20
-200.0
30
0.0
11
1084.0
21
-235.0
31
0.0
39
0.0
210
0.0
220
0.0
230
1.0
0
LINE
5
87
330
1F
100
AcDbEntity
67
0
8
0
62
7
6
Continuous
370
25
48
1.0
60
0
100
AcDbLine
10
1080.0
20
-200.0
30
0.0
11
1084.0
21
-200.0
31
0.0
39
0.0
210
0.0
220
0.0
230
1.0
0
LINE
5
88
330
1F
100
AcDbEntity
67
0
8
0
62
7
6
Continuous
370
25
48
1.0
60
0
100
AcDbLine
10
1080.0
20
-160.0
30
0.0
11
1080.0
21
-200.0
31
0.0
39
0.0
210
0.0
220
0.0
230
1.0
0
ARC
5
89
330
1F
100
AcDbEntity
67
0
8
0
62
7
6
Continuous
370
25
48
1.0
60
0
100
AcDbCircle
39
0.0
10
1090.0
20
-160.0
30
0.0
40
10.0
210
0.0
220
0.0
230
1.0
100
AcDbArc
50
90.0
51
180.0
0
LINE
5
8A
330
1F
100
AcDbEntity
67
0
8
0
62
7
6
Continuous
370
25
48
1.0
60
0
100
AcDbLine
10
1235.0
20
-150.0
30
0.0
11
1090.0
21
-150.0
31
0.0
39
0.0
210
0.0
220
0.0
230
1.0
0
LINE
5
8B
330
1F
100
AcDbEntity
67
0
8
0
62
7
6
Continuous
370
25
48
1.0
60
0
100
AcDbLine
10
1235.0
20
-150.0
30
0.0
11
1235.0
21
234.0
31
0.0
39
0.0
210
0.0
220
0.0
230
1.0
0
LINE
5
8C
330
1F
100
AcDbEntity
67
0
8
0
62
7
6
Continuous
370
25
48
1.0
60
0
100
AcDbLine
10
1194.0
20
234.0
30
0.0
11
1235.0
21
234.0
31
0.0
39
0.0
210
0.0
220
0.0
230
1.0
0
ARC
5
8D
330
1F
100
AcDbEntity
67
0
8
0
62
7
6
Continuous
370
25
48
1.0
60
0
100
AcDbCircle
39
0.0
10
1194.0
20
244.0
30
0.0
40
10.0
210
0.0
220
0.0
230
1.0
100
AcDbArc
50
180.0
51
270.0
0
LINE
5
8E
330
1F
100
AcDbEntity
67
0
8
0
62
7
6
Continuous
370
25
48
1.0
60
0
100
AcDbLine
10
1184.0
20
285.0
30
0.0
11
1184.0
21
244.0
31
0.0
39
0.0
210
0.0
220
0.0
230
1.0
0
LINE
5
8F
330
1F
100
AcDbEntity
67
0
8
0
62
7
6
Continuous
370
25
48
1.0
60
0
100
AcDbLine
10
1184.0
20
285.0
30
0.0
11
821.0
21
285.0
31
0.0
39
0.0
210
0.0
220
0.0
230
1.0
0
ARC
5
90
330
1F
100
AcDbEntity
67
0
8
0
62
7
6
Continuous
370
25
48
1.0
60
0
100
AcDbCircle
39
0.0
10
821.0
20
275.0
30
0.0
40
10.0000000000001
210
0.0
220
0.0
230
1.0
100
AcDbArc
50
90.0
51
180.0
0
LINE
5
91
330
1F
100
AcDbEntity
67
0
8
0
62
7
6
Continuous
370
25
48
1.0
60
0
100
AcDbLine
10
811.0
20
275.0
30
0.0
11
811.0
21
244.0
31
0.0
39
0.0
210
0.0
220
0.0
230
1.0
0
ARC
5
92
330
1F
100
AcDbEntity
67
0
8
0
62
7
6
Continuous
370
25
48
1.0
60
0
100
AcDbCircle
39
0.0
10
801.0
20
244.0
30
0.0
40
10.0000000000001
210
0.0
220
0.0
230
1.0
100
AcDbArc
50
270.0
51
0.0
0
LINE
5
93
330
1F
100
AcDbEntity
67
0
8
0
62
7
6
Continuous
370
25
48
1.0
60
0
100
AcDbLine
10
801.0
20
234.0
30
0.0
11
769.0
21
234.0
31
0.0
39
0.0
210
0.0
220
0.0
230
1.0
0
ARC
5
94
330
1F
100
AcDbEntity
67
0
8
0
62
7
6
Continuous
370
25
48
1.0
60
0
100
AcDbCircle
39
0.0
10
769.0
20
244.0
30
0.0
40
10.0
210
0.0
220
0.0
230
1.0
100
AcDbArc
50
180.0
51
270.0
0
LINE
5
95
330
1F
100
AcDbEntity
67
0
8
0
62
7
6
Continuous
370
25
48
1.0
60
0
100
AcDbLine
10
759.0
20
244.0
30
0.0
11
759.0
21
275.0
31
0.0
39
0.0
210
0.0
220
0.0
230
1.0
0
ARC
5
96
330
1F
100
AcDbEntity
67
0
8
0
62
7
6
Continuous
370
25
48
1.0
60
0
100
AcDbCircle
39
0.0
10
749.0
20
275.0
30
0.0
40
10.0000000000001
210
0.0
220
0.0
230
1.0
100
AcDbArc
50
0.0
51
90.0
0
LINE
5
97
330
1F
100
AcDbEntity
67
0
8
0
62
7
6
Continuous
370
25
48
1.0
60
0
100
AcDbLine
10
749.0
20
285.0
30
0.0
11
661.0
21
285.0
31
0.0
39
0.0
210
0.0
220
0.0
230
1.0
0
ARC
5
98
330
1F
100
AcDbEntity
67
0
8
0
62
7
6
Continuous
370
25
48
1.0
60
0
100
AcDbCircle
39
0.0
10
661.0
20
275.0
30
0.0
40
10.0000000000001
210
0.0
220
0.0
230
1.0
100
AcDbArc
50
90.0
51
180.0
0
LINE
5
99
330
1F
100
AcDbEntity
67
0
8
0
62
7
6
Continuous
370
25
48
1.0
60
0
100
AcDbLine
10
651.0
20
275.0
30
0.0
11
651.0
21
244.0
31
0.0
39
0.0
210
0.0
220
0.0
230
1.0
0
ARC
5
9A
330
1F
100
AcDbEntity
67
0
8
0
62
7
6
Continuous
370
25
48
1.0
60
0
100
AcDbCircle
39
0.0
10
641.0
20
244.0
30
0.0
40
10.0
210
0.0
220
0.0
230
1.0
100
AcDbArc
50
270.0
51
0.0
0
LINE
5
9B
330
1F
100
AcDbEntity
67
0
8
0
62
7
6
Continuous
370
25
48
1.0
60
0
100
AcDbLine
10
641.0
20
234.0
30
0.0
11
609.0
21
234.0
31
0.0
39
0.0
210
0.0
220
0.0
230
1.0
0
ARC
5
9C
330
1F
100
AcDbEntity
67
0
8
0
62
7
6
Continuous
370
25
48
1.0
60
0
100
AcDbCircle
39
0.0
10
609.0
20
244.0
30
0.0
40
10.0
210
0.0
220
0.0
230
1.0
100
AcDbArc
50
180.0
51
270.0
0
LINE
5
9D
330
1F
100
AcDbEntity
67
0
8
0
62
7
6
Continuous
370
25
48
1.0
60
0
100
AcDbLine
10
599.0
20
244.0
30
0.0
11
599.0
21
275.0
31
0.0
39
0.0
210
0.0
220
0.0
230
1.0
0
ARC
5
9E
330
1F
100
AcDbEntity
67
0
8
0
62
7
6
Continuous
370
25
48
1.0
60
0
100
AcDbCircle
39
0.0
10
589.0
20
275.0
30
0.0
40
10.0000000000001
210
0.0
220
0.0
230
1.0
100
AcDbArc
50
0.0
51
90.0
0
LINE
5
9F
330
1F
100
AcDbEntity
67
0
8
0
62
7
6
Continuous
370
25
48
1.0
60
0
100
AcDbLine
10
589.0
20
285.0
30
0.0
11
-589.0
21
285.0
31
0.0
39
0.0
210
0.0
220
0.0
230
1.0
0
ARC
5
A0
330
1F
100
AcDbEntity
67
0
8
0
62
7
6
Continuous
370
25
48
1.0
60
0
100
AcDbCircle
39
0.0
10
-589.0
20
275.0
30
0.0
40
10.0000000000002
210
0.0
220
0.0
230
1.0
100
AcDbArc
50
90.0
51
180.0
0
LINE
5
A1
330
1F
100
AcDbEntity
67
0
8
0
62
7
6
Continuous
370
25
48
1.0
60
0
100
AcDbLine
10
-599.0
20
275.0
30
0.0
11
-599.0
21
244.0
31
0.0
39
0.0
210
0.0
220
0.0
230
1.0
0
ARC
5
A2
330
1F
100
AcDbEntity
67
0
8
0
62
7
6
Continuous
370
25
48
1.0
60
0
100
AcDbCircle
39
0.0
10
-609.0
20
244.0
30
0.0
40
10.0
210
0.0
220
0.0
230
1.0
100
AcDbArc
50
270.0
51
0.0
0
LINE
5
A3
330
1F
100
AcDbEntity
67
0
8
0
62
7
6
Continuous
370
25
48
1.0
60
0
100
AcDbLine
10
-609.0
20
234.0
30
0.0
11
-641.0
21
234.0
31
0.0
39
0.0
210
0.0
220
0.0
230
1.0
0
ARC
5
A4
330
1F
100
AcDbEntity
67
0
8
0
62
7
6
Continuous
370
25
48
1.0
60
0
100
AcDbCircle
39
0.0
10
-641.0
20
244.0
30
0.0
40
10.0000000000002
210
0.0
220
0.0
230
1.0
100
AcDbArc
50
180.0
51
270.0
0
LINE
5
A5
330
1F
100
AcDbEntity
67
0
8
0
62
7
6
Continuous
370
25
48
1.0
60
0
100
AcDbLine
10
-651.0
20
244.0
30
0.0
11
-651.0
21
275.0
31
0.0
39
0.0
210
0.0
220
0.0
230
1.0
0
ARC
5
A6
330
1F
100
AcDbEntity
67
0
8
0
62
7
6
Continuous
370
25
48
1.0
60
0
100
AcDbCircle
39
0.0
10
-661.0
20
275.0
30
0.0
40
10.0000000000001
210
0.0
220
0.0
230
1.0
100
AcDbArc
50
0.0
51
90.0
0
LINE
5
A7
330
1F
100
AcDbEntity
67
0
8
0
62
7
6
Continuous
370
25
48
1.0
60
0
100
AcDbLine
10
-661.0
20
285.0
30
0.0
11
-749.0
21
285.0
31
0.0
39
0.0
210
0.0
220
0.0
230
1.0
0
ARC
5
A8
330
1F
100
AcDbEntity
67
0
8
0
62
7
6
Continuous
370
25
48
1.0
60
0
100
AcDbCircle
39
0.0
10
-749.0
20
275.0
30
0.0
40
10.0000000000001
210
0.0
220
0.0
230
1.0
100
AcDbArc
50
90.0
51
180.0
0
LINE
5
A9
330
1F
100
AcDbEntity
67
0
8
0
62
7
6
Continuous
370
25
48
1.0
60
0
100
AcDbLine
10
-759.0
20
275.0
30
0.0
11
-759.0
21
244.0
31
0.0
39
0.0
210
0.0
220
0.0
230
1.0
0
ARC
5
AA
330
1F
100
AcDbEntity
67
0
8
0
62
7
6
Continuous
370
25
48
1.0
60
0
100
AcDbCircle
39
0.0
10
-769.0
20
244.0
30
0.0
40
10.0
210
0.0
220
0.0
230
1.0
100
AcDbArc
50
270.0
51
0.0
0
LINE
5
AB
330
1F
100
AcDbEntity
67
0
8
0
62
7
6
Continuous
370
25
48
1.0
60
0
100
AcDbLine
10
-769.0
20
234.0
30
0.0
11
-801.0
21
234.0
31
0.0
39
0.0
210
0.0
220
0.0
230
1.0
0
ARC
5
AC
330
1F
100
AcDbEntity
67
0
8
0
62
7
6
Continuous
370
25
48
1.0
60
0
100
AcDbCircle
39
0.0
10
-801.0
20
244.0
30
0.0
40
10.0
210
0.0
220
0.0
230
1.0
100
AcDbArc
50
180.0
51
270.0
0
LINE
5
AD
330
1F
100
AcDbEntity
67
0
8
0
62
7
6
Continuous
370
25
48
1.0
60
0
100
AcDbLine
10
-885.0000000002
20
-189.0
30
0.0
11
-885.0000000002
21
-159.0
31
0.0
39
0.0
210
0.0
220
0.0
230
1.0
0
ARC
5
AE
330
1F
100
AcDbEntity
67
0
8
0
62
7
6
Continuous
370
25
48
1.0
60
0
100
AcDbCircle
39
0.0
10
-875.0000000002
20
-159.0
30
0.0
40
10.0
210
0.0
220
0.0
230
1.0
100
AcDbArc
50
90.0
51
180.0
0
LINE
5
AF
330
1F
100
AcDbEntity
67
0
8
0
62
7
6
Continuous
370
25
48
1.0
60
0
100
AcDbLine
10
-875.0000000002
20
-149.0
30
0.0
11
-695.0000000002
21
-149.0
31
0.0
39
0.0
210
0.0
220
0.0
230
1.0
0
ARC
5
B0
330
1F
100
AcDbEntity
67
0
8
0
62
7
6
Continuous
370
25
48
1.0
60
0
100
AcDbCircle
39
0.0
10
-695.0000000002
20
-159.0
30
0.0
40
10.0
210
0.0
220
0.0
230
1.0
100
AcDbArc
50
0.0
51
90.0
0
LINE
5
B1
330
1F
100
AcDbEntity
67
0
8
0
62
7
6
Continuous
370
25
48
1.0
60
0
100
AcDbLine
10
-685.0000000002
20
-159.0
30
0.0
11
-685.0000000002
21
-189.0
31
0.0
39
0.0
210
0.0
220
0.0
230
1.0
0
ARC
5
B2
330
1F
100
AcDbEntity
67
0
8
0
62
7
6
Continuous
370
25
48
1.0
60
0
100
AcDbCircle
39
0.0
10
-695.0000000002
20
-189.0
30
0.0
40
10.0
210
0.0
220
0.0
230
1.0
100
AcDbArc
50
270.0
51
0.0
0
LINE
5
B3
330
1F
100
AcDbEntity
67
0
8
0
62
7
6
Continuous
370
25
48
1.0
60
0
100
AcDbLine
10
-695.0000000002
20
-199.0
30
0.0
11
-875.0000000002
21
-199.0
31
0.0
39
0.0
210
0.0
220
0.0
230
1.0
0
ARC
5
B4
330
1F
100
AcDbEntity
67
0
8
0
62
7
6
Continuous
370
25
48
1.0
60
0
100
AcDbCircle
39
0.0
10
-875.0000000002
20
-189.0
30
0.0
40
10.0
210
0.0
220
0.0
230
1.0
100
AcDbArc
50
180.0
51
270.0
0
LINE
5
B5
330
1F
100
AcDbEntity
67
0
8
0
62
7
6
Continuous
370
25
48
1.0
60
0
100
AcDbLine
10
695.0000000002
20
-149.0
30
0.0
11
875.0000000002
21
-149.0
31
0.0
39
0.0
210
0.0
220
0.0
230
1.0
0
ARC
5
B6
330
1F
100
AcDbEntity
67
0
8
0
62
7
6
Continuous
370
25
48
1.0
60
0
100
AcDbCircle
39
0.0
10
875.0000000002
20
-159.0
30
0.0
40
10.0
210
0.0
220
0.0
230
1.0
100
AcDbArc
50
0.0
51
90.0
0
LINE
5
B7
330
1F
100
AcDbEntity
67
0
8
0
62
7
6
Continuous
370
25
48
1.0
60
0
100
AcDbLine
10
885.0000000002
20
-159.0
30
0.0
11
885.0000000002
21
-189.0
31
0.0
39
0.0
210
0.0
220
0.0
230
1.0
0
ARC
5
B8
330
1F
100
AcDbEntity
67
0
8
0
62
7
6
Continuous
370
25
48
1.0
60
0
100
AcDbCircle
39
0.0
10
875.0000000002
20
-189.0
30
0.0
40
10.0
210
0.0
220
0.0
230
1.0
100
AcDbArc
50
270.0
51
0.0
0
LINE
5
B9
330
1F
100
AcDbEntity
67
0
8
0
62
7
6
Continuous
370
25
48
1.0
60
0
100
AcDbLine
10
875.0000000002
20
-199.0
30
0.0
11
695.0000000002
21
-199.0
31
0.0
39
0.0
210
0.0
220
0.0
230
1.0
0
ARC
5
BA
330
1F
100
AcDbEntity
67
0
8
0
62
7
6
Continuous
370
25
48
1.0
60
0
100
AcDbCircle
39
0.0
10
695.0000000002
20
-189.0
30
0.0
40
10.0
210
0.0
220
0.0
230
1.0
100
AcDbArc
50
180.0
51
270.0
0
LINE
5
BB
330
1F
100
AcDbEntity
67
0
8
0
62
7
6
Continuous
370
25
48
1.0
60
0
100
AcDbLine
10
685.0000000002
20
-189.0
30
0.0
11
685.0000000002
21
-159.0
31
0.0
39
0.0
210
0.0
220
0.0
230
1.0
0
ARC
5
BC
330
1F
100
AcDbEntity
67
0
8
0
62
7
6
Continuous
370
25
48
1.0
60
0
100
AcDbCircle
39
0.0
10
695.0000000002
20
-159.0
30
0.0
40
10.0
210
0.0
220
0.0
230
1.0
100
AcDbArc
50
90.0
51
180.0
0
LINE
5
BD
330
1F
100
AcDbEntity
67
0
8
0
62
7
6
Continuous
370
25
48
1.0
60
0
100
AcDbLine
10
-90.0
20
-149.0
30
0.0
11
90.0
21
-149.0
31
0.0
39
0.0
210
0.0
220
0.0
230
1.0
0
ARC
5
BE
330
1F
100
AcDbEntity
67
0
8
0
62
7
6
Continuous
370
25
48
1.0
60
0
100
AcDbCircle
39
0.0
10
90.0
20
-159.0
30
0.0
40
10.0
210
0.0
220
0.0
230
1.0
100
AcDbArc
50
0.0
51
90.0
0
LINE
5
BF
330
1F
100
AcDbEntity
67
0
8
0
62
7
6
Continuous
370
25
48
1.0
60
0
100
AcDbLine
10
100.0
20
-159.0
30
0.0
11
100.0
21
-189.0
31
0.0
39
0.0
210
0.0
220
0.0
230
1.0
0
ARC
5
C0
330
1F
100
AcDbEntity
67
0
8
0
62
7
6
Continuous
370
25
48
1.0
60
0
100
AcDbCircle
39
0.0
10
90.0
20
-189.0
30
0.0
40
10.0
210
0.0
220
0.0
230
1.0
100
AcDbArc
50
270.0
51
0.0
0
LINE
5
C1
330
1F
100
AcDbEntity
67
0
8
0
62
7
6
Continuous
370
25
48
1.0
60
0
100
AcDbLine
10
90.0
20
-199.0
30
0.0
11
-90.0
21
-199.0
31
0.0
39
0.0
210
0.0
220
0.0
230
1.0
0
ARC
5
C2
330
1F
100
AcDbEntity
67
0
8
0
62
7
6
Continuous
370
25
48
1.0
60
0
100
AcDbCircle
39
0.0
10
-90.0
20
-189.0
30
0.0
40
10.0
210
0.0
220
0.0
230
1.0
100
AcDbArc
50
180.0
51
270.0
0
LINE
5
C3
330
1F
100
AcDbEntity
67
0
8
0
62
7
6
Continuous
370
25
48
1.0
60
0
100
AcDbLine
10
-100.0
20
-189.0
30
0.0
11
-100.0
21
-159.0
31
0.0
39
0.0
210
0.0
220
0.0
230
1.0
0
ARC
5
C4
330
1F
100
AcDbEntity
67
0
8
0
62
7
6
Continuous
370
25
48
1.0
60
0
100
AcDbCircle
39
0.0
10
-90.0
20
-159.0
30
0.0
40
10.0
210
0.0
220
0.0
230
1.0
100
AcDbArc
50
90.0
51
180.0
0
CIRCLE
5
D9
330
1F
100
AcDbEntity
67
0
8
0
62
7
6
Continuous
370
25
48
1.0
60
0
100
AcDbCircle
10
-1160.0
20
162.0
30
0.0
40
5.50000000000023
39
0.0
210
0.0
220
0.0
230
1.0
0
CIRCLE
5
DA
330
1F
100
AcDbEntity
67
0
8
0
62
7
6
Continuous
370
25
48
1.0
60
0
100
AcDbCircle
10
-1160.0
20
-83.0
30
0.0
40
5.50000000000023
39
0.0
210
0.0
220
0.0
230
1.0
0
CIRCLE
5
DB
330
1F
100
AcDbEntity
67
0
8
0
62
7
6
Continuous
370
25
48
1.0
60
0
100
AcDbCircle
10
1160.0
20
-83.0
30
0.0
40
5.5
39
0.0
210
0.0
220
0.0
230
1.0
0
CIRCLE
5
DC
330
1F
100
AcDbEntity
67
0
8
0
62
7
6
Continuous
370
25
48
1.0
60
0
100
AcDbCircle
10
1160.0
20
162.0
30
0.0
40
5.5
39
0.0
210
0.0
220
0.0
230
1.0
0
CIRCLE
5
DD
330
1F
100
AcDbEntity
67
0
8
0
62
7
6
Continuous
370
25
48
1.0
60
0
100
AcDbCircle
10
-555.0
20
-83.0
30
0.0
40
5.5
39
0.0
210
0.0
220
0.0
230
1.0
0
CIRCLE
5
DE
330
1F
100
AcDbEntity
67
0
8
0
62
7
6
Continuous
370
25
48
1.0
60
0
100
AcDbCircle
10
-555.0
20
162.0
30
0.0
40
5.49999999999989
39
0.0
210
0.0
220
0.0
230
1.0
0
CIRCLE
5
DF
330
1F
100
AcDbEntity
67
0
8
0
62
7
6
Continuous
370
25
48
1.0
60
0
100
AcDbCircle
10
555.0
20
162.0
30
0.0
40
5.49999999999989
39
0.0
210
0.0
220
0.0
230
1.0
0
CIRCLE
5
E0
330
1F
100
AcDbEntity
67
0
8
0
62
7
6
Continuous
370
25
48
1.0
60
0
100
AcDbCircle
10
555.0
20
-83.0
30
0.0
40
5.49999999999989
39
0.0
210
0.0
220
0.0
230
1.0
0
LINE
5
E1
330
1F
100
AcDbEntity
67
0
8
0
62
7
6
Continuous
370
25
48
1.0
60
0
100
AcDbLine
10
560.0
20
110.3578643763
30
0.0
11
560.0
21
-31.3578643763
31
0.0
39
0.0
210
0.0
220
0.0
230
1.0
0
ARC
5
E2
330
1F
100
AcDbEntity
67
0
8
0
62
7
6
Continuous
370
25
48
1.0
60
0
100
AcDbCircle
39
0.0
10
570.0
20
110.3578643763
30
0.0
40
10.0000000000001
210
0.0
220
0.0
230
1.0
100
AcDbArc
50
135.0
51
180.0
0
LINE
5
E3
330
1F
100
AcDbEntity
67
0
8
0
62
7
6
Continuous
370
25
48
1.0
60
0
100
AcDbLine
10
562.9289321881
20
117.4289321881
30
0.0
11
617.0710678119
21
171.5710678119
31
0.0
39
0.0
210
0.0
220
0.0
230
1.0
0
ARC
5
E4
330
1F
100
AcDbEntity
67
0
8
0
62
7
6
Continuous
370
25
48
1.0
60
0
100
AcDbCircle
39
0.0
10
624.1421356237
20
164.5
30
0.0
40
10.0
210
0.0
220
0.0
230
1.0
100
AcDbArc
50
90.0
51
135.0
0
LINE
5
E5
330
1F
100
AcDbEntity
67
0
8
0
62
7
6
Continuous
370
25
48
1.0
60
0
100
AcDbLine
10
1090.8578643763
20
174.5
30
0.0
11
624.1421356237
21
174.5
31
0.0
39
0.0
210
0.0
220
0.0
230
1.0
0
ARC
5
E6
330
1F
100
AcDbEntity
67
0
8
0
62
7
6
Continuous
370
25
48
1.0
60
0
100
AcDbCircle
39
0.0
10
1090.8578643763
20
164.5
30
0.0
40
10.0000000000001
210
0.0
220
0.0
230
1.0
100
AcDbArc
50
45.0
51
90.0
0
LINE
5
E7
330
1F
100
AcDbEntity
67
0
8
0
62
7
6
Continuous
370
25
48
1.0
60
0
100
AcDbLine
10
1097.9289321881
20
171.5710678119
30
0.0
11
1152.0710678119
21
117.4289321881
31
0.0
39
0.0
210
0.0
220
0.0
230
1.0
0
ARC
5
E8
330
1F
100
AcDbEntity
67
0
8
0
62
7
6
Continuous
370
25
48
1.0
60
0
100
AcDbCircle
39
0.0
10
1145.0
20
110.3578643763
30
0.0
40
10.0
210
0.0
220
0.0
230
1.0
100
AcDbArc
50
0.0
51
45.0
0
LINE
5
E9
330
1F
100
AcDbEntity
67
0
8
0
62
7
6
Continuous
370
25
48
1.0
60
0
100
AcDbLine
10
1155.0
20
-31.3578643763
30
0.0
11
1155.0
21
110.3578643763
31
0.0
39
0.0
210
0.0
220
0.0
230
1.0
0
ARC
5
EA
330
1F
100
AcDbEntity
67
0
8
0
62
7
6
Continuous
370
25
48
1.0
60
0
100
AcDbCircle
39
0.0
10
1145.0
20
-31.3578643763
30
0.0
40
10.0
210
0.0
220
0.0
230
1.0
100
AcDbArc
50
315.0
51
0.0
0
LINE
5
EB
330
1F
100
AcDbEntity
67
0
8
0
62
7
6
Continuous
370
25
48
1.0
60
0
100
AcDbLine
10
1152.0710678119
20
-38.4289321881
30
0.0
11
1097.9289321881
21
-92.5710678119
31
0.0
39
0.0
210
0.0
220
0.0
230
1.0
0
ARC
5
EC
330
1F
100
AcDbEntity
67
0
8
0
62
7
6
Continuous
370
25
48
1.0
60
0
100
AcDbCircle
39
0.0
10
1090.8578643763
20
-85.5
30
0.0
40
10.0
210
0.0
220
0.0
230
1.0
100
AcDbArc
50
270.0
51
315.0
0
LINE
5
ED
330
1F
100
AcDbEntity
67
0
8
0
62
7
6
Continuous
370
25
48
1.0
60
0
100
AcDbLine
10
624.1421356237
20
-95.5
30
0.0
11
1090.8578643763
21
-95.5
31
0.0
39
0.0
210
0.0
220
0.0
230
1.0
0
ARC
5
EE
330
1F
100
AcDbEntity
67
0
8
0
62
7
6
Continuous
370
25
48
1.0
60
0
100
AcDbCircle
39
0.0
10
624.1421356237
20
-85.5
30
0.0
40
10.0
210
0.0
220
0.0
230
1.0
100
AcDbArc
50
225.0
51
270.0
0
LINE
5
EF
330
1F
100
AcDbEntity
67
0
8
0
62
7
6
Continuous
370
25
48
1.0
60
0
100
AcDbLine
10
617.0710678119
20
-92.5710678119
30
0.0
11
562.9289321881
21
-38.4289321881
31
0.0
39
0.0
210
0.0
220
0.0
230
1.0
0
ARC
5
F0
330
1F
100
AcDbEntity
67
0
8
0
62
7
6
Continuous
370
25
48
1.0
60
0
100
AcDbCircle
39
0.0
10
570.0
20
-31.3578643763
30
0.0
40
10.0000000000001
210
0.0
220
0.0
230
1.0
100
AcDbArc
50
180.0
51
225.0
0
LINE
5
F1
330
1F
100
AcDbEntity
67
0
8
0
62
7
6
Continuous
370
25
48
1.0
60
0
100
AcDbLine
10
-624.1421356237
20
174.5
30
0.0
11
-1090.8578643763
21
174.5
31
0.0
39
0.0
210
0.0
220
0.0
230
1.0
0
ARC
5
F2
330
1F
100
AcDbEntity
67
0
8
0
62
7
6
Continuous
370
25
48
1.0
60
0
100
AcDbCircle
39
0.0
10
-624.1421356237
20
164.5
30
0.0
40
10.0
210
0.0
220
0.0
230
1.0
100
AcDbArc
50
45.0
51
90.0
0
LINE
5
F3
330
1F
100
AcDbEntity
67
0
8
0
62
7
6
Continuous
370
25
48
1.0
60
0
100
AcDbLine
10
-617.0710678119
20
171.5710678119
30
0.0
11
-562.9289321881
21
117.4289321881
31
0.0
39
0.0
210
0.0
220
0.0
230
1.0
0
ARC
5
F4
330
1F
100
AcDbEntity
67
0
8
0
62
7
6
Continuous
370
25
48
1.0
60
0
100
AcDbCircle
39
0.0
10
-570.0
20
110.3578643763
30
0.0
40
10.0000000000001
210
0.0
220
0.0
230
1.0
100
AcDbArc
50
0.0
51
45.0
0
LINE
5
F5
330
1F
100
AcDbEntity
67
0
8
0
62
7
6
Continuous
370
25
48
1.0
60
0
100
AcDbLine
10
-560.0
20
110.3578643763
30
0.0
11
-560.0
21
-31.3578643763
31
0.0
39
0.0
210
0.0
220
0.0
230
1.0
0
ARC
5
F6
330
1F
100
AcDbEntity
67
0
8
0
62
7
6
Continuous
370
25
48
1.0
60
0
100
AcDbCircle
39
0.0
10
-570.0
20
-31.3578643763
30
0.0
40
10.0000000000001
210
0.0
220
0.0
230
1.0
100
AcDbArc
50
315.0
51
0.0
0
LINE
5
F7
330
1F
100
AcDbEntity
67
0
8
0
62
7
6
Continuous
370
25
48
1.0
60
0
100
AcDbLine
10
-562.9289321881
20
-38.4289321881
30
0.0
11
-617.0710678119
21
-92.5710678119
31
0.0
39
0.0
210
0.0
220
0.0
230
1.0
0
ARC
5
F8
330
1F
100
AcDbEntity
67
0
8
0
62
7
6
Continuous
370
25
48
1.0
60
0
100
AcDbCircle
39
0.0
10
-624.1421356237
20
-85.5
30
0.0
40
10.0
210
0.0
220
0.0
230
1.0
100
AcDbArc
50
270.0
51
315.0
0
LINE
5
F9
330
1F
100
AcDbEntity
67
0
8
0
62
7
6
Continuous
370
25
48
1.0
60
0
100
AcDbLine
10
-1090.8578643763
20
-95.5
30
0.0
11
-624.1421356237
21
-95.5
31
0.0
39
0.0
210
0.0
220
0.0
230
1.0
0
ARC
5
FA
330
1F
100
AcDbEntity
67
0
8
0
62
7
6
Continuous
370
25
48
1.0
60
0
100
AcDbCircle
39
0.0
10
-1090.8578643763
20
-85.5
30
0.0
40
9.99999999999994
210
0.0
220
0.0
230
1.0
100
AcDbArc
50
225.0
51
270.0
0
LINE
5
FB
330
1F
100
AcDbEntity
67
0
8
0
62
7
6
Continuous
370
25
48
1.0
60
0
100
AcDbLine
10
-1097.9289321881
20
-92.5710678119
30
0.0
11
-1152.0710678119
21
-38.4289321881
31
0.0
39
0.0
210
0.0
220
0.0
230
1.0
0
ARC
5
FC
330
1F
100
AcDbEntity
67
0
8
0
62
7
6
Continuous
370
25
48
1.0
60
0
100
AcDbCircle
39
0.0
10
-1145.0
20
-31.3578643763
30
0.0
40
9.9999999999999
210
0.0
220
0.0
230
1.0
100
AcDbArc
50
180.0
51
225.0
0
LINE
5
FD
330
1F
100
AcDbEntity
67
0
8
0
62
7
6
Continuous
370
25
48
1.0
60
0
100
AcDbLine
10
-1155.0
20
110.3578643763
30
0.0
11
-1155.0
21
-31.3578643763
31
0.0
39
0.0
210
0.0
220
0.0
230
1.0
0
ARC
5
FE
330
1F
100
AcDbEntity
67
0
8
0
62
7
6
Continuous
370
25
48
1.0
60
0
100
AcDbCircle
39
0.0
10
-1145.0
20
110.3578643763
30
0.0
40
9.99999999999987
210
0.0
220
0.0
230
1.0
100
AcDbArc
50
135.0
51
180.0
0
LINE
5
FF
330
1F
100
AcDbEntity
67
0
8
0
62
7
6
Continuous
370
25
48
1.0
60
0
100
AcDbLine
10
-1152.0710678119
20
117.4289321881
30
0.0
11
-1097.9289321881
21
171.5710678119
31
0.0
39
0.0
210
0.0
220
0.0
230
1.0
0
ARC
5
100
330
1F
100
AcDbEntity
67
0
8
0
62
7
6
Continuous
370
25
48
1.0
60
0
100
AcDbCircle
39
0.0
10
-1090.8578643763
20
164.5
30
0.0
40
10.0
210
0.0
220
0.0
230
1.0
100
AcDbArc
50
90.0
51
135.0
0
INSERT
5
151
330
1F
100
AcDbEntity
67
0
8
0
62
256
6
CENTER2
370
-1
48
1.0
60
0
100
AcDbBlockReference
2
*U1
10
-955.0000000002
20
-220.0
30
0.0
41
1.0
42
1.0
43
1.0
50
0.0
210
0.0
220
0.0
230
1.0
0
INSERT
5
161
330
1F
100
AcDbEntity
67
0
8
0
62
256
6
CENTER2
370
-1
48
1.0
60
0
100
AcDbBlockReference
2
*U2
10
-915.0000000002
20
-220.0
30
0.0
41
1.0
42
1.0
43
1.0
50
0.0
210
0.0
220
0.0
230
1.0
0
INSERT
5
170
330
1F
100
AcDbEntity
67
0
8
0
62
256
6
CENTER2
370
-1
48
1.0
60
0
100
AcDbBlockReference
2
*U3
10
-915.0000000002
20
-260.0
30
0.0
41
1.0
42
1.0
43
1.0
50
0.0
210
0.0
220
0.0
230
1.0
0
INSERT
5
17F
330
1F
100
AcDbEntity
67
0
8
0
62
256
6
CENTER2
370
-1
48
1.0
60
0
100
AcDbBlockReference
2
*U4
10
-955.0000000002
20
-260.0
30
0.0
41
1.0
42
1.0
43
1.0
50
0.0
210
0.0
220
0.0
230
1.0
0
INSERT
5
18E
330
1F
100
AcDbEntity
67
0
8
0
62
256
6
CENTER2
370
-1
48
1.0
60
0
100
AcDbBlockReference
2
*U5
10
-655.0000000002
20
-220.0
30
0.0
41
1.0
42
1.0
43
1.0
50
0.0
210
0.0
220
0.0
230
1.0
0
INSERT
5
19D
330
1F
100
AcDbEntity
67
0
8
0
62
256
6
CENTER2
370
-1
48
1.0
60
0
100
AcDbBlockReference
2
*U6
10
-655.0000000002
20
-260.0
30
0.0
41
1.0
42
1.0
43
1.0
50
0.0
210
0.0
220
0.0
230
1.0
0
INSERT
5
1AC
330
1F
100
AcDbEntity
67
0
8
0
62
256
6
CENTER2
370
-1
48
1.0
60
0
100
AcDbBlockReference
2
*U7
10
-615.0000000002
20
-260.0
30
0.0
41
1.0
42
1.0
43
1.0
50
0.0
210
0.0
220
0.0
230
1.0
0
INSERT
5
1BB
330
1F
100
AcDbEntity
67
0
8
0
62
256
6
CENTER2
370
-1
48
1.0
60
0
100
AcDbBlockReference
2
*U8
10
-615.0000000002
20
-220.0
30
0.0
41
1.0
42
1.0
43
1.0
50
0.0
210
0.0
220
0.0
230
1.0
0
INSERT
5
1CA
330
1F
100
AcDbEntity
67
0
8
0
62
256
6
CENTER2
370
-1
48
1.0
60
0
100
AcDbBlockReference
2
*U9
10
-20.0
20
-220.0
30
0.0
41
1.0
42
1.0
43
1.0
50
0.0
210
0.0
220
0.0
230
1.0
0
INSERT
5
1D9
330
1F
100
AcDbEntity
67
0
8
0
62
256
6
CENTER2
370
-1
48
1.0
60
0
100
AcDbBlockReference
2
*U10
10
-20.0
20
-260.0
30
0.0
41
1.0
42
1.0
43
1.0
50
0.0
210
0.0
220
0.0
230
1.0
0
INSERT
5
1E8
330
1F
100
AcDbEntity
67
0
8
0
62
256
6
CENTER2
370
-1
48
1.0
60
0
100
AcDbBlockReference
2
*U11
10
20.0
20
-220.0
30
0.0
41
1.0
42
1.0
43
1.0
50
0.0
210
0.0
220
0.0
230
1.0
0
INSERT
5
1F7
330
1F
100
AcDbEntity
67
0
8
0
62
256
6
CENTER2
370
-1
48
1.0
60
0
100
AcDbBlockReference
2
*U12
10
20.0
20
-260.0
30
0.0
41
1.0
42
1.0
43
1.0
50
0.0
210
0.0
220
0.0
230
1.0
0
INSERT
5
206
330
1F
100
AcDbEntity
67
0
8
0
62
256
6
CENTER2
370
-1
48
1.0
60
0
100
AcDbBlockReference
2
*U13
10
615.0000000002
20
-220.0
30
0.0
41
1.0
42
1.0
43
1.0
50
0.0
210
0.0
220
0.0
230
1.0
0
INSERT
5
215
330
1F
100
AcDbEntity
67
0
8
0
62
256
6
CENTER2
370
-1
48
1.0
60
0
100
AcDbBlockReference
2
*U14
10
615.0000000002
20
-260.0
30
0.0
41
1.0
42
1.0
43
1.0
50
0.0
210
0.0
220
0.0
230
1.0
0
INSERT
5
224
330
1F
100
AcDbEntity
67
0
8
0
62
256
6
CENTER2
370
-1
48
1.0
60
0
100
AcDbBlockReference
2
*U15
10
655.0000000002
20
-260.0
30
0.0
41
1.0
42
1.0
43
1.0
50
0.0
210
0.0
220
0.0
230
1.0
0
INSERT
5
233
330
1F
100
AcDbEntity
67
0
8
0
62
256
6
CENTER2
370
-1
48
1.0
60
0
100
AcDbBlockReference
2
*U16
10
655.0000000002
20
-220.0
30
0.0
41
1.0
42
1.0
43
1.0
50
0.0
210
0.0
220
0.0
230
1.0
0
INSERT
5
242
330
1F
100
AcDbEntity
67
0
8
0
62
256
6
CENTER2
370
-1
48
1.0
60
0
100
AcDbBlockReference
2
*U17
10
915.0000000002
20
-220.0
30
0.0
41
1.0
42
1.0
43
1.0
50
0.0
210
0.0
220
0.0
230
1.0
0
INSERT
5
251
330
1F
100
AcDbEntity
67
0
8
0
62
256
6
CENTER2
370
-1
48
1.0
60
0
100
AcDbBlockReference
2
*U18
10
915.0000000002
20
-260.0
30
0.0
41
1.0
42
1.0
43
1.0
50
0.0
210
0.0
220
0.0
230
1.0
0
INSERT
5
260
330
1F
100
AcDbEntity
67
0
8
0
62
256
6
CENTER2
370
-1
48
1.0
60
0
100
AcDbBlockReference
2
*U19
10
955.0000000002
20
-260.0
30
0.0
41
1.0
42
1.0
43
1.0
50
0.0
210
0.0
220
0.0
230
1.0
0
INSERT
5
26F
330
1F
100
AcDbEntity
67
0
8
0
62
256
6
CENTER2
370
-1
48
1.0
60
0
100
AcDbBlockReference
2
*U20
10
955.0000000002
20
-220.0
30
0.0
41
1.0
42
1.0
43
1.0
50
0.0
210
0.0
220
0.0
230
1.0
0
LINE
5
29F
330
1F
100
AcDbEntity
67
0
8
0
62
5
6
ByLayer
370
-1
48
1.0
60
0
100
AcDbLine
10
-560.0
20
-83.0
30
0.0
11
-550.0
21
-83.0
31
0.0
39
0.0
210
0.0
220
0.0
230
1.0
0
LINE
5
2A0
330
1F
100
AcDbEntity
67
0
8
0
62
5
6
ByLayer
370
-1
48
1.0
60
0
100
AcDbLine
10
-555.0
20
-88.0
30
0.0
11
-555.0
21
-78.0
31
0.0
39
0.0
210
0.0
220
0.0
230
1.0
0
ENDSEC
0
SECTION
2
OBJECTS
0
DICTIONARY
5
2B9
330
0
100
AcDbDictionary
280
1
281
1
3
ACAD_GROUP
350
D
3
ACAD_LAYOUT
350
1A
3
ACAD_DGNDEFINITIONS
350
298
3
ACAD_DWFDEFINITIONS
350
299
3
ACAD_PDFDEFINITIONS
350
29A
3
ACAD_MLINESTYLE
350
17
3
ACAD_IMAGE_DICT
350
297
3
ACAD_IMAGE_VARS
350
29B
0
DICTIONARY
5
D
330
2B9
100
AcDbDictionary
280
1
281
1
0
DICTIONARY
5
1A
330
2B9
100
AcDbDictionary
280
1
281
1
3
Layout1
350
1E
3
Layout2
350
26
3
Model
350
22
0
DICTIONARY
5
298
330
2B9
100
AcDbDictionary
280
1
281
1
0
DICTIONARY
5
299
330
2B9
100
AcDbDictionary
280
1
281
1
0
DICTIONARY
5
29A
330
2B9
100
AcDbDictionary
280
1
281
1
0
DICTIONARY
5
17
330
2B9
100
AcDbDictionary
280
1
281
1
3
STANDARD
350
18
0
DICTIONARY
5
297
330
2B9
100
AcDbDictionary
280
1
281
1
0
DICTIONARY
5
295
330
2
100
AcDbDictionary
280
1
281
1
3
ACAD_LAYERSTATES
360
2BA
0
DICTIONARY
5
2BA
330
295
100
AcDbDictionary
280
1
281
1
0
LAYOUT
5
1E
330
1A
100
AcDbPlotSettings
1

2
none_device
4

6

40
0.0
41
0.0
42
0.0
43
0.0
44
0.0
45
0.0
46
0.0
47
0.0
48
0.0
49
0.0
140
0.0
141
0.0
142
1.0
143
1.0
70
688
72
1
73
0
74
5
7

75
16
76
0
77
2
78
300
147
1.0
148
0.0
149
0.0
100
AcDbLayout
1
Layout1
71
1
10
0.0
20
0.0
11
420.0
21
297.0
12
0.0
22
0.0
32
0.0
14
100000000000000000000.0
24
100000000000000000000.0
34
100000000000000000000.0
15
-100000000000000000000.0
25
-100000000000000000000.0
35
-100000000000000000000.0
146
0.0
13
0.0
23
0.0
33
0.0
16
1.0
26
0.0
36
0.0
17
0.0
27
1.0
37
0.0
76
0
330
1B
0
LAYOUT
5
26
330
1A
100
AcDbPlotSettings
1

2
none_device
4

6

40
0.0
41
0.0
42
0.0
43
0.0
44
0.0
45
0.0
46
0.0
47
0.0
48
0.0
49
0.0
140
0.0
141
0.0
142
1.0
143
1.0
70
688
72
1
73
0
74
5
7

75
16
76
0
77
2
78
300
147
1.0
148
0.0
149
0.0
100
AcDbLayout
1
Layout2
71
2
10
0.0
20
0.0
11
0.0
21
0.0
12
0.0
22
0.0
32
0.0
14
0.0
24
0.0
34
0.0
15
0.0
25
0.0
35
0.0
146
0.0
13
0.0
23
0.0
33
0.0
16
1.0
26
0.0
36
0.0
17
0.0
27
1.0
37
0.0
76
0
330
23
0
LAYOUT
5
22
330
1A
100
AcDbPlotSettings
1

2
none_device
4
ANSI_A_(11.00_x_8.50_Inches)
6

40
6.35
41
19.05
42
6.35000508
43
19.05000254
44
279.4
45
215.9
46
133.34999746
47
88.89999873
48
0.0
49
0.0
140
0.0
141
0.0
142
0.0044089069
143
1.0
70
1696
72
0
73
0
74
0
7

75
0
76
0
77
2
78
300
147
0.0044089069
148
-1300.4909072572
149
0.0
100
AcDbLayout
1
Model
71
3
10
0.0
20
0.0
11
420.0
21
297.0
12
0.0
22
0.0
32
0.0
14
-1235.0
24
-285.0
34
0.0
15
1235.0
25
285.0
35
0.0
146
0.0
13
0.0
23
0.0
33
0.0
16
1.0
26
0.0
36
0.0
17
0.0
27
1.0
37
0.0
76
0
330
1F
0
MLINESTYLE
5
18
330
17
100
AcDbMlineStyle
2
STANDARD
70
0
3

62
256
51
90.0
52
90.0
71
2
49
0.5
62
256
6
ByLayer
49
-0.5
62
256
6
ByLayer
0
RASTERVARIABLES
5
29B
330
297
100
AcDbRasterVariables
90
0
70
1
71
1
72
0
0
ENDSEC
0
EOF
