0
SECTION
2
HEADER
9
$ACADVER
1
AC1015
9
$DWGCODEPAGE
3
ANSI_1254
9
$HANDSEED
5
34F
9
$ANGBASE
50
0.0
9
$ANGDIR
70
0
9
$ATTMODE
70
1
9
$AUNITS
70
0
9
$AUPREC
70
2
9
$CECOLOR
62
256
9
$CELTSCALE
40
1.0
9
$CELTYPE
6
ByLayer
9
$CELWEIGHT
370
-1
9
$CLAYER
8
0
9
$CMLJUST
70
0
9
$CMLSCALE
40
20.0
9
$CMLSTYLE
2
Standard
9
$DIMSTYLE
2
ISO-25
9
$TEXTSIZE
40
3.5
9
$TEXTSTYLE
7
STANDARD
9
$LUNITS
70
2
9
$LUPREC
70
2
9
$MIRRTEXT
70
1
9
$EXTNAMES
290
1
9
$INSBASE
10
0.0
20
0.0
30
0.0
9
$INSUNITS
70
4
9
$LTSCALE
40
1.0
9
$LWDISPLAY
290
1
9
$PDMODE
70
0
9
$PDSIZE
40
-1.0
9
$PLINEGEN
70
0
9
$PSLTSCALE
70
1
9
$SPLINESEGS
70
6
9
$SURFU
70
6
9
$SURFV
70
6
9
$TDCREATE
40
2461018.97791385
9
$TDUCREATE
40
2461018.85291385
9
$TDUPDATE
40
2461018.9779272
9
$TDUUPDATE
40
2461018.8529272
9
$TDINDWG
40
0.0000000115740741
9
$UCSORG
10
0.0
20
0.0
30
0.0
9
$UCSXDIR
10
1.0
20
0.0
30
0.0
9
$UCSYDIR
10
0.0
20
1.0
30
0.0
9
$DIMADEC
70
0
9
$DIMALT
70
0
9
$DIMALTD
70
3
9
$DIMALTF
40
0.0393700787
9
$DIMALTRND
40
0.0
9
$DIMALTTD
70
3
9
$DIMALTTZ
70
0
9
$DIMALTU
70
2
9
$DIMALTZ
70
0
9
$DIMAPOST
1

9
$DIMATFIT
70
3
9
$DIMAUNIT
70
0
9
$DIMASZ
40
2.5
9
$DIMAZIN
70
3
9
$DIMSAH
70
0
9
$DIMBLK
1

9
$DIMLDRBLK
1

9
$DIMCEN
40
2.5
9
$DIMCLRD
70
0
9
$DIMCLRE
70
0
9
$DIMCLRT
70
0
9
$DIMDEC
70
2
9
$DIMDLE
40
0.0
9
$DIMDLI
40
3.75
9
$DIMDSEP
70
44
9
$DIMEXE
40
1.25
9
$DIMEXO
40
0.625
9
$DIMFXLON
70
0
9
$DIMFXL
40
1.0
9
$DIMGAP
40
0.625
9
$DIMJUST
70
0
9
$DIMLFAC
40
1.0
9
$DIMLUNIT
70
2
9
$DIMLWD
70
-2
9
$DIMLWE
70
-2
9
$DIMPOST
1

9
$DIMRND
40
0.0
9
$DIMSCALE
40
1.0
9
$DIMSD1
70
0
9
$DIMSD2
70
0
9
$DIMSE1
70
0
9
$DIMSE2
70
0
9
$DIMSOXD
70
0
9
$DIMTAD
70
1
9
$DIMTDEC
70
2
9
$DIMTFAC
40
1.0
9
$DIMTIH
70
0
9
$DIMTIX
70
0
9
$DIMTM
40
0.0
9
$DIMTMOVE
70
0
9
$DIMTOFL
70
1
9
$DIMTOH
70
0
9
$DIMTOL
70
0
9
$DIMLIM
70
0
9
$DIMTOLJ
70
0
9
$DIMTP
40
0.0
9
$DIMTXT
40
2.5
9
$DIMTXTDIRECTION
70
0
9
$DIMTZIN
70
8
9
$DIMZIN
70
8
9
$DIMFRAC
70
0
9
$DIMLTYPE
6
ByBlock
9
$DIMLTEX1
6
ByBlock
9
$DIMLTEX2
6
ByBlock
9
$EXTMIN
10
-1220.0
20
-77.5
30
0.0
9
$EXTMAX
10
1220.0
20
77.5
30
0.0
9
$LIMMIN
10
0.0
20
0.0
9
$LIMMAX
10
420.0
20
297.0
9
$ORTHOMODE
70
0
9
$REGENMODE
70
1
9
$FILLMODE
70
1
9
$QTEXTMODE
70
0
9
$TRACEWID
40
1.0
9
$DISPSILH
70
0
9
$SKETCHINC
40
1.0
9
$FILLETRAD
40
10.0
9
$MENU
1
.
9
$ELEVATION
40
0.0
9
$PELEVATION
40
0.0
9
$THICKNESS
40
0.0
9
$LIMCHECK
70
0
9
$CHAMFERA
40
0.0
9
$CHAMFERB
40
0.0
9
$CHAMFERC
40
0.0
9
$CHAMFERD
40
0.0
9
$SKPOLY
70
0
9
$TDUSRTIMER
40
0.0000000116
9
$USRTIMER
70
1
9
$PLINEWID
40
0.0
9
$SPLFRAME
70
0
9
$SPLINETYPE
70
6
9
$SURFTAB1
70
6
9
$SURFTAB2
70
6
9
$SURFTYPE
70
6
9
$UCSBASE
2

9
$UCSNAME
2

9
$UCSORTHOREF
2

9
$UCSORTHOVIEW
70
0
9
$UCSORGTOP
10
0.0
20
0.0
30
0.0
9
$UCSORGBOTTOM
10
0.0
20
0.0
30
0.0
9
$UCSORGLEFT
10
0.0
20
0.0
30
0.0
9
$UCSORGRIGHT
10
0.0
20
0.0
30
0.0
9
$UCSORGFRONT
10
0.0
20
0.0
30
0.0
9
$UCSORGBACK
10
0.0
20
0.0
30
0.0
9
$PUCSBASE
2

9
$PUCSNAME
2

9
$PUCSORG
10
0.0
20
0.0
30
0.0
9
$PUCSXDIR
10
1.0
20
0.0
30
0.0
9
$PUCSYDIR
10
0.0
20
1.0
30
0.0
9
$PUCSORTHOREF
2

9
$PUCSORTHOVIEW
70
0
9
$PUCSORGTOP
10
0.0
20
0.0
30
0.0
9
$PUCSORGBOTTOM
10
0.0
20
0.0
30
0.0
9
$PUCSORGLEFT
10
0.0
20
0.0
30
0.0
9
$PUCSORGRIGHT
10
0.0
20
0.0
30
0.0
9
$PUCSORGFRONT
10
0.0
20
0.0
30
0.0
9
$PUCSORGBACK
10
0.0
20
0.0
30
0.0
9
$USERI1
70
0
9
$USERI2
70
0
9
$USERI3
70
0
9
$USERI4
70
0
9
$USERI5
70
0
9
$USERR1
40
0.0
9
$USERR2
40
0.0
9
$USERR3
40
0.0
9
$USERR4
40
0.0
9
$USERR5
40
0.0
9
$WORLDVIEW
70
1
9
$SHADEDGE
70
3
9
$SHADEDIF
70
70
9
$TILEMODE
70
1
9
$MAXACTVP
70
64
9
$PINSBASE
10
0.0
20
0.0
30
0.0
9
$PLIMCHECK
70
0
9
$PEXTMIN
10
100000000000000000000.0
20
100000000000000000000.0
30
100000000000000000000.0
9
$PEXTMAX
10
-100000000000000000000.0
20
-100000000000000000000.0
30
-100000000000000000000.0
9
$PLIMMIN
10
0.0
20
0.0
9
$PLIMMAX
10
420.0
20
297.0
9
$UNITMODE
70
0
9
$VISRETAIN
70
1
9
$TREEDEPTH
70
3020
9
$PROXYGRAPHICS
70
1
9
$MEASUREMENT
70
1
9
$ENDCAPS
280
0
9
$JOINSTYLE
280
0
9
$HYPERLINKBASE
1

9
$STYLESHEET
1

9
$XEDIT
290
1
9
$CEPSNTYPE
380
0
9
$PSTYLEMODE
290
1
9
$FINGERPRINTGUID
2
{a66f66d7-5974-4696-8adc-efc9a45d2988}
9
$VERSIONGUID
2
{FAEB1C32-E019-11D5-929B-00C0DF256EC4}
9
$PSVPSCALE
40
0.0
9
$OLESTARTUP
290
0
0
ENDSEC
0
SECTION
2
CLASSES
0
CLASS
1
RASTERVARIABLES
2
AcDbRasterVariables
3
ISM
90
0
280
0
281
0
0
ENDSEC
0
SECTION
2
TABLES
0
TABLE
2
APPID
5
9
330
0
100
AcDbSymbolTable
70
5
0
APPID
5
12
330
9
100
AcDbSymbolTableRecord
100
AcDbRegAppTableRecord
2
ACAD
70
0
0
APPID
5
B5
330
9
100
AcDbSymbolTableRecord
100
AcDbRegAppTableRecord
2
AcCmTransparency
70
0
0
APPID
5
B6
330
9
100
AcDbSymbolTableRecord
100
AcDbRegAppTableRecord
2
AcAecLayerStandard
70
0
0
APPID
5
B7
330
9
100
AcDbSymbolTableRecord
100
AcDbRegAppTableRecord
2
GradientColor1ACI
70
0
0
APPID
5
B8
330
9
100
AcDbSymbolTableRecord
100
AcDbRegAppTableRecord
2
GradientColor2ACI
70
0
0
ENDTAB
0
TABLE
2
VPORT
5
8
330
0
100
AcDbSymbolTable
70
1
0
VPORT
5
A8
330
8
100
AcDbSymbolTableRecord
100
AcDbViewportTableRecord
2
*Active
70
0
10
0.0
20
0.0
11
1.0
21
1.0
12
0.0
22
0.0
13
0.0
23
0.0
14
0.5
24
0.5
15
10.0
25
10.0
16
0.0
26
0.0
36
1.0
17
0.0
27
0.0
37
0.0
40
10.0
41
1.0
75
0
76
1
0
ENDTAB
0
TABLE
2
LTYPE
5
5
330
0
100
AcDbSymbolTable
70
8
0
LTYPE
5
14
330
5
100
AcDbSymbolTableRecord
100
AcDbLinetypeTableRecord
2
ByBlock
70
0
3

72
65
73
0
40
0.0
0
LTYPE
5
15
330
5
100
AcDbSymbolTableRecord
100
AcDbLinetypeTableRecord
2
ByLayer
70
0
3

72
65
73
0
40
0.0
0
LTYPE
5
16
330
5
100
AcDbSymbolTableRecord
100
AcDbLinetypeTableRecord
2
Continuous
70
0
3
Solid line
72
65
73
0
40
0.0
0
LTYPE
5
6E
330
5
100
AcDbSymbolTableRecord
100
AcDbLinetypeTableRecord
2
HIDDEN
70
0
3
Hidden __ __ __ __ __ __ __ __ __ __ __ __ __ __
72
65
73
2
40
1.905
49
1.27
74
0
49
-0.635
74
0
0
LTYPE
5
6F
330
5
100
AcDbSymbolTableRecord
100
AcDbLinetypeTableRecord
2
PHANTOM
70
0
3
Phantom ______  __  __  ______  __  __  ______
72
65
73
6
40
12.7
49
6.35
74
0
49
-1.27
74
0
49
1.27
74
0
49
-1.27
74
0
49
1.27
74
0
49
-1.27
74
0
0
LTYPE
5
70
330
5
100
AcDbSymbolTableRecord
100
AcDbLinetypeTableRecord
2
CENTER
70
0
3
Center ____ _ ____ _ ____ _ ____ _ ____ _ ____
72
65
73
4
40
10.16
49
6.35
74
0
49
-1.27
74
0
49
1.27
74
0
49
-1.27
74
0
0
LTYPE
5
71
330
5
100
AcDbSymbolTableRecord
100
AcDbLinetypeTableRecord
2
CENTERX2
70
0
3
Center (2x) ________  __  ________  __  _____
72
65
73
4
40
20.32
49
12.7
74
0
49
-2.54
74
0
49
2.54
74
0
49
-2.54
74
0
0
LTYPE
5
72
330
5
100
AcDbSymbolTableRecord
100
AcDbLinetypeTableRecord
2
DOT2
70
0
3
Dot (.5x) ........................................
72
65
73
2
40
0.635
49
0.0
74
0
49
-0.635
74
0
0
ENDTAB
0
TABLE
2
LAYER
5
2
102
{ACAD_XDICTIONARY
360
A9
102
}
330
0
100
AcDbSymbolTable
70
1
0
LAYER
5
10
330
2
100
AcDbSymbolTableRecord
100
AcDbLayerTableRecord
2
0
70
0
62
7
6
Continuous
290
1
370
-3
390
0
0
ENDTAB
0
TABLE
2
STYLE
5
3
330
0
100
AcDbSymbolTable
70
1
0
STYLE
5
11
330
3
100
AcDbSymbolTableRecord
100
AcDbTextStyleTableRecord
2
STANDARD
3

70
0
71
0
40
0.0
41
1.0
42
0.0
50
0.0
1001
ACAD
1000
CENTURY GOTHIC
1071
0
0
ENDTAB
0
TABLE
2
DIMSTYLE
5
A
330
0
100
AcDbSymbolTable
70
2
100
AcDbDimStyleTable
0
DIMSTYLE
105
27
330
A
100
AcDbSymbolTableRecord
100
AcDbDimStyleTableRecord
2
ISO-25
3

4

40
1.0
41
2.5
42
0.625
43
3.75
44
1.25
45
0.0
46
0.0
47
0.0
48
0.0
49
1.0
70
0
71
0
72
0
73
0
74
0
75
0
76
0
77
1
78
8
79
3
140
2.5
141
2.5
143
0.0393700787
144
1.0
146
1.0
147
0.625
148
0.0
170
0
171
3
172
1
174
0
175
0
176
0
177
0
178
0
179
0
271
2
272
2
273
2
274
3
275
0
276
0
277
2
278
44
279
0
280
0
281
0
282
0
283
0
284
8
285
0
286
0
289
3
290
0
294
0
340
11
173
0
345
14
346
14
347
14
371
-2
372
-2
0
DIMSTYLE
105
B2
330
A
100
AcDbSymbolTableRecord
100
AcDbDimStyleTableRecord
2
Standard
3

4

40
1.0
41
0.18
42
0.0625
43
0.38
44
0.18
45
0.0
46
0.0
47
0.0
48
0.0
49
1.0
70
0
71
0
72
0
73
0
74
0
75
0
76
0
77
0
78
0
79
0
140
0.18
141
0.09
143
25.4
144
1.0
146
1.0
147
0.09
148
0.0
170
0
171
2
172
0
174
0
175
0
176
0
177
0
178
0
179
0
271
4
272
4
273
2
274
2
275
0
276
0
277
2
278
46
279
0
280
0
281
0
282
0
283
1
284
0
285
0
286
0
289
3
290
0
294
0
340
11
173
0
345
14
346
14
347
14
371
-2
372
-2
0
ENDTAB
0
TABLE
2
VIEW
5
6
330
0
100
AcDbSymbolTable
70
0
0
ENDTAB
0
TABLE
2
UCS
5
7
330
0
100
AcDbSymbolTable
70
0
0
ENDTAB
0
TABLE
2
BLOCK_RECORD
5
1
330
0
100
AcDbSymbolTable
70
3
0
BLOCK_RECORD
5
1F
330
1
100
AcDbSymbolTableRecord
100
AcDbBlockTableRecord
2
*Model_Space
340
22
0
BLOCK_RECORD
5
1B
330
1
100
AcDbSymbolTableRecord
100
AcDbBlockTableRecord
2
*Paper_Space
340
1E
0
BLOCK_RECORD
5
23
330
1
100
AcDbSymbolTableRecord
100
AcDbBlockTableRecord
2
*Paper_Space0
340
26
0
ENDTAB
0
ENDSEC
0
SECTION
2
BLOCKS
0
BLOCK
5
20
330
1F
100
AcDbEntity
67
0
8
0
100
AcDbBlockBegin
2
*Model_Space
70
0
10
0.0
20
0.0
30
0.0
3
*Model_Space
4

0
ENDBLK
5
21
330
1F
100
AcDbEntity
8
0
100
AcDbBlockEnd
0
BLOCK
5
1C
330
1B
100
AcDbEntity
67
1
8
0
100
AcDbBlockBegin
2
*Paper_Space
70
0
10
0.0
20
0.0
30
0.0
3
*Paper_Space
4

0
ENDBLK
5
1D
330
1B
100
AcDbEntity
8
0
100
AcDbBlockEnd
0
BLOCK
5
24
330
23
100
AcDbEntity
67
1
8
0
100
AcDbBlockBegin
2
*Paper_Space0
70
0
10
0.0
20
0.0
30
0.0
3
*Paper_Space0
4

0
VIEWPORT
5
B1
330
23
100
AcDbEntity
67
1
8
0
62
256
6
ByLayer
370
-1
48
1.0
60
0
100
AcDbViewport
10
0.0
20
0.0
30
0.0
40
297.0
41
210.0
68
1
69
1
12
50.0
22
100.0
13
0.0
23
0.0
14
10.0
24
10.0
15
10.0
25
10.0
16
0.0
26
0.0
36
1.0
17
0.0
27
0.0
37
0.0
42
50.0
43
0.0
44
0.0
45
250.0
50
0.0
51
0.0
72
1000
90
819232
110
0.0
120
0.0
130
0.0
111
1.0
121
0.0
131
0.0
112
0.0
122
1.0
132
0.0
0
ENDBLK
5
25
330
23
100
AcDbEntity
8
0
100
AcDbBlockEnd
0
ENDSEC
0
SECTION
2
ENTITIES
0
VIEWPORT
5
B0
330
1B
100
AcDbEntity
67
1
8
0
62
256
6
ByLayer
370
-1
48
1.0
60
0
100
AcDbViewport
10
0.0
20
0.0
30
0.0
40
297.0
41
210.0
68
1
69
1
12
50.0
22
100.0
13
0.0
23
0.0
14
10.0
24
10.0
15
10.0
25
10.0
16
0.0
26
0.0
36
1.0
17
0.0
27
0.0
37
0.0
42
50.0
43
0.0
44
0.0
45
250.0
50
0.0
51
0.0
72
1000
90
819232
110
0.0
120
0.0
130
0.0
111
1.0
121
0.0
131
0.0
112
0.0
122
1.0
132
0.0
0
CIRCLE
5
73
330
1F
100
AcDbEntity
67
0
8
0
62
7
6
Continuous
370
25
48
1.0
60
0
100
AcDbCircle
10
-990.0
20
-50.0
30
0.0
40
4.49999999999989
39
0.0
210
0.0
220
0.0
230
1.0
0
CIRCLE
5
74
330
1F
100
AcDbEntity
67
0
8
0
62
7
6
Continuous
370
25
48
1.0
60
0
100
AcDbCircle
10
-990.0
20
50.0
30
0.0
40
4.49999999999989
39
0.0
210
0.0
220
0.0
230
1.0
0
CIRCLE
5
75
330
1F
100
AcDbEntity
67
0
8
0
62
7
6
Continuous
370
25
48
1.0
60
0
100
AcDbCircle
10
-990.0
20
0.0
30
0.0
40
4.49999999999989
39
0.0
210
0.0
220
0.0
230
1.0
0
CIRCLE
5
76
330
1F
100
AcDbEntity
67
0
8
0
62
7
6
Continuous
370
25
48
1.0
60
0
100
AcDbCircle
10
-1140.0
20
0.0
30
0.0
40
4.49999999999977
39
0.0
210
0.0
220
0.0
230
1.0
0
CIRCLE
5
77
330
1F
100
AcDbEntity
67
0
8
0
62
7
6
Continuous
370
25
48
1.0
60
0
100
AcDbCircle
10
-1140.0
20
-50.0
30
0.0
40
4.5
39
0.0
210
0.0
220
0.0
230
1.0
0
CIRCLE
5
78
330
1F
100
AcDbEntity
67
0
8
0
62
7
6
Continuous
370
25
48
1.0
60
0
100
AcDbCircle
10
-1140.0
20
50.0
30
0.0
40
4.49999999999977
39
0.0
210
0.0
220
0.0
230
1.0
0
LINE
5
79
330
1F
100
AcDbEntity
67
0
8
0
62
7
6
Continuous
370
25
48
1.0
60
0
100
AcDbLine
10
1220.0
20
-77.5
30
0.0
11
1220.0
21
77.5
31
0.0
39
0.0
210
0.0
220
0.0
230
1.0
0
LINE
5
7A
330
1F
100
AcDbEntity
67
0
8
0
62
7
6
Continuous
370
25
48
1.0
60
0
100
AcDbLine
10
-1220.0
20
-77.5
30
0.0
11
1220.0
21
-77.5
31
0.0
39
0.0
210
0.0
220
0.0
230
1.0
0
LINE
5
7B
330
1F
100
AcDbEntity
67
0
8
0
62
7
6
Continuous
370
25
48
1.0
60
0
100
AcDbLine
10
-1220.0
20
77.5
30
0.0
11
-1220.0
21
-77.5
31
0.0
39
0.0
210
0.0
220
0.0
230
1.0
0
LINE
5
7C
330
1F
100
AcDbEntity
67
0
8
0
62
7
6
Continuous
370
25
48
1.0
60
0
100
AcDbLine
10
1220.0
20
77.5
30
0.0
11
-1220.0
21
77.5
31
0.0
39
0.0
210
0.0
220
0.0
230
1.0
0
CIRCLE
5
7D
330
1F
100
AcDbEntity
67
0
8
0
62
7
6
Continuous
370
25
48
1.0
60
0
100
AcDbCircle
10
-840.0
20
0.0
30
0.0
40
4.49999999999989
39
0.0
210
0.0
220
0.0
230
1.0
0
CIRCLE
5
7E
330
1F
100
AcDbEntity
67
0
8
0
62
7
6
Continuous
370
25
48
1.0
60
0
100
AcDbCircle
10
-690.0
20
0.0
30
0.0
40
4.5
39
0.0
210
0.0
220
0.0
230
1.0
0
CIRCLE
5
81
330
1F
100
AcDbEntity
67
0
8
0
62
7
6
Continuous
370
25
48
1.0
60
0
100
AcDbCircle
10
-240.0
20
0.0
30
0.0
40
4.49999999999994
39
0.0
210
0.0
220
0.0
230
1.0
0
CIRCLE
5
82
330
1F
100
AcDbEntity
67
0
8
0
62
7
6
Continuous
370
25
48
1.0
60
0
100
AcDbCircle
10
-90.0
20
0.0
30
0.0
40
4.49999999999996
39
0.0
210
0.0
220
0.0
230
1.0
0
CIRCLE
5
83
330
1F
100
AcDbEntity
67
0
8
0
62
7
6
Continuous
370
25
48
1.0
60
0
100
AcDbCircle
10
60.0
20
0.0
30
0.0
40
4.49999999999994
39
0.0
210
0.0
220
0.0
230
1.0
0
CIRCLE
5
84
330
1F
100
AcDbEntity
67
0
8
0
62
7
6
Continuous
370
25
48
1.0
60
0
100
AcDbCircle
10
210.0
20
0.0
30
0.0
40
4.49999999999994
39
0.0
210
0.0
220
0.0
230
1.0
0
CIRCLE
5
85
330
1F
100
AcDbEntity
67
0
8
0
62
7
6
Continuous
370
25
48
1.0
60
0
100
AcDbCircle
10
360.0
20
0.0
30
0.0
40
4.5
39
0.0
210
0.0
220
0.0
230
1.0
0
CIRCLE
5
86
330
1F
100
AcDbEntity
67
0
8
0
62
7
6
Continuous
370
25
48
1.0
60
0
100
AcDbCircle
10
510.0
20
0.0
30
0.0
40
4.49999999999994
39
0.0
210
0.0
220
0.0
230
1.0
0
CIRCLE
5
87
330
1F
100
AcDbEntity
67
0
8
0
62
7
6
Continuous
370
25
48
1.0
60
0
100
AcDbCircle
10
660.0
20
0.0
30
0.0
40
4.49999999999989
39
0.0
210
0.0
220
0.0
230
1.0
0
CIRCLE
5
88
330
1F
100
AcDbEntity
67
0
8
0
62
7
6
Continuous
370
25
48
1.0
60
0
100
AcDbCircle
10
810.0
20
0.0
30
0.0
40
4.5
39
0.0
210
0.0
220
0.0
230
1.0
0
CIRCLE
5
89
330
1F
100
AcDbEntity
67
0
8
0
62
7
6
Continuous
370
25
48
1.0
60
0
100
AcDbCircle
10
960.0
20
0.0
30
0.0
40
4.5
39
0.0
210
0.0
220
0.0
230
1.0
0
CIRCLE
5
8A
330
1F
100
AcDbEntity
67
0
8
0
62
7
6
Continuous
370
25
48
1.0
60
0
100
AcDbCircle
10
1110.0
20
0.0
30
0.0
40
4.49999999999977
39
0.0
210
0.0
220
0.0
230
1.0
0
CIRCLE
5
8B
330
1F
100
AcDbEntity
67
0
8
0
62
7
6
Continuous
370
25
48
1.0
60
0
100
AcDbCircle
10
-840.0
20
50.0
30
0.0
40
4.49999999999989
39
0.0
210
0.0
220
0.0
230
1.0
0
CIRCLE
5
8C
330
1F
100
AcDbEntity
67
0
8
0
62
7
6
Continuous
370
25
48
1.0
60
0
100
AcDbCircle
10
-690.0
20
50.0
30
0.0
40
4.5
39
0.0
210
0.0
220
0.0
230
1.0
0
CIRCLE
5
8D
330
1F
100
AcDbEntity
67
0
8
0
62
7
6
Continuous
370
25
48
1.0
60
0
100
AcDbCircle
10
-540.0
20
50.0
30
0.0
40
4.5
39
0.0
210
0.0
220
0.0
230
1.0
0
CIRCLE
5
8E
330
1F
100
AcDbEntity
67
0
8
0
62
7
6
Continuous
370
25
48
1.0
60
0
100
AcDbCircle
10
-390.0
20
50.0
30
0.0
40
4.49999999999994
39
0.0
210
0.0
220
0.0
230
1.0
0
CIRCLE
5
8F
330
1F
100
AcDbEntity
67
0
8
0
62
7
6
Continuous
370
25
48
1.0
60
0
100
AcDbCircle
10
-240.0
20
50.0
30
0.0
40
4.49999999999994
39
0.0
210
0.0
220
0.0
230
1.0
0
CIRCLE
5
90
330
1F
100
AcDbEntity
67
0
8
0
62
7
6
Continuous
370
25
48
1.0
60
0
100
AcDbCircle
10
-90.0
20
50.0
30
0.0
40
4.49999999999996
39
0.0
210
0.0
220
0.0
230
1.0
0
CIRCLE
5
91
330
1F
100
AcDbEntity
67
0
8
0
62
7
6
Continuous
370
25
48
1.0
60
0
100
AcDbCircle
10
60.0
20
50.0
30
0.0
40
4.49999999999994
39
0.0
210
0.0
220
0.0
230
1.0
0
CIRCLE
5
92
330
1F
100
AcDbEntity
67
0
8
0
62
7
6
Continuous
370
25
48
1.0
60
0
100
AcDbCircle
10
210.0
20
50.0
30
0.0
40
4.49999999999994
39
0.0
210
0.0
220
0.0
230
1.0
0
CIRCLE
5
93
330
1F
100
AcDbEntity
67
0
8
0
62
7
6
Continuous
370
25
48
1.0
60
0
100
AcDbCircle
10
360.0
20
50.0
30
0.0
40
4.5
39
0.0
210
0.0
220
0.0
230
1.0
0
CIRCLE
5
94
330
1F
100
AcDbEntity
67
0
8
0
62
7
6
Continuous
370
25
48
1.0
60
0
100
AcDbCircle
10
510.0
20
50.0
30
0.0
40
4.49999999999994
39
0.0
210
0.0
220
0.0
230
1.0
0
CIRCLE
5
95
330
1F
100
AcDbEntity
67
0
8
0
62
7
6
Continuous
370
25
48
1.0
60
0
100
AcDbCircle
10
660.0
20
50.0
30
0.0
40
4.49999999999989
39
0.0
210
0.0
220
0.0
230
1.0
0
CIRCLE
5
96
330
1F
100
AcDbEntity
67
0
8
0
62
7
6
Continuous
370
25
48
1.0
60
0
100
AcDbCircle
10
810.0
20
50.0
30
0.0
40
4.5
39
0.0
210
0.0
220
0.0
230
1.0
0
CIRCLE
5
97
330
1F
100
AcDbEntity
67
0
8
0
62
7
6
Continuous
370
25
48
1.0
60
0
100
AcDbCircle
10
960.0
20
50.0
30
0.0
40
4.5
39
0.0
210
0.0
220
0.0
230
1.0
0
CIRCLE
5
98
330
1F
100
AcDbEntity
67
0
8
0
62
7
6
Continuous
370
25
48
1.0
60
0
100
AcDbCircle
10
1110.0
20
50.0
30
0.0
40
4.49999999999977
39
0.0
210
0.0
220
0.0
230
1.0
0
CIRCLE
5
99
330
1F
100
AcDbEntity
67
0
8
0
62
7
6
Continuous
370
25
48
1.0
60
0
100
AcDbCircle
10
-840.0
20
-50.0
30
0.0
40
4.49999999999989
39
0.0
210
0.0
220
0.0
230
1.0
0
CIRCLE
5
9A
330
1F
100
AcDbEntity
67
0
8
0
62
7
6
Continuous
370
25
48
1.0
60
0
100
AcDbCircle
10
-690.0
20
-50.0
30
0.0
40
4.5
39
0.0
210
0.0
220
0.0
230
1.0
0
CIRCLE
5
9C
330
1F
100
AcDbEntity
67
0
8
0
62
7
6
Continuous
370
25
48
1.0
60
0
100
AcDbCircle
10
-390.0
20
-50.0
30
0.0
40
4.49999999999994
39
0.0
210
0.0
220
0.0
230
1.0
0
CIRCLE
5
9D
330
1F
100
AcDbEntity
67
0
8
0
62
7
6
Continuous
370
25
48
1.0
60
0
100
AcDbCircle
10
-240.0
20
-50.0
30
0.0
40
4.49999999999994
39
0.0
210
0.0
220
0.0
230
1.0
0
CIRCLE
5
9E
330
1F
100
AcDbEntity
67
0
8
0
62
7
6
Continuous
370
25
48
1.0
60
0
100
AcDbCircle
10
-90.0
20
-50.0
30
0.0
40
4.49999999999996
39
0.0
210
0.0
220
0.0
230
1.0
0
CIRCLE
5
9F
330
1F
100
AcDbEntity
67
0
8
0
62
7
6
Continuous
370
25
48
1.0
60
0
100
AcDbCircle
10
60.0
20
-50.0
30
0.0
40
4.49999999999994
39
0.0
210
0.0
220
0.0
230
1.0
0
CIRCLE
5
A0
330
1F
100
AcDbEntity
67
0
8
0
62
7
6
Continuous
370
25
48
1.0
60
0
100
AcDbCircle
10
210.0
20
-50.0
30
0.0
40
4.49999999999997
39
0.0
210
0.0
220
0.0
230
1.0
0
CIRCLE
5
A1
330
1F
100
AcDbEntity
67
0
8
0
62
7
6
Continuous
370
25
48
1.0
60
0
100
AcDbCircle
10
360.0
20
-50.0
30
0.0
40
4.5
39
0.0
210
0.0
220
0.0
230
1.0
0
CIRCLE
5
A2
330
1F
100
AcDbEntity
67
0
8
0
62
7
6
Continuous
370
25
48
1.0
60
0
100
AcDbCircle
10
510.0
20
-50.0
30
0.0
40
4.49999999999994
39
0.0
210
0.0
220
0.0
230
1.0
0
CIRCLE
5
A3
330
1F
100
AcDbEntity
67
0
8
0
62
7
6
Continuous
370
25
48
1.0
60
0
100
AcDbCircle
10
660.0
20
-50.0
30
0.0
40
4.49999999999989
39
0.0
210
0.0
220
0.0
230
1.0
0
CIRCLE
5
A4
330
1F
100
AcDbEntity
67
0
8
0
62
7
6
Continuous
370
25
48
1.0
60
0
100
AcDbCircle
10
810.0
20
-50.0
30
0.0
40
4.5
39
0.0
210
0.0
220
0.0
230
1.0
0
CIRCLE
5
A5
330
1F
100
AcDbEntity
67
0
8
0
62
7
6
Continuous
370
25
48
1.0
60
0
100
AcDbCircle
10
960.0
20
-50.0
30
0.0
40
4.5
39
0.0
210
0.0
220
0.0
230
1.0
0
CIRCLE
5
A6
330
1F
100
AcDbEntity
67
0
8
0
62
7
6
Continuous
370
25
48
1.0
60
0
100
AcDbCircle
10
1110.0
20
-50.0
30
0.0
40
4.5
39
0.0
210
0.0
220
0.0
230
1.0
0
LINE
5
B3
330
1F
100
AcDbEntity
67
0
8
0
62
5
6
ByLayer
370
-1
48
1.0
60
0
100
AcDbLine
10
-545.0
20
0.0
30
0.0
11
-535.0
21
0.0
31
0.0
39
0.0
210
0.0
220
0.0
230
1.0
0
LINE
5
B4
330
1F
100
AcDbEntity
67
0
8
0
62
5
6
ByLayer
370
-1
48
1.0
60
0
100
AcDbLine
10
-540.0
20
-5.0
30
0.0
11
-540.0
21
5.0
31
0.0
39
0.0
210
0.0
220
0.0
230
1.0
0
LINE
5
BB
330
1F
100
AcDbEntity
67
0
8
0
62
5
6
ByLayer
370
-1
48
1.0
60
0
100
AcDbLine
10
-545.0
20
0.0
30
0.0
11
-535.0
21
0.0
31
0.0
39
0.0
210
0.0
220
0.0
230
1.0
0
LINE
5
BC
330
1F
100
AcDbEntity
67
0
8
0
62
5
6
ByLayer
370
-1
48
1.0
60
0
100
AcDbLine
10
-540.0
20
-5.0
30
0.0
11
-540.0
21
5.0
31
0.0
39
0.0
210
0.0
220
0.0
230
1.0
0
LINE
5
BF
330
1F
100
AcDbEntity
67
0
8
0
62
5
6
ByLayer
370
-1
48
1.0
60
0
100
AcDbLine
10
-545.0
20
0.0
30
0.0
11
-535.0
21
0.0
31
0.0
39
0.0
210
0.0
220
0.0
230
1.0
0
LINE
5
C0
330
1F
100
AcDbEntity
67
0
8
0
62
5
6
ByLayer
370
-1
48
1.0
60
0
100
AcDbLine
10
-540.0
20
-5.0
30
0.0
11
-540.0
21
5.0
31
0.0
39
0.0
210
0.0
220
0.0
230
1.0
0
LINE
5
C3
330
1F
100
AcDbEntity
67
0
8
0
62
5
6
ByLayer
370
-1
48
1.0
60
0
100
AcDbLine
10
-545.0
20
0.0
30
0.0
11
-535.0
21
0.0
31
0.0
39
0.0
210
0.0
220
0.0
230
1.0
0
LINE
5
C4
330
1F
100
AcDbEntity
67
0
8
0
62
5
6
ByLayer
370
-1
48
1.0
60
0
100
AcDbLine
10
-540.0
20
-5.0
30
0.0
11
-540.0
21
5.0
31
0.0
39
0.0
210
0.0
220
0.0
230
1.0
0
LINE
5
C7
330
1F
100
AcDbEntity
67
0
8
0
62
5
6
ByLayer
370
-1
48
1.0
60
0
100
AcDbLine
10
-545.0
20
0.0
30
0.0
11
-535.0
21
0.0
31
0.0
39
0.0
210
0.0
220
0.0
230
1.0
0
LINE
5
C8
330
1F
100
AcDbEntity
67
0
8
0
62
5
6
ByLayer
370
-1
48
1.0
60
0
100
AcDbLine
10
-540.0
20
-5.0
30
0.0
11
-540.0
21
5.0
31
0.0
39
0.0
210
0.0
220
0.0
230
1.0
0
LINE
5
CB
330
1F
100
AcDbEntity
67
0
8
0
62
5
6
ByLayer
370
-1
48
1.0
60
0
100
AcDbLine
10
-545.0
20
0.0
30
0.0
11
-535.0
21
0.0
31
0.0
39
0.0
210
0.0
220
0.0
230
1.0
0
LINE
5
CC
330
1F
100
AcDbEntity
67
0
8
0
62
5
6
ByLayer
370
-1
48
1.0
60
0
100
AcDbLine
10
-540.0
20
-5.0
30
0.0
11
-540.0
21
5.0
31
0.0
39
0.0
210
0.0
220
0.0
230
1.0
0
LINE
5
CF
330
1F
100
AcDbEntity
67
0
8
0
62
5
6
ByLayer
370
-1
48
1.0
60
0
100
AcDbLine
10
-545.0
20
0.0
30
0.0
11
-535.0
21
0.0
31
0.0
39
0.0
210
0.0
220
0.0
230
1.0
0
LINE
5
D0
330
1F
100
AcDbEntity
67
0
8
0
62
5
6
ByLayer
370
-1
48
1.0
60
0
100
AcDbLine
10
-540.0
20
-5.0
30
0.0
11
-540.0
21
5.0
31
0.0
39
0.0
210
0.0
220
0.0
230
1.0
0
LINE
5
D3
330
1F
100
AcDbEntity
67
0
8
0
62
5
6
ByLayer
370
-1
48
1.0
60
0
100
AcDbLine
10
-545.0
20
0.0
30
0.0
11
-535.0
21
0.0
31
0.0
39
0.0
210
0.0
220
0.0
230
1.0
0
LINE
5
D4
330
1F
100
AcDbEntity
67
0
8
0
62
5
6
ByLayer
370
-1
48
1.0
60
0
100
AcDbLine
10
-540.0
20
-5.0
30
0.0
11
-540.0
21
5.0
31
0.0
39
0.0
210
0.0
220
0.0
230
1.0
0
LINE
5
D7
330
1F
100
AcDbEntity
67
0
8
0
62
5
6
ByLayer
370
-1
48
1.0
60
0
100
AcDbLine
10
-545.0
20
0.0
30
0.0
11
-535.0
21
0.0
31
0.0
39
0.0
210
0.0
220
0.0
230
1.0
0
LINE
5
D8
330
1F
100
AcDbEntity
67
0
8
0
62
5
6
ByLayer
370
-1
48
1.0
60
0
100
AcDbLine
10
-540.0
20
-5.0
30
0.0
11
-540.0
21
5.0
31
0.0
39
0.0
210
0.0
220
0.0
230
1.0
0
LINE
5
DB
330
1F
100
AcDbEntity
67
0
8
0
62
5
6
ByLayer
370
-1
48
1.0
60
0
100
AcDbLine
10
-545.0
20
0.0
30
0.0
11
-535.0
21
0.0
31
0.0
39
0.0
210
0.0
220
0.0
230
1.0
0
LINE
5
DC
330
1F
100
AcDbEntity
67
0
8
0
62
5
6
ByLayer
370
-1
48
1.0
60
0
100
AcDbLine
10
-540.0
20
-5.0
30
0.0
11
-540.0
21
5.0
31
0.0
39
0.0
210
0.0
220
0.0
230
1.0
0
LINE
5
DF
330
1F
100
AcDbEntity
67
0
8
0
62
5
6
ByLayer
370
-1
48
1.0
60
0
100
AcDbLine
10
-545.0
20
0.0
30
0.0
11
-535.0
21
0.0
31
0.0
39
0.0
210
0.0
220
0.0
230
1.0
0
LINE
5
E0
330
1F
100
AcDbEntity
67
0
8
0
62
5
6
ByLayer
370
-1
48
1.0
60
0
100
AcDbLine
10
-540.0
20
-5.0
30
0.0
11
-540.0
21
5.0
31
0.0
39
0.0
210
0.0
220
0.0
230
1.0
0
LINE
5
E3
330
1F
100
AcDbEntity
67
0
8
0
62
5
6
ByLayer
370
-1
48
1.0
60
0
100
AcDbLine
10
-545.0
20
0.0
30
0.0
11
-535.0
21
0.0
31
0.0
39
0.0
210
0.0
220
0.0
230
1.0
0
LINE
5
E4
330
1F
100
AcDbEntity
67
0
8
0
62
5
6
ByLayer
370
-1
48
1.0
60
0
100
AcDbLine
10
-540.0
20
-5.0
30
0.0
11
-540.0
21
5.0
31
0.0
39
0.0
210
0.0
220
0.0
230
1.0
0
LINE
5
E7
330
1F
100
AcDbEntity
67
0
8
0
62
5
6
ByLayer
370
-1
48
1.0
60
0
100
AcDbLine
10
-545.0
20
0.0
30
0.0
11
-535.0
21
0.0
31
0.0
39
0.0
210
0.0
220
0.0
230
1.0
0
LINE
5
E8
330
1F
100
AcDbEntity
67
0
8
0
62
5
6
ByLayer
370
-1
48
1.0
60
0
100
AcDbLine
10
-540.0
20
-5.0
30
0.0
11
-540.0
21
5.0
31
0.0
39
0.0
210
0.0
220
0.0
230
1.0
0
LINE
5
EB
330
1F
100
AcDbEntity
67
0
8
0
62
5
6
ByLayer
370
-1
48
1.0
60
0
100
AcDbLine
10
-545.0
20
0.0
30
0.0
11
-535.0
21
0.0
31
0.0
39
0.0
210
0.0
220
0.0
230
1.0
0
LINE
5
EC
330
1F
100
AcDbEntity
67
0
8
0
62
5
6
ByLayer
370
-1
48
1.0
60
0
100
AcDbLine
10
-540.0
20
-5.0
30
0.0
11
-540.0
21
5.0
31
0.0
39
0.0
210
0.0
220
0.0
230
1.0
0
LINE
5
EF
330
1F
100
AcDbEntity
67
0
8
0
62
5
6
ByLayer
370
-1
48
1.0
60
0
100
AcDbLine
10
-545.0
20
0.0
30
0.0
11
-535.0
21
0.0
31
0.0
39
0.0
210
0.0
220
0.0
230
1.0
0
LINE
5
F0
330
1F
100
AcDbEntity
67
0
8
0
62
5
6
ByLayer
370
-1
48
1.0
60
0
100
AcDbLine
10
-540.0
20
-5.0
30
0.0
11
-540.0
21
5.0
31
0.0
39
0.0
210
0.0
220
0.0
230
1.0
0
LINE
5
F3
330
1F
100
AcDbEntity
67
0
8
0
62
5
6
ByLayer
370
-1
48
1.0
60
0
100
AcDbLine
10
-545.0
20
0.0
30
0.0
11
-535.0
21
0.0
31
0.0
39
0.0
210
0.0
220
0.0
230
1.0
0
LINE
5
F4
330
1F
100
AcDbEntity
67
0
8
0
62
5
6
ByLayer
370
-1
48
1.0
60
0
100
AcDbLine
10
-540.0
20
-5.0
30
0.0
11
-540.0
21
5.0
31
0.0
39
0.0
210
0.0
220
0.0
230
1.0
0
LINE
5
F7
330
1F
100
AcDbEntity
67
0
8
0
62
5
6
ByLayer
370
-1
48
1.0
60
0
100
AcDbLine
10
-545.0
20
0.0
30
0.0
11
-535.0
21
0.0
31
0.0
39
0.0
210
0.0
220
0.0
230
1.0
0
LINE
5
F8
330
1F
100
AcDbEntity
67
0
8
0
62
5
6
ByLayer
370
-1
48
1.0
60
0
100
AcDbLine
10
-540.0
20
-5.0
30
0.0
11
-540.0
21
5.0
31
0.0
39
0.0
210
0.0
220
0.0
230
1.0
0
LINE
5
FB
330
1F
100
AcDbEntity
67
0
8
0
62
5
6
ByLayer
370
-1
48
1.0
60
0
100
AcDbLine
10
-545.0
20
0.0
30
0.0
11
-535.0
21
0.0
31
0.0
39
0.0
210
0.0
220
0.0
230
1.0
0
LINE
5
FC
330
1F
100
AcDbEntity
67
0
8
0
62
5
6
ByLayer
370
-1
48
1.0
60
0
100
AcDbLine
10
-540.0
20
-5.0
30
0.0
11
-540.0
21
5.0
31
0.0
39
0.0
210
0.0
220
0.0
230
1.0
0
LINE
5
FF
330
1F
100
AcDbEntity
67
0
8
0
62
5
6
ByLayer
370
-1
48
1.0
60
0
100
AcDbLine
10
-545.0
20
0.0
30
0.0
11
-535.0
21
0.0
31
0.0
39
0.0
210
0.0
220
0.0
230
1.0
0
LINE
5
100
330
1F
100
AcDbEntity
67
0
8
0
62
5
6
ByLayer
370
-1
48
1.0
60
0
100
AcDbLine
10
-540.0
20
-5.0
30
0.0
11
-540.0
21
5.0
31
0.0
39
0.0
210
0.0
220
0.0
230
1.0
0
LINE
5
103
330
1F
100
AcDbEntity
67
0
8
0
62
5
6
ByLayer
370
-1
48
1.0
60
0
100
AcDbLine
10
-545.0
20
0.0
30
0.0
11
-535.0
21
0.0
31
0.0
39
0.0
210
0.0
220
0.0
230
1.0
0
LINE
5
104
330
1F
100
AcDbEntity
67
0
8
0
62
5
6
ByLayer
370
-1
48
1.0
60
0
100
AcDbLine
10
-540.0
20
-5.0
30
0.0
11
-540.0
21
5.0
31
0.0
39
0.0
210
0.0
220
0.0
230
1.0
0
LINE
5
107
330
1F
100
AcDbEntity
67
0
8
0
62
5
6
ByLayer
370
-1
48
1.0
60
0
100
AcDbLine
10
-545.0
20
0.0
30
0.0
11
-535.0
21
0.0
31
0.0
39
0.0
210
0.0
220
0.0
230
1.0
0
LINE
5
108
330
1F
100
AcDbEntity
67
0
8
0
62
5
6
ByLayer
370
-1
48
1.0
60
0
100
AcDbLine
10
-540.0
20
-5.0
30
0.0
11
-540.0
21
5.0
31
0.0
39
0.0
210
0.0
220
0.0
230
1.0
0
LINE
5
10B
330
1F
100
AcDbEntity
67
0
8
0
62
5
6
ByLayer
370
-1
48
1.0
60
0
100
AcDbLine
10
-545.0
20
0.0
30
0.0
11
-535.0
21
0.0
31
0.0
39
0.0
210
0.0
220
0.0
230
1.0
0
LINE
5
10C
330
1F
100
AcDbEntity
67
0
8
0
62
5
6
ByLayer
370
-1
48
1.0
60
0
100
AcDbLine
10
-540.0
20
-5.0
30
0.0
11
-540.0
21
5.0
31
0.0
39
0.0
210
0.0
220
0.0
230
1.0
0
LINE
5
10F
330
1F
100
AcDbEntity
67
0
8
0
62
5
6
ByLayer
370
-1
48
1.0
60
0
100
AcDbLine
10
-545.0
20
0.0
30
0.0
11
-535.0
21
0.0
31
0.0
39
0.0
210
0.0
220
0.0
230
1.0
0
LINE
5
110
330
1F
100
AcDbEntity
67
0
8
0
62
5
6
ByLayer
370
-1
48
1.0
60
0
100
AcDbLine
10
-540.0
20
-5.0
30
0.0
11
-540.0
21
5.0
31
0.0
39
0.0
210
0.0
220
0.0
230
1.0
0
LINE
5
113
330
1F
100
AcDbEntity
67
0
8
0
62
5
6
ByLayer
370
-1
48
1.0
60
0
100
AcDbLine
10
-545.0
20
0.0
30
0.0
11
-535.0
21
0.0
31
0.0
39
0.0
210
0.0
220
0.0
230
1.0
0
LINE
5
114
330
1F
100
AcDbEntity
67
0
8
0
62
5
6
ByLayer
370
-1
48
1.0
60
0
100
AcDbLine
10
-540.0
20
-5.0
30
0.0
11
-540.0
21
5.0
31
0.0
39
0.0
210
0.0
220
0.0
230
1.0
0
LINE
5
117
330
1F
100
AcDbEntity
67
0
8
0
62
5
6
ByLayer
370
-1
48
1.0
60
0
100
AcDbLine
10
-545.0
20
0.0
30
0.0
11
-535.0
21
0.0
31
0.0
39
0.0
210
0.0
220
0.0
230
1.0
0
LINE
5
118
330
1F
100
AcDbEntity
67
0
8
0
62
5
6
ByLayer
370
-1
48
1.0
60
0
100
AcDbLine
10
-540.0
20
-5.0
30
0.0
11
-540.0
21
5.0
31
0.0
39
0.0
210
0.0
220
0.0
230
1.0
0
LINE
5
11B
330
1F
100
AcDbEntity
67
0
8
0
62
5
6
ByLayer
370
-1
48
1.0
60
0
100
AcDbLine
10
-545.0
20
0.0
30
0.0
11
-535.0
21
0.0
31
0.0
39
0.0
210
0.0
220
0.0
230
1.0
0
LINE
5
11C
330
1F
100
AcDbEntity
67
0
8
0
62
5
6
ByLayer
370
-1
48
1.0
60
0
100
AcDbLine
10
-540.0
20
-5.0
30
0.0
11
-540.0
21
5.0
31
0.0
39
0.0
210
0.0
220
0.0
230
1.0
0
LINE
5
11F
330
1F
100
AcDbEntity
67
0
8
0
62
5
6
ByLayer
370
-1
48
1.0
60
0
100
AcDbLine
10
-545.0
20
0.0
30
0.0
11
-535.0
21
0.0
31
0.0
39
0.0
210
0.0
220
0.0
230
1.0
0
LINE
5
120
330
1F
100
AcDbEntity
67
0
8
0
62
5
6
ByLayer
370
-1
48
1.0
60
0
100
AcDbLine
10
-540.0
20
-5.0
30
0.0
11
-540.0
21
5.0
31
0.0
39
0.0
210
0.0
220
0.0
230
1.0
0
LINE
5
123
330
1F
100
AcDbEntity
67
0
8
0
62
5
6
ByLayer
370
-1
48
1.0
60
0
100
AcDbLine
10
-545.0
20
0.0
30
0.0
11
-535.0
21
0.0
31
0.0
39
0.0
210
0.0
220
0.0
230
1.0
0
LINE
5
124
330
1F
100
AcDbEntity
67
0
8
0
62
5
6
ByLayer
370
-1
48
1.0
60
0
100
AcDbLine
10
-540.0
20
-5.0
30
0.0
11
-540.0
21
5.0
31
0.0
39
0.0
210
0.0
220
0.0
230
1.0
0
LINE
5
127
330
1F
100
AcDbEntity
67
0
8
0
62
5
6
ByLayer
370
-1
48
1.0
60
0
100
AcDbLine
10
-545.0
20
0.0
30
0.0
11
-535.0
21
0.0
31
0.0
39
0.0
210
0.0
220
0.0
230
1.0
0
LINE
5
128
330
1F
100
AcDbEntity
67
0
8
0
62
5
6
ByLayer
370
-1
48
1.0
60
0
100
AcDbLine
10
-540.0
20
-5.0
30
0.0
11
-540.0
21
5.0
31
0.0
39
0.0
210
0.0
220
0.0
230
1.0
0
LINE
5
12B
330
1F
100
AcDbEntity
67
0
8
0
62
5
6
ByLayer
370
-1
48
1.0
60
0
100
AcDbLine
10
-545.0
20
0.0
30
0.0
11
-535.0
21
0.0
31
0.0
39
0.0
210
0.0
220
0.0
230
1.0
0
LINE
5
12C
330
1F
100
AcDbEntity
67
0
8
0
62
5
6
ByLayer
370
-1
48
1.0
60
0
100
AcDbLine
10
-540.0
20
-5.0
30
0.0
11
-540.0
21
5.0
31
0.0
39
0.0
210
0.0
220
0.0
230
1.0
0
LINE
5
12F
330
1F
100
AcDbEntity
67
0
8
0
62
5
6
ByLayer
370
-1
48
1.0
60
0
100
AcDbLine
10
-545.0
20
0.0
30
0.0
11
-535.0
21
0.0
31
0.0
39
0.0
210
0.0
220
0.0
230
1.0
0
LINE
5
130
330
1F
100
AcDbEntity
67
0
8
0
62
5
6
ByLayer
370
-1
48
1.0
60
0
100
AcDbLine
10
-540.0
20
-5.0
30
0.0
11
-540.0
21
5.0
31
0.0
39
0.0
210
0.0
220
0.0
230
1.0
0
LINE
5
133
330
1F
100
AcDbEntity
67
0
8
0
62
5
6
ByLayer
370
-1
48
1.0
60
0
100
AcDbLine
10
-545.0
20
0.0
30
0.0
11
-535.0
21
0.0
31
0.0
39
0.0
210
0.0
220
0.0
230
1.0
0
LINE
5
134
330
1F
100
AcDbEntity
67
0
8
0
62
5
6
ByLayer
370
-1
48
1.0
60
0
100
AcDbLine
10
-540.0
20
-5.0
30
0.0
11
-540.0
21
5.0
31
0.0
39
0.0
210
0.0
220
0.0
230
1.0
0
LINE
5
137
330
1F
100
AcDbEntity
67
0
8
0
62
5
6
ByLayer
370
-1
48
1.0
60
0
100
AcDbLine
10
-545.0
20
0.0
30
0.0
11
-535.0
21
0.0
31
0.0
39
0.0
210
0.0
220
0.0
230
1.0
0
LINE
5
138
330
1F
100
AcDbEntity
67
0
8
0
62
5
6
ByLayer
370
-1
48
1.0
60
0
100
AcDbLine
10
-540.0
20
-5.0
30
0.0
11
-540.0
21
5.0
31
0.0
39
0.0
210
0.0
220
0.0
230
1.0
0
LINE
5
13B
330
1F
100
AcDbEntity
67
0
8
0
62
5
6
ByLayer
370
-1
48
1.0
60
0
100
AcDbLine
10
-545.0
20
0.0
30
0.0
11
-535.0
21
0.0
31
0.0
39
0.0
210
0.0
220
0.0
230
1.0
0
LINE
5
13C
330
1F
100
AcDbEntity
67
0
8
0
62
5
6
ByLayer
370
-1
48
1.0
60
0
100
AcDbLine
10
-540.0
20
-5.0
30
0.0
11
-540.0
21
5.0
31
0.0
39
0.0
210
0.0
220
0.0
230
1.0
0
LINE
5
13F
330
1F
100
AcDbEntity
67
0
8
0
62
5
6
ByLayer
370
-1
48
1.0
60
0
100
AcDbLine
10
-545.0
20
0.0
30
0.0
11
-535.0
21
0.0
31
0.0
39
0.0
210
0.0
220
0.0
230
1.0
0
LINE
5
140
330
1F
100
AcDbEntity
67
0
8
0
62
5
6
ByLayer
370
-1
48
1.0
60
0
100
AcDbLine
10
-540.0
20
-5.0
30
0.0
11
-540.0
21
5.0
31
0.0
39
0.0
210
0.0
220
0.0
230
1.0
0
LINE
5
143
330
1F
100
AcDbEntity
67
0
8
0
62
5
6
ByLayer
370
-1
48
1.0
60
0
100
AcDbLine
10
-545.0
20
0.0
30
0.0
11
-535.0
21
0.0
31
0.0
39
0.0
210
0.0
220
0.0
230
1.0
0
LINE
5
144
330
1F
100
AcDbEntity
67
0
8
0
62
5
6
ByLayer
370
-1
48
1.0
60
0
100
AcDbLine
10
-540.0
20
-5.0
30
0.0
11
-540.0
21
5.0
31
0.0
39
0.0
210
0.0
220
0.0
230
1.0
0
LINE
5
147
330
1F
100
AcDbEntity
67
0
8
0
62
5
6
ByLayer
370
-1
48
1.0
60
0
100
AcDbLine
10
-545.0
20
0.0
30
0.0
11
-535.0
21
0.0
31
0.0
39
0.0
210
0.0
220
0.0
230
1.0
0
LINE
5
148
330
1F
100
AcDbEntity
67
0
8
0
62
5
6
ByLayer
370
-1
48
1.0
60
0
100
AcDbLine
10
-540.0
20
-5.0
30
0.0
11
-540.0
21
5.0
31
0.0
39
0.0
210
0.0
220
0.0
230
1.0
0
LINE
5
14B
330
1F
100
AcDbEntity
67
0
8
0
62
5
6
ByLayer
370
-1
48
1.0
60
0
100
AcDbLine
10
-545.0
20
0.0
30
0.0
11
-535.0
21
0.0
31
0.0
39
0.0
210
0.0
220
0.0
230
1.0
0
LINE
5
14C
330
1F
100
AcDbEntity
67
0
8
0
62
5
6
ByLayer
370
-1
48
1.0
60
0
100
AcDbLine
10
-540.0
20
-5.0
30
0.0
11
-540.0
21
5.0
31
0.0
39
0.0
210
0.0
220
0.0
230
1.0
0
LINE
5
14F
330
1F
100
AcDbEntity
67
0
8
0
62
5
6
ByLayer
370
-1
48
1.0
60
0
100
AcDbLine
10
-545.0
20
0.0
30
0.0
11
-535.0
21
0.0
31
0.0
39
0.0
210
0.0
220
0.0
230
1.0
0
LINE
5
150
330
1F
100
AcDbEntity
67
0
8
0
62
5
6
ByLayer
370
-1
48
1.0
60
0
100
AcDbLine
10
-540.0
20
-5.0
30
0.0
11
-540.0
21
5.0
31
0.0
39
0.0
210
0.0
220
0.0
230
1.0
0
LINE
5
153
330
1F
100
AcDbEntity
67
0
8
0
62
5
6
ByLayer
370
-1
48
1.0
60
0
100
AcDbLine
10
-545.0
20
0.0
30
0.0
11
-535.0
21
0.0
31
0.0
39
0.0
210
0.0
220
0.0
230
1.0
0
LINE
5
154
330
1F
100
AcDbEntity
67
0
8
0
62
5
6
ByLayer
370
-1
48
1.0
60
0
100
AcDbLine
10
-540.0
20
-5.0
30
0.0
11
-540.0
21
5.0
31
0.0
39
0.0
210
0.0
220
0.0
230
1.0
0
LINE
5
157
330
1F
100
AcDbEntity
67
0
8
0
62
5
6
ByLayer
370
-1
48
1.0
60
0
100
AcDbLine
10
-545.0
20
0.0
30
0.0
11
-535.0
21
0.0
31
0.0
39
0.0
210
0.0
220
0.0
230
1.0
0
LINE
5
158
330
1F
100
AcDbEntity
67
0
8
0
62
5
6
ByLayer
370
-1
48
1.0
60
0
100
AcDbLine
10
-540.0
20
-5.0
30
0.0
11
-540.0
21
5.0
31
0.0
39
0.0
210
0.0
220
0.0
230
1.0
0
LINE
5
15B
330
1F
100
AcDbEntity
67
0
8
0
62
5
6
ByLayer
370
-1
48
1.0
60
0
100
AcDbLine
10
-545.0
20
0.0
30
0.0
11
-535.0
21
0.0
31
0.0
39
0.0
210
0.0
220
0.0
230
1.0
0
LINE
5
15C
330
1F
100
AcDbEntity
67
0
8
0
62
5
6
ByLayer
370
-1
48
1.0
60
0
100
AcDbLine
10
-540.0
20
-5.0
30
0.0
11
-540.0
21
5.0
31
0.0
39
0.0
210
0.0
220
0.0
230
1.0
0
LINE
5
15F
330
1F
100
AcDbEntity
67
0
8
0
62
5
6
ByLayer
370
-1
48
1.0
60
0
100
AcDbLine
10
-545.0
20
0.0
30
0.0
11
-535.0
21
0.0
31
0.0
39
0.0
210
0.0
220
0.0
230
1.0
0
LINE
5
160
330
1F
100
AcDbEntity
67
0
8
0
62
5
6
ByLayer
370
-1
48
1.0
60
0
100
AcDbLine
10
-540.0
20
-5.0
30
0.0
11
-540.0
21
5.0
31
0.0
39
0.0
210
0.0
220
0.0
230
1.0
0
LINE
5
163
330
1F
100
AcDbEntity
67
0
8
0
62
5
6
ByLayer
370
-1
48
1.0
60
0
100
AcDbLine
10
-545.0
20
0.0
30
0.0
11
-535.0
21
0.0
31
0.0
39
0.0
210
0.0
220
0.0
230
1.0
0
LINE
5
164
330
1F
100
AcDbEntity
67
0
8
0
62
5
6
ByLayer
370
-1
48
1.0
60
0
100
AcDbLine
10
-540.0
20
-5.0
30
0.0
11
-540.0
21
5.0
31
0.0
39
0.0
210
0.0
220
0.0
230
1.0
0
LINE
5
167
330
1F
100
AcDbEntity
67
0
8
0
62
5
6
ByLayer
370
-1
48
1.0
60
0
100
AcDbLine
10
-545.0
20
0.0
30
0.0
11
-535.0
21
0.0
31
0.0
39
0.0
210
0.0
220
0.0
230
1.0
0
LINE
5
168
330
1F
100
AcDbEntity
67
0
8
0
62
5
6
ByLayer
370
-1
48
1.0
60
0
100
AcDbLine
10
-540.0
20
-5.0
30
0.0
11
-540.0
21
5.0
31
0.0
39
0.0
210
0.0
220
0.0
230
1.0
0
LINE
5
16B
330
1F
100
AcDbEntity
67
0
8
0
62
5
6
ByLayer
370
-1
48
1.0
60
0
100
AcDbLine
10
-545.0
20
0.0
30
0.0
11
-535.0
21
0.0
31
0.0
39
0.0
210
0.0
220
0.0
230
1.0
0
LINE
5
16C
330
1F
100
AcDbEntity
67
0
8
0
62
5
6
ByLayer
370
-1
48
1.0
60
0
100
AcDbLine
10
-540.0
20
-5.0
30
0.0
11
-540.0
21
5.0
31
0.0
39
0.0
210
0.0
220
0.0
230
1.0
0
LINE
5
16F
330
1F
100
AcDbEntity
67
0
8
0
62
5
6
ByLayer
370
-1
48
1.0
60
0
100
AcDbLine
10
-545.0
20
0.0
30
0.0
11
-535.0
21
0.0
31
0.0
39
0.0
210
0.0
220
0.0
230
1.0
0
LINE
5
170
330
1F
100
AcDbEntity
67
0
8
0
62
5
6
ByLayer
370
-1
48
1.0
60
0
100
AcDbLine
10
-540.0
20
-5.0
30
0.0
11
-540.0
21
5.0
31
0.0
39
0.0
210
0.0
220
0.0
230
1.0
0
LINE
5
173
330
1F
100
AcDbEntity
67
0
8
0
62
5
6
ByLayer
370
-1
48
1.0
60
0
100
AcDbLine
10
-545.0
20
0.0
30
0.0
11
-535.0
21
0.0
31
0.0
39
0.0
210
0.0
220
0.0
230
1.0
0
LINE
5
174
330
1F
100
AcDbEntity
67
0
8
0
62
5
6
ByLayer
370
-1
48
1.0
60
0
100
AcDbLine
10
-540.0
20
-5.0
30
0.0
11
-540.0
21
5.0
31
0.0
39
0.0
210
0.0
220
0.0
230
1.0
0
LINE
5
177
330
1F
100
AcDbEntity
67
0
8
0
62
5
6
ByLayer
370
-1
48
1.0
60
0
100
AcDbLine
10
-545.0
20
0.0
30
0.0
11
-535.0
21
0.0
31
0.0
39
0.0
210
0.0
220
0.0
230
1.0
0
LINE
5
178
330
1F
100
AcDbEntity
67
0
8
0
62
5
6
ByLayer
370
-1
48
1.0
60
0
100
AcDbLine
10
-540.0
20
-5.0
30
0.0
11
-540.0
21
5.0
31
0.0
39
0.0
210
0.0
220
0.0
230
1.0
0
LINE
5
17B
330
1F
100
AcDbEntity
67
0
8
0
62
5
6
ByLayer
370
-1
48
1.0
60
0
100
AcDbLine
10
-545.0
20
0.0
30
0.0
11
-535.0
21
0.0
31
0.0
39
0.0
210
0.0
220
0.0
230
1.0
0
LINE
5
17C
330
1F
100
AcDbEntity
67
0
8
0
62
5
6
ByLayer
370
-1
48
1.0
60
0
100
AcDbLine
10
-540.0
20
-5.0
30
0.0
11
-540.0
21
5.0
31
0.0
39
0.0
210
0.0
220
0.0
230
1.0
0
LINE
5
17F
330
1F
100
AcDbEntity
67
0
8
0
62
5
6
ByLayer
370
-1
48
1.0
60
0
100
AcDbLine
10
-545.0
20
0.0
30
0.0
11
-535.0
21
0.0
31
0.0
39
0.0
210
0.0
220
0.0
230
1.0
0
LINE
5
180
330
1F
100
AcDbEntity
67
0
8
0
62
5
6
ByLayer
370
-1
48
1.0
60
0
100
AcDbLine
10
-540.0
20
-5.0
30
0.0
11
-540.0
21
5.0
31
0.0
39
0.0
210
0.0
220
0.0
230
1.0
0
LINE
5
183
330
1F
100
AcDbEntity
67
0
8
0
62
5
6
ByLayer
370
-1
48
1.0
60
0
100
AcDbLine
10
-545.0
20
0.0
30
0.0
11
-535.0
21
0.0
31
0.0
39
0.0
210
0.0
220
0.0
230
1.0
0
LINE
5
184
330
1F
100
AcDbEntity
67
0
8
0
62
5
6
ByLayer
370
-1
48
1.0
60
0
100
AcDbLine
10
-540.0
20
-5.0
30
0.0
11
-540.0
21
5.0
31
0.0
39
0.0
210
0.0
220
0.0
230
1.0
0
LINE
5
187
330
1F
100
AcDbEntity
67
0
8
0
62
5
6
ByLayer
370
-1
48
1.0
60
0
100
AcDbLine
10
-545.0
20
0.0
30
0.0
11
-535.0
21
0.0
31
0.0
39
0.0
210
0.0
220
0.0
230
1.0
0
LINE
5
188
330
1F
100
AcDbEntity
67
0
8
0
62
5
6
ByLayer
370
-1
48
1.0
60
0
100
AcDbLine
10
-540.0
20
-5.0
30
0.0
11
-540.0
21
5.0
31
0.0
39
0.0
210
0.0
220
0.0
230
1.0
0
LINE
5
18B
330
1F
100
AcDbEntity
67
0
8
0
62
5
6
ByLayer
370
-1
48
1.0
60
0
100
AcDbLine
10
-545.0
20
0.0
30
0.0
11
-535.0
21
0.0
31
0.0
39
0.0
210
0.0
220
0.0
230
1.0
0
LINE
5
18C
330
1F
100
AcDbEntity
67
0
8
0
62
5
6
ByLayer
370
-1
48
1.0
60
0
100
AcDbLine
10
-540.0
20
-5.0
30
0.0
11
-540.0
21
5.0
31
0.0
39
0.0
210
0.0
220
0.0
230
1.0
0
LINE
5
18F
330
1F
100
AcDbEntity
67
0
8
0
62
5
6
ByLayer
370
-1
48
1.0
60
0
100
AcDbLine
10
-545.0
20
0.0
30
0.0
11
-535.0
21
0.0
31
0.0
39
0.0
210
0.0
220
0.0
230
1.0
0
LINE
5
190
330
1F
100
AcDbEntity
67
0
8
0
62
5
6
ByLayer
370
-1
48
1.0
60
0
100
AcDbLine
10
-540.0
20
-5.0
30
0.0
11
-540.0
21
5.0
31
0.0
39
0.0
210
0.0
220
0.0
230
1.0
0
LINE
5
193
330
1F
100
AcDbEntity
67
0
8
0
62
5
6
ByLayer
370
-1
48
1.0
60
0
100
AcDbLine
10
-545.0
20
0.0
30
0.0
11
-535.0
21
0.0
31
0.0
39
0.0
210
0.0
220
0.0
230
1.0
0
LINE
5
194
330
1F
100
AcDbEntity
67
0
8
0
62
5
6
ByLayer
370
-1
48
1.0
60
0
100
AcDbLine
10
-540.0
20
-5.0
30
0.0
11
-540.0
21
5.0
31
0.0
39
0.0
210
0.0
220
0.0
230
1.0
0
LINE
5
197
330
1F
100
AcDbEntity
67
0
8
0
62
5
6
ByLayer
370
-1
48
1.0
60
0
100
AcDbLine
10
-545.0
20
0.0
30
0.0
11
-535.0
21
0.0
31
0.0
39
0.0
210
0.0
220
0.0
230
1.0
0
LINE
5
198
330
1F
100
AcDbEntity
67
0
8
0
62
5
6
ByLayer
370
-1
48
1.0
60
0
100
AcDbLine
10
-540.0
20
-5.0
30
0.0
11
-540.0
21
5.0
31
0.0
39
0.0
210
0.0
220
0.0
230
1.0
0
LINE
5
19B
330
1F
100
AcDbEntity
67
0
8
0
62
5
6
ByLayer
370
-1
48
1.0
60
0
100
AcDbLine
10
-545.0
20
0.0
30
0.0
11
-535.0
21
0.0
31
0.0
39
0.0
210
0.0
220
0.0
230
1.0
0
LINE
5
19C
330
1F
100
AcDbEntity
67
0
8
0
62
5
6
ByLayer
370
-1
48
1.0
60
0
100
AcDbLine
10
-540.0
20
-5.0
30
0.0
11
-540.0
21
5.0
31
0.0
39
0.0
210
0.0
220
0.0
230
1.0
0
LINE
5
19F
330
1F
100
AcDbEntity
67
0
8
0
62
5
6
ByLayer
370
-1
48
1.0
60
0
100
AcDbLine
10
-545.0
20
0.0
30
0.0
11
-535.0
21
0.0
31
0.0
39
0.0
210
0.0
220
0.0
230
1.0
0
LINE
5
1A0
330
1F
100
AcDbEntity
67
0
8
0
62
5
6
ByLayer
370
-1
48
1.0
60
0
100
AcDbLine
10
-540.0
20
-5.0
30
0.0
11
-540.0
21
5.0
31
0.0
39
0.0
210
0.0
220
0.0
230
1.0
0
LINE
5
1A3
330
1F
100
AcDbEntity
67
0
8
0
62
5
6
ByLayer
370
-1
48
1.0
60
0
100
AcDbLine
10
-545.0
20
0.0
30
0.0
11
-535.0
21
0.0
31
0.0
39
0.0
210
0.0
220
0.0
230
1.0
0
LINE
5
1A4
330
1F
100
AcDbEntity
67
0
8
0
62
5
6
ByLayer
370
-1
48
1.0
60
0
100
AcDbLine
10
-540.0
20
-5.0
30
0.0
11
-540.0
21
5.0
31
0.0
39
0.0
210
0.0
220
0.0
230
1.0
0
LINE
5
1A7
330
1F
100
AcDbEntity
67
0
8
0
62
5
6
ByLayer
370
-1
48
1.0
60
0
100
AcDbLine
10
-545.0
20
0.0
30
0.0
11
-535.0
21
0.0
31
0.0
39
0.0
210
0.0
220
0.0
230
1.0
0
LINE
5
1A8
330
1F
100
AcDbEntity
67
0
8
0
62
5
6
ByLayer
370
-1
48
1.0
60
0
100
AcDbLine
10
-540.0
20
-5.0
30
0.0
11
-540.0
21
5.0
31
0.0
39
0.0
210
0.0
220
0.0
230
1.0
0
LINE
5
1AB
330
1F
100
AcDbEntity
67
0
8
0
62
5
6
ByLayer
370
-1
48
1.0
60
0
100
AcDbLine
10
-545.0
20
0.0
30
0.0
11
-535.0
21
0.0
31
0.0
39
0.0
210
0.0
220
0.0
230
1.0
0
LINE
5
1AC
330
1F
100
AcDbEntity
67
0
8
0
62
5
6
ByLayer
370
-1
48
1.0
60
0
100
AcDbLine
10
-540.0
20
-5.0
30
0.0
11
-540.0
21
5.0
31
0.0
39
0.0
210
0.0
220
0.0
230
1.0
0
LINE
5
1AF
330
1F
100
AcDbEntity
67
0
8
0
62
5
6
ByLayer
370
-1
48
1.0
60
0
100
AcDbLine
10
-545.0
20
0.0
30
0.0
11
-535.0
21
0.0
31
0.0
39
0.0
210
0.0
220
0.0
230
1.0
0
LINE
5
1B0
330
1F
100
AcDbEntity
67
0
8
0
62
5
6
ByLayer
370
-1
48
1.0
60
0
100
AcDbLine
10
-540.0
20
-5.0
30
0.0
11
-540.0
21
5.0
31
0.0
39
0.0
210
0.0
220
0.0
230
1.0
0
LINE
5
1B3
330
1F
100
AcDbEntity
67
0
8
0
62
5
6
ByLayer
370
-1
48
1.0
60
0
100
AcDbLine
10
-545.0
20
0.0
30
0.0
11
-535.0
21
0.0
31
0.0
39
0.0
210
0.0
220
0.0
230
1.0
0
LINE
5
1B4
330
1F
100
AcDbEntity
67
0
8
0
62
5
6
ByLayer
370
-1
48
1.0
60
0
100
AcDbLine
10
-540.0
20
-5.0
30
0.0
11
-540.0
21
5.0
31
0.0
39
0.0
210
0.0
220
0.0
230
1.0
0
LINE
5
1B7
330
1F
100
AcDbEntity
67
0
8
0
62
5
6
ByLayer
370
-1
48
1.0
60
0
100
AcDbLine
10
-545.0
20
0.0
30
0.0
11
-535.0
21
0.0
31
0.0
39
0.0
210
0.0
220
0.0
230
1.0
0
LINE
5
1B8
330
1F
100
AcDbEntity
67
0
8
0
62
5
6
ByLayer
370
-1
48
1.0
60
0
100
AcDbLine
10
-540.0
20
-5.0
30
0.0
11
-540.0
21
5.0
31
0.0
39
0.0
210
0.0
220
0.0
230
1.0
0
LINE
5
1BB
330
1F
100
AcDbEntity
67
0
8
0
62
5
6
ByLayer
370
-1
48
1.0
60
0
100
AcDbLine
10
-545.0
20
0.0
30
0.0
11
-535.0
21
0.0
31
0.0
39
0.0
210
0.0
220
0.0
230
1.0
0
LINE
5
1BC
330
1F
100
AcDbEntity
67
0
8
0
62
5
6
ByLayer
370
-1
48
1.0
60
0
100
AcDbLine
10
-540.0
20
-5.0
30
0.0
11
-540.0
21
5.0
31
0.0
39
0.0
210
0.0
220
0.0
230
1.0
0
LINE
5
1BF
330
1F
100
AcDbEntity
67
0
8
0
62
5
6
ByLayer
370
-1
48
1.0
60
0
100
AcDbLine
10
-545.0
20
0.0
30
0.0
11
-535.0
21
0.0
31
0.0
39
0.0
210
0.0
220
0.0
230
1.0
0
LINE
5
1C0
330
1F
100
AcDbEntity
67
0
8
0
62
5
6
ByLayer
370
-1
48
1.0
60
0
100
AcDbLine
10
-540.0
20
-5.0
30
0.0
11
-540.0
21
5.0
31
0.0
39
0.0
210
0.0
220
0.0
230
1.0
0
LINE
5
1C3
330
1F
100
AcDbEntity
67
0
8
0
62
5
6
ByLayer
370
-1
48
1.0
60
0
100
AcDbLine
10
-545.0
20
0.0
30
0.0
11
-535.0
21
0.0
31
0.0
39
0.0
210
0.0
220
0.0
230
1.0
0
LINE
5
1C4
330
1F
100
AcDbEntity
67
0
8
0
62
5
6
ByLayer
370
-1
48
1.0
60
0
100
AcDbLine
10
-540.0
20
-5.0
30
0.0
11
-540.0
21
5.0
31
0.0
39
0.0
210
0.0
220
0.0
230
1.0
0
LINE
5
1C7
330
1F
100
AcDbEntity
67
0
8
0
62
5
6
ByLayer
370
-1
48
1.0
60
0
100
AcDbLine
10
-545.0
20
0.0
30
0.0
11
-535.0
21
0.0
31
0.0
39
0.0
210
0.0
220
0.0
230
1.0
0
LINE
5
1C8
330
1F
100
AcDbEntity
67
0
8
0
62
5
6
ByLayer
370
-1
48
1.0
60
0
100
AcDbLine
10
-540.0
20
-5.0
30
0.0
11
-540.0
21
5.0
31
0.0
39
0.0
210
0.0
220
0.0
230
1.0
0
LINE
5
1CB
330
1F
100
AcDbEntity
67
0
8
0
62
5
6
ByLayer
370
-1
48
1.0
60
0
100
AcDbLine
10
-545.0
20
0.0
30
0.0
11
-535.0
21
0.0
31
0.0
39
0.0
210
0.0
220
0.0
230
1.0
0
LINE
5
1CC
330
1F
100
AcDbEntity
67
0
8
0
62
5
6
ByLayer
370
-1
48
1.0
60
0
100
AcDbLine
10
-540.0
20
-5.0
30
0.0
11
-540.0
21
5.0
31
0.0
39
0.0
210
0.0
220
0.0
230
1.0
0
LINE
5
1CF
330
1F
100
AcDbEntity
67
0
8
0
62
5
6
ByLayer
370
-1
48
1.0
60
0
100
AcDbLine
10
-545.0
20
0.0
30
0.0
11
-535.0
21
0.0
31
0.0
39
0.0
210
0.0
220
0.0
230
1.0
0
LINE
5
1D0
330
1F
100
AcDbEntity
67
0
8
0
62
5
6
ByLayer
370
-1
48
1.0
60
0
100
AcDbLine
10
-540.0
20
-5.0
30
0.0
11
-540.0
21
5.0
31
0.0
39
0.0
210
0.0
220
0.0
230
1.0
0
LINE
5
1D3
330
1F
100
AcDbEntity
67
0
8
0
62
5
6
ByLayer
370
-1
48
1.0
60
0
100
AcDbLine
10
-545.0
20
0.0
30
0.0
11
-535.0
21
0.0
31
0.0
39
0.0
210
0.0
220
0.0
230
1.0
0
LINE
5
1D4
330
1F
100
AcDbEntity
67
0
8
0
62
5
6
ByLayer
370
-1
48
1.0
60
0
100
AcDbLine
10
-540.0
20
-5.0
30
0.0
11
-540.0
21
5.0
31
0.0
39
0.0
210
0.0
220
0.0
230
1.0
0
LINE
5
1D7
330
1F
100
AcDbEntity
67
0
8
0
62
5
6
ByLayer
370
-1
48
1.0
60
0
100
AcDbLine
10
-545.0
20
0.0
30
0.0
11
-535.0
21
0.0
31
0.0
39
0.0
210
0.0
220
0.0
230
1.0
0
LINE
5
1D8
330
1F
100
AcDbEntity
67
0
8
0
62
5
6
ByLayer
370
-1
48
1.0
60
0
100
AcDbLine
10
-540.0
20
-5.0
30
0.0
11
-540.0
21
5.0
31
0.0
39
0.0
210
0.0
220
0.0
230
1.0
0
LINE
5
1DB
330
1F
100
AcDbEntity
67
0
8
0
62
5
6
ByLayer
370
-1
48
1.0
60
0
100
AcDbLine
10
-545.0
20
0.0
30
0.0
11
-535.0
21
0.0
31
0.0
39
0.0
210
0.0
220
0.0
230
1.0
0
LINE
5
1DC
330
1F
100
AcDbEntity
67
0
8
0
62
5
6
ByLayer
370
-1
48
1.0
60
0
100
AcDbLine
10
-540.0
20
-5.0
30
0.0
11
-540.0
21
5.0
31
0.0
39
0.0
210
0.0
220
0.0
230
1.0
0
LINE
5
1DF
330
1F
100
AcDbEntity
67
0
8
0
62
5
6
ByLayer
370
-1
48
1.0
60
0
100
AcDbLine
10
-545.0
20
0.0
30
0.0
11
-535.0
21
0.0
31
0.0
39
0.0
210
0.0
220
0.0
230
1.0
0
LINE
5
1E0
330
1F
100
AcDbEntity
67
0
8
0
62
5
6
ByLayer
370
-1
48
1.0
60
0
100
AcDbLine
10
-540.0
20
-5.0
30
0.0
11
-540.0
21
5.0
31
0.0
39
0.0
210
0.0
220
0.0
230
1.0
0
LINE
5
1E3
330
1F
100
AcDbEntity
67
0
8
0
62
5
6
ByLayer
370
-1
48
1.0
60
0
100
AcDbLine
10
-545.0
20
0.0
30
0.0
11
-535.0
21
0.0
31
0.0
39
0.0
210
0.0
220
0.0
230
1.0
0
LINE
5
1E4
330
1F
100
AcDbEntity
67
0
8
0
62
5
6
ByLayer
370
-1
48
1.0
60
0
100
AcDbLine
10
-540.0
20
-5.0
30
0.0
11
-540.0
21
5.0
31
0.0
39
0.0
210
0.0
220
0.0
230
1.0
0
LINE
5
1E7
330
1F
100
AcDbEntity
67
0
8
0
62
5
6
ByLayer
370
-1
48
1.0
60
0
100
AcDbLine
10
-545.0
20
0.0
30
0.0
11
-535.0
21
0.0
31
0.0
39
0.0
210
0.0
220
0.0
230
1.0
0
LINE
5
1E8
330
1F
100
AcDbEntity
67
0
8
0
62
5
6
ByLayer
370
-1
48
1.0
60
0
100
AcDbLine
10
-540.0
20
-5.0
30
0.0
11
-540.0
21
5.0
31
0.0
39
0.0
210
0.0
220
0.0
230
1.0
0
LINE
5
1EB
330
1F
100
AcDbEntity
67
0
8
0
62
5
6
ByLayer
370
-1
48
1.0
60
0
100
AcDbLine
10
-545.0
20
0.0
30
0.0
11
-535.0
21
0.0
31
0.0
39
0.0
210
0.0
220
0.0
230
1.0
0
LINE
5
1EC
330
1F
100
AcDbEntity
67
0
8
0
62
5
6
ByLayer
370
-1
48
1.0
60
0
100
AcDbLine
10
-540.0
20
-5.0
30
0.0
11
-540.0
21
5.0
31
0.0
39
0.0
210
0.0
220
0.0
230
1.0
0
LINE
5
1EF
330
1F
100
AcDbEntity
67
0
8
0
62
5
6
ByLayer
370
-1
48
1.0
60
0
100
AcDbLine
10
-545.0
20
0.0
30
0.0
11
-535.0
21
0.0
31
0.0
39
0.0
210
0.0
220
0.0
230
1.0
0
LINE
5
1F0
330
1F
100
AcDbEntity
67
0
8
0
62
5
6
ByLayer
370
-1
48
1.0
60
0
100
AcDbLine
10
-540.0
20
-5.0
30
0.0
11
-540.0
21
5.0
31
0.0
39
0.0
210
0.0
220
0.0
230
1.0
0
LINE
5
1F3
330
1F
100
AcDbEntity
67
0
8
0
62
5
6
ByLayer
370
-1
48
1.0
60
0
100
AcDbLine
10
-545.0
20
0.0
30
0.0
11
-535.0
21
0.0
31
0.0
39
0.0
210
0.0
220
0.0
230
1.0
0
LINE
5
1F4
330
1F
100
AcDbEntity
67
0
8
0
62
5
6
ByLayer
370
-1
48
1.0
60
0
100
AcDbLine
10
-540.0
20
-5.0
30
0.0
11
-540.0
21
5.0
31
0.0
39
0.0
210
0.0
220
0.0
230
1.0
0
LINE
5
1F7
330
1F
100
AcDbEntity
67
0
8
0
62
5
6
ByLayer
370
-1
48
1.0
60
0
100
AcDbLine
10
-545.0
20
0.0
30
0.0
11
-535.0
21
0.0
31
0.0
39
0.0
210
0.0
220
0.0
230
1.0
0
LINE
5
1F8
330
1F
100
AcDbEntity
67
0
8
0
62
5
6
ByLayer
370
-1
48
1.0
60
0
100
AcDbLine
10
-540.0
20
-5.0
30
0.0
11
-540.0
21
5.0
31
0.0
39
0.0
210
0.0
220
0.0
230
1.0
0
LINE
5
1FB
330
1F
100
AcDbEntity
67
0
8
0
62
5
6
ByLayer
370
-1
48
1.0
60
0
100
AcDbLine
10
-545.0
20
0.0
30
0.0
11
-535.0
21
0.0
31
0.0
39
0.0
210
0.0
220
0.0
230
1.0
0
LINE
5
1FC
330
1F
100
AcDbEntity
67
0
8
0
62
5
6
ByLayer
370
-1
48
1.0
60
0
100
AcDbLine
10
-540.0
20
-5.0
30
0.0
11
-540.0
21
5.0
31
0.0
39
0.0
210
0.0
220
0.0
230
1.0
0
LINE
5
1FF
330
1F
100
AcDbEntity
67
0
8
0
62
5
6
ByLayer
370
-1
48
1.0
60
0
100
AcDbLine
10
-545.0
20
0.0
30
0.0
11
-535.0
21
0.0
31
0.0
39
0.0
210
0.0
220
0.0
230
1.0
0
LINE
5
200
330
1F
100
AcDbEntity
67
0
8
0
62
5
6
ByLayer
370
-1
48
1.0
60
0
100
AcDbLine
10
-540.0
20
-5.0
30
0.0
11
-540.0
21
5.0
31
0.0
39
0.0
210
0.0
220
0.0
230
1.0
0
LINE
5
203
330
1F
100
AcDbEntity
67
0
8
0
62
5
6
ByLayer
370
-1
48
1.0
60
0
100
AcDbLine
10
-545.0
20
0.0
30
0.0
11
-535.0
21
0.0
31
0.0
39
0.0
210
0.0
220
0.0
230
1.0
0
LINE
5
204
330
1F
100
AcDbEntity
67
0
8
0
62
5
6
ByLayer
370
-1
48
1.0
60
0
100
AcDbLine
10
-540.0
20
-5.0
30
0.0
11
-540.0
21
5.0
31
0.0
39
0.0
210
0.0
220
0.0
230
1.0
0
LINE
5
207
330
1F
100
AcDbEntity
67
0
8
0
62
5
6
ByLayer
370
-1
48
1.0
60
0
100
AcDbLine
10
-545.0
20
0.0
30
0.0
11
-535.0
21
0.0
31
0.0
39
0.0
210
0.0
220
0.0
230
1.0
0
LINE
5
208
330
1F
100
AcDbEntity
67
0
8
0
62
5
6
ByLayer
370
-1
48
1.0
60
0
100
AcDbLine
10
-540.0
20
-5.0
30
0.0
11
-540.0
21
5.0
31
0.0
39
0.0
210
0.0
220
0.0
230
1.0
0
LINE
5
20B
330
1F
100
AcDbEntity
67
0
8
0
62
5
6
ByLayer
370
-1
48
1.0
60
0
100
AcDbLine
10
-545.0
20
0.0
30
0.0
11
-535.0
21
0.0
31
0.0
39
0.0
210
0.0
220
0.0
230
1.0
0
LINE
5
20C
330
1F
100
AcDbEntity
67
0
8
0
62
5
6
ByLayer
370
-1
48
1.0
60
0
100
AcDbLine
10
-540.0
20
-5.0
30
0.0
11
-540.0
21
5.0
31
0.0
39
0.0
210
0.0
220
0.0
230
1.0
0
LINE
5
20F
330
1F
100
AcDbEntity
67
0
8
0
62
5
6
ByLayer
370
-1
48
1.0
60
0
100
AcDbLine
10
-545.0
20
0.0
30
0.0
11
-535.0
21
0.0
31
0.0
39
0.0
210
0.0
220
0.0
230
1.0
0
LINE
5
210
330
1F
100
AcDbEntity
67
0
8
0
62
5
6
ByLayer
370
-1
48
1.0
60
0
100
AcDbLine
10
-540.0
20
-5.0
30
0.0
11
-540.0
21
5.0
31
0.0
39
0.0
210
0.0
220
0.0
230
1.0
0
LINE
5
213
330
1F
100
AcDbEntity
67
0
8
0
62
5
6
ByLayer
370
-1
48
1.0
60
0
100
AcDbLine
10
-545.0
20
0.0
30
0.0
11
-535.0
21
0.0
31
0.0
39
0.0
210
0.0
220
0.0
230
1.0
0
LINE
5
214
330
1F
100
AcDbEntity
67
0
8
0
62
5
6
ByLayer
370
-1
48
1.0
60
0
100
AcDbLine
10
-540.0
20
-5.0
30
0.0
11
-540.0
21
5.0
31
0.0
39
0.0
210
0.0
220
0.0
230
1.0
0
LINE
5
217
330
1F
100
AcDbEntity
67
0
8
0
62
5
6
ByLayer
370
-1
48
1.0
60
0
100
AcDbLine
10
-545.0
20
0.0
30
0.0
11
-535.0
21
0.0
31
0.0
39
0.0
210
0.0
220
0.0
230
1.0
0
LINE
5
218
330
1F
100
AcDbEntity
67
0
8
0
62
5
6
ByLayer
370
-1
48
1.0
60
0
100
AcDbLine
10
-540.0
20
-5.0
30
0.0
11
-540.0
21
5.0
31
0.0
39
0.0
210
0.0
220
0.0
230
1.0
0
LINE
5
21B
330
1F
100
AcDbEntity
67
0
8
0
62
5
6
ByLayer
370
-1
48
1.0
60
0
100
AcDbLine
10
-545.0
20
0.0
30
0.0
11
-535.0
21
0.0
31
0.0
39
0.0
210
0.0
220
0.0
230
1.0
0
LINE
5
21C
330
1F
100
AcDbEntity
67
0
8
0
62
5
6
ByLayer
370
-1
48
1.0
60
0
100
AcDbLine
10
-540.0
20
-5.0
30
0.0
11
-540.0
21
5.0
31
0.0
39
0.0
210
0.0
220
0.0
230
1.0
0
LINE
5
21F
330
1F
100
AcDbEntity
67
0
8
0
62
5
6
ByLayer
370
-1
48
1.0
60
0
100
AcDbLine
10
-545.0
20
0.0
30
0.0
11
-535.0
21
0.0
31
0.0
39
0.0
210
0.0
220
0.0
230
1.0
0
LINE
5
220
330
1F
100
AcDbEntity
67
0
8
0
62
5
6
ByLayer
370
-1
48
1.0
60
0
100
AcDbLine
10
-540.0
20
-5.0
30
0.0
11
-540.0
21
5.0
31
0.0
39
0.0
210
0.0
220
0.0
230
1.0
0
LINE
5
223
330
1F
100
AcDbEntity
67
0
8
0
62
5
6
ByLayer
370
-1
48
1.0
60
0
100
AcDbLine
10
-545.0
20
0.0
30
0.0
11
-535.0
21
0.0
31
0.0
39
0.0
210
0.0
220
0.0
230
1.0
0
LINE
5
224
330
1F
100
AcDbEntity
67
0
8
0
62
5
6
ByLayer
370
-1
48
1.0
60
0
100
AcDbLine
10
-540.0
20
-5.0
30
0.0
11
-540.0
21
5.0
31
0.0
39
0.0
210
0.0
220
0.0
230
1.0
0
LINE
5
227
330
1F
100
AcDbEntity
67
0
8
0
62
5
6
ByLayer
370
-1
48
1.0
60
0
100
AcDbLine
10
-545.0
20
0.0
30
0.0
11
-535.0
21
0.0
31
0.0
39
0.0
210
0.0
220
0.0
230
1.0
0
LINE
5
228
330
1F
100
AcDbEntity
67
0
8
0
62
5
6
ByLayer
370
-1
48
1.0
60
0
100
AcDbLine
10
-540.0
20
-5.0
30
0.0
11
-540.0
21
5.0
31
0.0
39
0.0
210
0.0
220
0.0
230
1.0
0
LINE
5
22B
330
1F
100
AcDbEntity
67
0
8
0
62
5
6
ByLayer
370
-1
48
1.0
60
0
100
AcDbLine
10
-545.0
20
0.0
30
0.0
11
-535.0
21
0.0
31
0.0
39
0.0
210
0.0
220
0.0
230
1.0
0
LINE
5
22C
330
1F
100
AcDbEntity
67
0
8
0
62
5
6
ByLayer
370
-1
48
1.0
60
0
100
AcDbLine
10
-540.0
20
-5.0
30
0.0
11
-540.0
21
5.0
31
0.0
39
0.0
210
0.0
220
0.0
230
1.0
0
LINE
5
22F
330
1F
100
AcDbEntity
67
0
8
0
62
5
6
ByLayer
370
-1
48
1.0
60
0
100
AcDbLine
10
-545.0
20
0.0
30
0.0
11
-535.0
21
0.0
31
0.0
39
0.0
210
0.0
220
0.0
230
1.0
0
LINE
5
230
330
1F
100
AcDbEntity
67
0
8
0
62
5
6
ByLayer
370
-1
48
1.0
60
0
100
AcDbLine
10
-540.0
20
-5.0
30
0.0
11
-540.0
21
5.0
31
0.0
39
0.0
210
0.0
220
0.0
230
1.0
0
LINE
5
233
330
1F
100
AcDbEntity
67
0
8
0
62
5
6
ByLayer
370
-1
48
1.0
60
0
100
AcDbLine
10
-545.0
20
0.0
30
0.0
11
-535.0
21
0.0
31
0.0
39
0.0
210
0.0
220
0.0
230
1.0
0
LINE
5
234
330
1F
100
AcDbEntity
67
0
8
0
62
5
6
ByLayer
370
-1
48
1.0
60
0
100
AcDbLine
10
-540.0
20
-5.0
30
0.0
11
-540.0
21
5.0
31
0.0
39
0.0
210
0.0
220
0.0
230
1.0
0
LINE
5
237
330
1F
100
AcDbEntity
67
0
8
0
62
5
6
ByLayer
370
-1
48
1.0
60
0
100
AcDbLine
10
-545.0
20
0.0
30
0.0
11
-535.0
21
0.0
31
0.0
39
0.0
210
0.0
220
0.0
230
1.0
0
LINE
5
238
330
1F
100
AcDbEntity
67
0
8
0
62
5
6
ByLayer
370
-1
48
1.0
60
0
100
AcDbLine
10
-540.0
20
-5.0
30
0.0
11
-540.0
21
5.0
31
0.0
39
0.0
210
0.0
220
0.0
230
1.0
0
LINE
5
23B
330
1F
100
AcDbEntity
67
0
8
0
62
5
6
ByLayer
370
-1
48
1.0
60
0
100
AcDbLine
10
-545.0
20
0.0
30
0.0
11
-535.0
21
0.0
31
0.0
39
0.0
210
0.0
220
0.0
230
1.0
0
LINE
5
23C
330
1F
100
AcDbEntity
67
0
8
0
62
5
6
ByLayer
370
-1
48
1.0
60
0
100
AcDbLine
10
-540.0
20
-5.0
30
0.0
11
-540.0
21
5.0
31
0.0
39
0.0
210
0.0
220
0.0
230
1.0
0
LINE
5
23F
330
1F
100
AcDbEntity
67
0
8
0
62
5
6
ByLayer
370
-1
48
1.0
60
0
100
AcDbLine
10
-545.0
20
0.0
30
0.0
11
-535.0
21
0.0
31
0.0
39
0.0
210
0.0
220
0.0
230
1.0
0
LINE
5
240
330
1F
100
AcDbEntity
67
0
8
0
62
5
6
ByLayer
370
-1
48
1.0
60
0
100
AcDbLine
10
-540.0
20
-5.0
30
0.0
11
-540.0
21
5.0
31
0.0
39
0.0
210
0.0
220
0.0
230
1.0
0
LINE
5
243
330
1F
100
AcDbEntity
67
0
8
0
62
5
6
ByLayer
370
-1
48
1.0
60
0
100
AcDbLine
10
-545.0
20
0.0
30
0.0
11
-535.0
21
0.0
31
0.0
39
0.0
210
0.0
220
0.0
230
1.0
0
LINE
5
244
330
1F
100
AcDbEntity
67
0
8
0
62
5
6
ByLayer
370
-1
48
1.0
60
0
100
AcDbLine
10
-540.0
20
-5.0
30
0.0
11
-540.0
21
5.0
31
0.0
39
0.0
210
0.0
220
0.0
230
1.0
0
LINE
5
247
330
1F
100
AcDbEntity
67
0
8
0
62
5
6
ByLayer
370
-1
48
1.0
60
0
100
AcDbLine
10
-545.0
20
0.0
30
0.0
11
-535.0
21
0.0
31
0.0
39
0.0
210
0.0
220
0.0
230
1.0
0
LINE
5
248
330
1F
100
AcDbEntity
67
0
8
0
62
5
6
ByLayer
370
-1
48
1.0
60
0
100
AcDbLine
10
-540.0
20
-5.0
30
0.0
11
-540.0
21
5.0
31
0.0
39
0.0
210
0.0
220
0.0
230
1.0
0
LINE
5
24B
330
1F
100
AcDbEntity
67
0
8
0
62
5
6
ByLayer
370
-1
48
1.0
60
0
100
AcDbLine
10
-545.0
20
0.0
30
0.0
11
-535.0
21
0.0
31
0.0
39
0.0
210
0.0
220
0.0
230
1.0
0
LINE
5
24C
330
1F
100
AcDbEntity
67
0
8
0
62
5
6
ByLayer
370
-1
48
1.0
60
0
100
AcDbLine
10
-540.0
20
-5.0
30
0.0
11
-540.0
21
5.0
31
0.0
39
0.0
210
0.0
220
0.0
230
1.0
0
LINE
5
24F
330
1F
100
AcDbEntity
67
0
8
0
62
5
6
ByLayer
370
-1
48
1.0
60
0
100
AcDbLine
10
-545.0
20
0.0
30
0.0
11
-535.0
21
0.0
31
0.0
39
0.0
210
0.0
220
0.0
230
1.0
0
LINE
5
250
330
1F
100
AcDbEntity
67
0
8
0
62
5
6
ByLayer
370
-1
48
1.0
60
0
100
AcDbLine
10
-540.0
20
-5.0
30
0.0
11
-540.0
21
5.0
31
0.0
39
0.0
210
0.0
220
0.0
230
1.0
0
LINE
5
253
330
1F
100
AcDbEntity
67
0
8
0
62
5
6
ByLayer
370
-1
48
1.0
60
0
100
AcDbLine
10
-545.0
20
0.0
30
0.0
11
-535.0
21
0.0
31
0.0
39
0.0
210
0.0
220
0.0
230
1.0
0
LINE
5
254
330
1F
100
AcDbEntity
67
0
8
0
62
5
6
ByLayer
370
-1
48
1.0
60
0
100
AcDbLine
10
-540.0
20
-5.0
30
0.0
11
-540.0
21
5.0
31
0.0
39
0.0
210
0.0
220
0.0
230
1.0
0
LINE
5
257
330
1F
100
AcDbEntity
67
0
8
0
62
5
6
ByLayer
370
-1
48
1.0
60
0
100
AcDbLine
10
-545.0
20
0.0
30
0.0
11
-535.0
21
0.0
31
0.0
39
0.0
210
0.0
220
0.0
230
1.0
0
LINE
5
258
330
1F
100
AcDbEntity
67
0
8
0
62
5
6
ByLayer
370
-1
48
1.0
60
0
100
AcDbLine
10
-540.0
20
-5.0
30
0.0
11
-540.0
21
5.0
31
0.0
39
0.0
210
0.0
220
0.0
230
1.0
0
LINE
5
25B
330
1F
100
AcDbEntity
67
0
8
0
62
5
6
ByLayer
370
-1
48
1.0
60
0
100
AcDbLine
10
-545.0
20
0.0
30
0.0
11
-535.0
21
0.0
31
0.0
39
0.0
210
0.0
220
0.0
230
1.0
0
LINE
5
25C
330
1F
100
AcDbEntity
67
0
8
0
62
5
6
ByLayer
370
-1
48
1.0
60
0
100
AcDbLine
10
-540.0
20
-5.0
30
0.0
11
-540.0
21
5.0
31
0.0
39
0.0
210
0.0
220
0.0
230
1.0
0
LINE
5
25F
330
1F
100
AcDbEntity
67
0
8
0
62
5
6
ByLayer
370
-1
48
1.0
60
0
100
AcDbLine
10
-545.0
20
0.0
30
0.0
11
-535.0
21
0.0
31
0.0
39
0.0
210
0.0
220
0.0
230
1.0
0
LINE
5
260
330
1F
100
AcDbEntity
67
0
8
0
62
5
6
ByLayer
370
-1
48
1.0
60
0
100
AcDbLine
10
-540.0
20
-5.0
30
0.0
11
-540.0
21
5.0
31
0.0
39
0.0
210
0.0
220
0.0
230
1.0
0
LINE
5
263
330
1F
100
AcDbEntity
67
0
8
0
62
5
6
ByLayer
370
-1
48
1.0
60
0
100
AcDbLine
10
-545.0
20
0.0
30
0.0
11
-535.0
21
0.0
31
0.0
39
0.0
210
0.0
220
0.0
230
1.0
0
LINE
5
264
330
1F
100
AcDbEntity
67
0
8
0
62
5
6
ByLayer
370
-1
48
1.0
60
0
100
AcDbLine
10
-540.0
20
-5.0
30
0.0
11
-540.0
21
5.0
31
0.0
39
0.0
210
0.0
220
0.0
230
1.0
0
LINE
5
267
330
1F
100
AcDbEntity
67
0
8
0
62
5
6
ByLayer
370
-1
48
1.0
60
0
100
AcDbLine
10
-545.0
20
0.0
30
0.0
11
-535.0
21
0.0
31
0.0
39
0.0
210
0.0
220
0.0
230
1.0
0
LINE
5
268
330
1F
100
AcDbEntity
67
0
8
0
62
5
6
ByLayer
370
-1
48
1.0
60
0
100
AcDbLine
10
-540.0
20
-5.0
30
0.0
11
-540.0
21
5.0
31
0.0
39
0.0
210
0.0
220
0.0
230
1.0
0
LINE
5
26B
330
1F
100
AcDbEntity
67
0
8
0
62
5
6
ByLayer
370
-1
48
1.0
60
0
100
AcDbLine
10
-545.0
20
0.0
30
0.0
11
-535.0
21
0.0
31
0.0
39
0.0
210
0.0
220
0.0
230
1.0
0
LINE
5
26C
330
1F
100
AcDbEntity
67
0
8
0
62
5
6
ByLayer
370
-1
48
1.0
60
0
100
AcDbLine
10
-540.0
20
-5.0
30
0.0
11
-540.0
21
5.0
31
0.0
39
0.0
210
0.0
220
0.0
230
1.0
0
LINE
5
26F
330
1F
100
AcDbEntity
67
0
8
0
62
5
6
ByLayer
370
-1
48
1.0
60
0
100
AcDbLine
10
-545.0
20
0.0
30
0.0
11
-535.0
21
0.0
31
0.0
39
0.0
210
0.0
220
0.0
230
1.0
0
LINE
5
270
330
1F
100
AcDbEntity
67
0
8
0
62
5
6
ByLayer
370
-1
48
1.0
60
0
100
AcDbLine
10
-540.0
20
-5.0
30
0.0
11
-540.0
21
5.0
31
0.0
39
0.0
210
0.0
220
0.0
230
1.0
0
LINE
5
273
330
1F
100
AcDbEntity
67
0
8
0
62
5
6
ByLayer
370
-1
48
1.0
60
0
100
AcDbLine
10
-545.0
20
0.0
30
0.0
11
-535.0
21
0.0
31
0.0
39
0.0
210
0.0
220
0.0
230
1.0
0
LINE
5
274
330
1F
100
AcDbEntity
67
0
8
0
62
5
6
ByLayer
370
-1
48
1.0
60
0
100
AcDbLine
10
-540.0
20
-5.0
30
0.0
11
-540.0
21
5.0
31
0.0
39
0.0
210
0.0
220
0.0
230
1.0
0
LINE
5
277
330
1F
100
AcDbEntity
67
0
8
0
62
5
6
ByLayer
370
-1
48
1.0
60
0
100
AcDbLine
10
-545.0
20
0.0
30
0.0
11
-535.0
21
0.0
31
0.0
39
0.0
210
0.0
220
0.0
230
1.0
0
LINE
5
278
330
1F
100
AcDbEntity
67
0
8
0
62
5
6
ByLayer
370
-1
48
1.0
60
0
100
AcDbLine
10
-540.0
20
-5.0
30
0.0
11
-540.0
21
5.0
31
0.0
39
0.0
210
0.0
220
0.0
230
1.0
0
LINE
5
27B
330
1F
100
AcDbEntity
67
0
8
0
62
5
6
ByLayer
370
-1
48
1.0
60
0
100
AcDbLine
10
-545.0
20
0.0
30
0.0
11
-535.0
21
0.0
31
0.0
39
0.0
210
0.0
220
0.0
230
1.0
0
LINE
5
27C
330
1F
100
AcDbEntity
67
0
8
0
62
5
6
ByLayer
370
-1
48
1.0
60
0
100
AcDbLine
10
-540.0
20
-5.0
30
0.0
11
-540.0
21
5.0
31
0.0
39
0.0
210
0.0
220
0.0
230
1.0
0
LINE
5
27F
330
1F
100
AcDbEntity
67
0
8
0
62
5
6
ByLayer
370
-1
48
1.0
60
0
100
AcDbLine
10
-545.0
20
0.0
30
0.0
11
-535.0
21
0.0
31
0.0
39
0.0
210
0.0
220
0.0
230
1.0
0
LINE
5
280
330
1F
100
AcDbEntity
67
0
8
0
62
5
6
ByLayer
370
-1
48
1.0
60
0
100
AcDbLine
10
-540.0
20
-5.0
30
0.0
11
-540.0
21
5.0
31
0.0
39
0.0
210
0.0
220
0.0
230
1.0
0
LINE
5
283
330
1F
100
AcDbEntity
67
0
8
0
62
5
6
ByLayer
370
-1
48
1.0
60
0
100
AcDbLine
10
-545.0
20
0.0
30
0.0
11
-535.0
21
0.0
31
0.0
39
0.0
210
0.0
220
0.0
230
1.0
0
LINE
5
284
330
1F
100
AcDbEntity
67
0
8
0
62
5
6
ByLayer
370
-1
48
1.0
60
0
100
AcDbLine
10
-540.0
20
-5.0
30
0.0
11
-540.0
21
5.0
31
0.0
39
0.0
210
0.0
220
0.0
230
1.0
0
LINE
5
287
330
1F
100
AcDbEntity
67
0
8
0
62
5
6
ByLayer
370
-1
48
1.0
60
0
100
AcDbLine
10
-545.0
20
0.0
30
0.0
11
-535.0
21
0.0
31
0.0
39
0.0
210
0.0
220
0.0
230
1.0
0
LINE
5
288
330
1F
100
AcDbEntity
67
0
8
0
62
5
6
ByLayer
370
-1
48
1.0
60
0
100
AcDbLine
10
-540.0
20
-5.0
30
0.0
11
-540.0
21
5.0
31
0.0
39
0.0
210
0.0
220
0.0
230
1.0
0
LINE
5
28B
330
1F
100
AcDbEntity
67
0
8
0
62
5
6
ByLayer
370
-1
48
1.0
60
0
100
AcDbLine
10
-545.0
20
0.0
30
0.0
11
-535.0
21
0.0
31
0.0
39
0.0
210
0.0
220
0.0
230
1.0
0
LINE
5
28C
330
1F
100
AcDbEntity
67
0
8
0
62
5
6
ByLayer
370
-1
48
1.0
60
0
100
AcDbLine
10
-540.0
20
-5.0
30
0.0
11
-540.0
21
5.0
31
0.0
39
0.0
210
0.0
220
0.0
230
1.0
0
LINE
5
28F
330
1F
100
AcDbEntity
67
0
8
0
62
5
6
ByLayer
370
-1
48
1.0
60
0
100
AcDbLine
10
-545.0
20
0.0
30
0.0
11
-535.0
21
0.0
31
0.0
39
0.0
210
0.0
220
0.0
230
1.0
0
LINE
5
290
330
1F
100
AcDbEntity
67
0
8
0
62
5
6
ByLayer
370
-1
48
1.0
60
0
100
AcDbLine
10
-540.0
20
-5.0
30
0.0
11
-540.0
21
5.0
31
0.0
39
0.0
210
0.0
220
0.0
230
1.0
0
LINE
5
293
330
1F
100
AcDbEntity
67
0
8
0
62
5
6
ByLayer
370
-1
48
1.0
60
0
100
AcDbLine
10
-545.0
20
0.0
30
0.0
11
-535.0
21
0.0
31
0.0
39
0.0
210
0.0
220
0.0
230
1.0
0
LINE
5
294
330
1F
100
AcDbEntity
67
0
8
0
62
5
6
ByLayer
370
-1
48
1.0
60
0
100
AcDbLine
10
-540.0
20
-5.0
30
0.0
11
-540.0
21
5.0
31
0.0
39
0.0
210
0.0
220
0.0
230
1.0
0
LINE
5
297
330
1F
100
AcDbEntity
67
0
8
0
62
5
6
ByLayer
370
-1
48
1.0
60
0
100
AcDbLine
10
-545.0
20
0.0
30
0.0
11
-535.0
21
0.0
31
0.0
39
0.0
210
0.0
220
0.0
230
1.0
0
LINE
5
298
330
1F
100
AcDbEntity
67
0
8
0
62
5
6
ByLayer
370
-1
48
1.0
60
0
100
AcDbLine
10
-540.0
20
-5.0
30
0.0
11
-540.0
21
5.0
31
0.0
39
0.0
210
0.0
220
0.0
230
1.0
0
LINE
5
29B
330
1F
100
AcDbEntity
67
0
8
0
62
5
6
ByLayer
370
-1
48
1.0
60
0
100
AcDbLine
10
-545.0
20
0.0
30
0.0
11
-535.0
21
0.0
31
0.0
39
0.0
210
0.0
220
0.0
230
1.0
0
LINE
5
29C
330
1F
100
AcDbEntity
67
0
8
0
62
5
6
ByLayer
370
-1
48
1.0
60
0
100
AcDbLine
10
-540.0
20
-5.0
30
0.0
11
-540.0
21
5.0
31
0.0
39
0.0
210
0.0
220
0.0
230
1.0
0
LINE
5
29F
330
1F
100
AcDbEntity
67
0
8
0
62
5
6
ByLayer
370
-1
48
1.0
60
0
100
AcDbLine
10
-545.0
20
0.0
30
0.0
11
-535.0
21
0.0
31
0.0
39
0.0
210
0.0
220
0.0
230
1.0
0
LINE
5
2A0
330
1F
100
AcDbEntity
67
0
8
0
62
5
6
ByLayer
370
-1
48
1.0
60
0
100
AcDbLine
10
-540.0
20
-5.0
30
0.0
11
-540.0
21
5.0
31
0.0
39
0.0
210
0.0
220
0.0
230
1.0
0
LINE
5
2A3
330
1F
100
AcDbEntity
67
0
8
0
62
5
6
ByLayer
370
-1
48
1.0
60
0
100
AcDbLine
10
-545.0
20
0.0
30
0.0
11
-535.0
21
0.0
31
0.0
39
0.0
210
0.0
220
0.0
230
1.0
0
LINE
5
2A4
330
1F
100
AcDbEntity
67
0
8
0
62
5
6
ByLayer
370
-1
48
1.0
60
0
100
AcDbLine
10
-540.0
20
-5.0
30
0.0
11
-540.0
21
5.0
31
0.0
39
0.0
210
0.0
220
0.0
230
1.0
0
LINE
5
2A7
330
1F
100
AcDbEntity
67
0
8
0
62
5
6
ByLayer
370
-1
48
1.0
60
0
100
AcDbLine
10
-545.0
20
0.0
30
0.0
11
-535.0
21
0.0
31
0.0
39
0.0
210
0.0
220
0.0
230
1.0
0
LINE
5
2A8
330
1F
100
AcDbEntity
67
0
8
0
62
5
6
ByLayer
370
-1
48
1.0
60
0
100
AcDbLine
10
-540.0
20
-5.0
30
0.0
11
-540.0
21
5.0
31
0.0
39
0.0
210
0.0
220
0.0
230
1.0
0
LINE
5
2AB
330
1F
100
AcDbEntity
67
0
8
0
62
5
6
ByLayer
370
-1
48
1.0
60
0
100
AcDbLine
10
-545.0
20
0.0
30
0.0
11
-535.0
21
0.0
31
0.0
39
0.0
210
0.0
220
0.0
230
1.0
0
LINE
5
2AC
330
1F
100
AcDbEntity
67
0
8
0
62
5
6
ByLayer
370
-1
48
1.0
60
0
100
AcDbLine
10
-540.0
20
-5.0
30
0.0
11
-540.0
21
5.0
31
0.0
39
0.0
210
0.0
220
0.0
230
1.0
0
LINE
5
2AF
330
1F
100
AcDbEntity
67
0
8
0
62
5
6
ByLayer
370
-1
48
1.0
60
0
100
AcDbLine
10
-545.0
20
0.0
30
0.0
11
-535.0
21
0.0
31
0.0
39
0.0
210
0.0
220
0.0
230
1.0
0
LINE
5
2B0
330
1F
100
AcDbEntity
67
0
8
0
62
5
6
ByLayer
370
-1
48
1.0
60
0
100
AcDbLine
10
-540.0
20
-5.0
30
0.0
11
-540.0
21
5.0
31
0.0
39
0.0
210
0.0
220
0.0
230
1.0
0
LINE
5
2B3
330
1F
100
AcDbEntity
67
0
8
0
62
5
6
ByLayer
370
-1
48
1.0
60
0
100
AcDbLine
10
-545.0
20
0.0
30
0.0
11
-535.0
21
0.0
31
0.0
39
0.0
210
0.0
220
0.0
230
1.0
0
LINE
5
2B4
330
1F
100
AcDbEntity
67
0
8
0
62
5
6
ByLayer
370
-1
48
1.0
60
0
100
AcDbLine
10
-540.0
20
-5.0
30
0.0
11
-540.0
21
5.0
31
0.0
39
0.0
210
0.0
220
0.0
230
1.0
0
LINE
5
2B7
330
1F
100
AcDbEntity
67
0
8
0
62
5
6
ByLayer
370
-1
48
1.0
60
0
100
AcDbLine
10
-545.0
20
0.0
30
0.0
11
-535.0
21
0.0
31
0.0
39
0.0
210
0.0
220
0.0
230
1.0
0
LINE
5
2B8
330
1F
100
AcDbEntity
67
0
8
0
62
5
6
ByLayer
370
-1
48
1.0
60
0
100
AcDbLine
10
-540.0
20
-5.0
30
0.0
11
-540.0
21
5.0
31
0.0
39
0.0
210
0.0
220
0.0
230
1.0
0
LINE
5
2BB
330
1F
100
AcDbEntity
67
0
8
0
62
5
6
ByLayer
370
-1
48
1.0
60
0
100
AcDbLine
10
-545.0
20
0.0
30
0.0
11
-535.0
21
0.0
31
0.0
39
0.0
210
0.0
220
0.0
230
1.0
0
LINE
5
2BC
330
1F
100
AcDbEntity
67
0
8
0
62
5
6
ByLayer
370
-1
48
1.0
60
0
100
AcDbLine
10
-540.0
20
-5.0
30
0.0
11
-540.0
21
5.0
31
0.0
39
0.0
210
0.0
220
0.0
230
1.0
0
LINE
5
2BF
330
1F
100
AcDbEntity
67
0
8
0
62
5
6
ByLayer
370
-1
48
1.0
60
0
100
AcDbLine
10
-545.0
20
0.0
30
0.0
11
-535.0
21
0.0
31
0.0
39
0.0
210
0.0
220
0.0
230
1.0
0
LINE
5
2C0
330
1F
100
AcDbEntity
67
0
8
0
62
5
6
ByLayer
370
-1
48
1.0
60
0
100
AcDbLine
10
-540.0
20
-5.0
30
0.0
11
-540.0
21
5.0
31
0.0
39
0.0
210
0.0
220
0.0
230
1.0
0
LINE
5
2C3
330
1F
100
AcDbEntity
67
0
8
0
62
5
6
ByLayer
370
-1
48
1.0
60
0
100
AcDbLine
10
-545.0
20
0.0
30
0.0
11
-535.0
21
0.0
31
0.0
39
0.0
210
0.0
220
0.0
230
1.0
0
LINE
5
2C4
330
1F
100
AcDbEntity
67
0
8
0
62
5
6
ByLayer
370
-1
48
1.0
60
0
100
AcDbLine
10
-540.0
20
-5.0
30
0.0
11
-540.0
21
5.0
31
0.0
39
0.0
210
0.0
220
0.0
230
1.0
0
LINE
5
2C7
330
1F
100
AcDbEntity
67
0
8
0
62
5
6
ByLayer
370
-1
48
1.0
60
0
100
AcDbLine
10
-545.0
20
0.0
30
0.0
11
-535.0
21
0.0
31
0.0
39
0.0
210
0.0
220
0.0
230
1.0
0
LINE
5
2C8
330
1F
100
AcDbEntity
67
0
8
0
62
5
6
ByLayer
370
-1
48
1.0
60
0
100
AcDbLine
10
-540.0
20
-5.0
30
0.0
11
-540.0
21
5.0
31
0.0
39
0.0
210
0.0
220
0.0
230
1.0
0
LINE
5
2CB
330
1F
100
AcDbEntity
67
0
8
0
62
5
6
ByLayer
370
-1
48
1.0
60
0
100
AcDbLine
10
-545.0
20
0.0
30
0.0
11
-535.0
21
0.0
31
0.0
39
0.0
210
0.0
220
0.0
230
1.0
0
LINE
5
2CC
330
1F
100
AcDbEntity
67
0
8
0
62
5
6
ByLayer
370
-1
48
1.0
60
0
100
AcDbLine
10
-540.0
20
-5.0
30
0.0
11
-540.0
21
5.0
31
0.0
39
0.0
210
0.0
220
0.0
230
1.0
0
LINE
5
2CF
330
1F
100
AcDbEntity
67
0
8
0
62
5
6
ByLayer
370
-1
48
1.0
60
0
100
AcDbLine
10
-545.0
20
-50.0
30
0.0
11
-535.0
21
-50.0
31
0.0
39
0.0
210
0.0
220
0.0
230
1.0
0
LINE
5
2D0
330
1F
100
AcDbEntity
67
0
8
0
62
5
6
ByLayer
370
-1
48
1.0
60
0
100
AcDbLine
10
-540.0
20
-55.0
30
0.0
11
-540.0
21
-45.0
31
0.0
39
0.0
210
0.0
220
0.0
230
1.0
0
LINE
5
2D3
330
1F
100
AcDbEntity
67
0
8
0
62
5
6
ByLayer
370
-1
48
1.0
60
0
100
AcDbLine
10
-545.0
20
-50.0
30
0.0
11
-535.0
21
-50.0
31
0.0
39
0.0
210
0.0
220
0.0
230
1.0
0
LINE
5
2D4
330
1F
100
AcDbEntity
67
0
8
0
62
5
6
ByLayer
370
-1
48
1.0
60
0
100
AcDbLine
10
-540.0
20
-55.0
30
0.0
11
-540.0
21
-45.0
31
0.0
39
0.0
210
0.0
220
0.0
230
1.0
0
LINE
5
2D7
330
1F
100
AcDbEntity
67
0
8
0
62
5
6
ByLayer
370
-1
48
1.0
60
0
100
AcDbLine
10
-545.0
20
-50.0
30
0.0
11
-535.0
21
-50.0
31
0.0
39
0.0
210
0.0
220
0.0
230
1.0
0
LINE
5
2D8
330
1F
100
AcDbEntity
67
0
8
0
62
5
6
ByLayer
370
-1
48
1.0
60
0
100
AcDbLine
10
-540.0
20
-55.0
30
0.0
11
-540.0
21
-45.0
31
0.0
39
0.0
210
0.0
220
0.0
230
1.0
0
LINE
5
2DB
330
1F
100
AcDbEntity
67
0
8
0
62
5
6
ByLayer
370
-1
48
1.0
60
0
100
AcDbLine
10
-545.0
20
-50.0
30
0.0
11
-535.0
21
-50.0
31
0.0
39
0.0
210
0.0
220
0.0
230
1.0
0
LINE
5
2DC
330
1F
100
AcDbEntity
67
0
8
0
62
5
6
ByLayer
370
-1
48
1.0
60
0
100
AcDbLine
10
-540.0
20
-55.0
30
0.0
11
-540.0
21
-45.0
31
0.0
39
0.0
210
0.0
220
0.0
230
1.0
0
LINE
5
2DF
330
1F
100
AcDbEntity
67
0
8
0
62
5
6
ByLayer
370
-1
48
1.0
60
0
100
AcDbLine
10
-545.0
20
-50.0
30
0.0
11
-535.0
21
-50.0
31
0.0
39
0.0
210
0.0
220
0.0
230
1.0
0
LINE
5
2E0
330
1F
100
AcDbEntity
67
0
8
0
62
5
6
ByLayer
370
-1
48
1.0
60
0
100
AcDbLine
10
-540.0
20
-55.0
30
0.0
11
-540.0
21
-45.0
31
0.0
39
0.0
210
0.0
220
0.0
230
1.0
0
LINE
5
2E3
330
1F
100
AcDbEntity
67
0
8
0
62
5
6
ByLayer
370
-1
48
1.0
60
0
100
AcDbLine
10
-545.0
20
-50.0
30
0.0
11
-535.0
21
-50.0
31
0.0
39
0.0
210
0.0
220
0.0
230
1.0
0
LINE
5
2E4
330
1F
100
AcDbEntity
67
0
8
0
62
5
6
ByLayer
370
-1
48
1.0
60
0
100
AcDbLine
10
-540.0
20
-55.0
30
0.0
11
-540.0
21
-45.0
31
0.0
39
0.0
210
0.0
220
0.0
230
1.0
0
LINE
5
2E7
330
1F
100
AcDbEntity
67
0
8
0
62
5
6
ByLayer
370
-1
48
1.0
60
0
100
AcDbLine
10
-545.0
20
-50.0
30
0.0
11
-535.0
21
-50.0
31
0.0
39
0.0
210
0.0
220
0.0
230
1.0
0
LINE
5
2E8
330
1F
100
AcDbEntity
67
0
8
0
62
5
6
ByLayer
370
-1
48
1.0
60
0
100
AcDbLine
10
-540.0
20
-55.0
30
0.0
11
-540.0
21
-45.0
31
0.0
39
0.0
210
0.0
220
0.0
230
1.0
0
LINE
5
2EB
330
1F
100
AcDbEntity
67
0
8
0
62
5
6
ByLayer
370
-1
48
1.0
60
0
100
AcDbLine
10
-545.0
20
-50.0
30
0.0
11
-535.0
21
-50.0
31
0.0
39
0.0
210
0.0
220
0.0
230
1.0
0
LINE
5
2EC
330
1F
100
AcDbEntity
67
0
8
0
62
5
6
ByLayer
370
-1
48
1.0
60
0
100
AcDbLine
10
-540.0
20
-55.0
30
0.0
11
-540.0
21
-45.0
31
0.0
39
0.0
210
0.0
220
0.0
230
1.0
0
LINE
5
2EF
330
1F
100
AcDbEntity
67
0
8
0
62
5
6
ByLayer
370
-1
48
1.0
60
0
100
AcDbLine
10
-545.0
20
-50.0
30
0.0
11
-535.0
21
-50.0
31
0.0
39
0.0
210
0.0
220
0.0
230
1.0
0
LINE
5
2F0
330
1F
100
AcDbEntity
67
0
8
0
62
5
6
ByLayer
370
-1
48
1.0
60
0
100
AcDbLine
10
-540.0
20
-55.0
30
0.0
11
-540.0
21
-45.0
31
0.0
39
0.0
210
0.0
220
0.0
230
1.0
0
LINE
5
2F3
330
1F
100
AcDbEntity
67
0
8
0
62
5
6
ByLayer
370
-1
48
1.0
60
0
100
AcDbLine
10
-545.0
20
-50.0
30
0.0
11
-535.0
21
-50.0
31
0.0
39
0.0
210
0.0
220
0.0
230
1.0
0
LINE
5
2F4
330
1F
100
AcDbEntity
67
0
8
0
62
5
6
ByLayer
370
-1
48
1.0
60
0
100
AcDbLine
10
-540.0
20
-55.0
30
0.0
11
-540.0
21
-45.0
31
0.0
39
0.0
210
0.0
220
0.0
230
1.0
0
LINE
5
2F7
330
1F
100
AcDbEntity
67
0
8
0
62
5
6
ByLayer
370
-1
48
1.0
60
0
100
AcDbLine
10
-545.0
20
-50.0
30
0.0
11
-535.0
21
-50.0
31
0.0
39
0.0
210
0.0
220
0.0
230
1.0
0
LINE
5
2F8
330
1F
100
AcDbEntity
67
0
8
0
62
5
6
ByLayer
370
-1
48
1.0
60
0
100
AcDbLine
10
-540.0
20
-55.0
30
0.0
11
-540.0
21
-45.0
31
0.0
39
0.0
210
0.0
220
0.0
230
1.0
0
LINE
5
2FB
330
1F
100
AcDbEntity
67
0
8
0
62
5
6
ByLayer
370
-1
48
1.0
60
0
100
AcDbLine
10
-545.0
20
-50.0
30
0.0
11
-535.0
21
-50.0
31
0.0
39
0.0
210
0.0
220
0.0
230
1.0
0
LINE
5
2FC
330
1F
100
AcDbEntity
67
0
8
0
62
5
6
ByLayer
370
-1
48
1.0
60
0
100
AcDbLine
10
-540.0
20
-55.0
30
0.0
11
-540.0
21
-45.0
31
0.0
39
0.0
210
0.0
220
0.0
230
1.0
0
LINE
5
2FF
330
1F
100
AcDbEntity
67
0
8
0
62
5
6
ByLayer
370
-1
48
1.0
60
0
100
AcDbLine
10
-545.0
20
-50.0
30
0.0
11
-535.0
21
-50.0
31
0.0
39
0.0
210
0.0
220
0.0
230
1.0
0
LINE
5
300
330
1F
100
AcDbEntity
67
0
8
0
62
5
6
ByLayer
370
-1
48
1.0
60
0
100
AcDbLine
10
-540.0
20
-55.0
30
0.0
11
-540.0
21
-45.0
31
0.0
39
0.0
210
0.0
220
0.0
230
1.0
0
LINE
5
303
330
1F
100
AcDbEntity
67
0
8
0
62
5
6
ByLayer
370
-1
48
1.0
60
0
100
AcDbLine
10
-395.0
20
0.0
30
0.0
11
-385.0
21
0.0
31
0.0
39
0.0
210
0.0
220
0.0
230
1.0
0
LINE
5
304
330
1F
100
AcDbEntity
67
0
8
0
62
5
6
ByLayer
370
-1
48
1.0
60
0
100
AcDbLine
10
-390.0
20
-5.0
30
0.0
11
-390.0
21
5.0
31
0.0
39
0.0
210
0.0
220
0.0
230
1.0
0
LINE
5
307
330
1F
100
AcDbEntity
67
0
8
0
62
5
6
ByLayer
370
-1
48
1.0
60
0
100
AcDbLine
10
-395.0
20
0.0
30
0.0
11
-385.0
21
0.0
31
0.0
39
0.0
210
0.0
220
0.0
230
1.0
0
LINE
5
308
330
1F
100
AcDbEntity
67
0
8
0
62
5
6
ByLayer
370
-1
48
1.0
60
0
100
AcDbLine
10
-390.0
20
-5.0
30
0.0
11
-390.0
21
5.0
31
0.0
39
0.0
210
0.0
220
0.0
230
1.0
0
LINE
5
30B
330
1F
100
AcDbEntity
67
0
8
0
62
5
6
ByLayer
370
-1
48
1.0
60
0
100
AcDbLine
10
-395.0
20
0.0
30
0.0
11
-385.0
21
0.0
31
0.0
39
0.0
210
0.0
220
0.0
230
1.0
0
LINE
5
30C
330
1F
100
AcDbEntity
67
0
8
0
62
5
6
ByLayer
370
-1
48
1.0
60
0
100
AcDbLine
10
-390.0
20
-5.0
30
0.0
11
-390.0
21
5.0
31
0.0
39
0.0
210
0.0
220
0.0
230
1.0
0
LINE
5
30F
330
1F
100
AcDbEntity
67
0
8
0
62
5
6
ByLayer
370
-1
48
1.0
60
0
100
AcDbLine
10
-395.0
20
0.0
30
0.0
11
-385.0
21
0.0
31
0.0
39
0.0
210
0.0
220
0.0
230
1.0
0
LINE
5
310
330
1F
100
AcDbEntity
67
0
8
0
62
5
6
ByLayer
370
-1
48
1.0
60
0
100
AcDbLine
10
-390.0
20
-5.0
30
0.0
11
-390.0
21
5.0
31
0.0
39
0.0
210
0.0
220
0.0
230
1.0
0
LINE
5
313
330
1F
100
AcDbEntity
67
0
8
0
62
5
6
ByLayer
370
-1
48
1.0
60
0
100
AcDbLine
10
-395.0
20
0.0
30
0.0
11
-385.0
21
0.0
31
0.0
39
0.0
210
0.0
220
0.0
230
1.0
0
LINE
5
314
330
1F
100
AcDbEntity
67
0
8
0
62
5
6
ByLayer
370
-1
48
1.0
60
0
100
AcDbLine
10
-390.0
20
-5.0
30
0.0
11
-390.0
21
5.0
31
0.0
39
0.0
210
0.0
220
0.0
230
1.0
0
LINE
5
317
330
1F
100
AcDbEntity
67
0
8
0
62
5
6
ByLayer
370
-1
48
1.0
60
0
100
AcDbLine
10
-395.0
20
0.0
30
0.0
11
-385.0
21
0.0
31
0.0
39
0.0
210
0.0
220
0.0
230
1.0
0
LINE
5
318
330
1F
100
AcDbEntity
67
0
8
0
62
5
6
ByLayer
370
-1
48
1.0
60
0
100
AcDbLine
10
-390.0
20
-5.0
30
0.0
11
-390.0
21
5.0
31
0.0
39
0.0
210
0.0
220
0.0
230
1.0
0
LINE
5
31B
330
1F
100
AcDbEntity
67
0
8
0
62
5
6
ByLayer
370
-1
48
1.0
60
0
100
AcDbLine
10
-395.0
20
0.0
30
0.0
11
-385.0
21
0.0
31
0.0
39
0.0
210
0.0
220
0.0
230
1.0
0
LINE
5
31C
330
1F
100
AcDbEntity
67
0
8
0
62
5
6
ByLayer
370
-1
48
1.0
60
0
100
AcDbLine
10
-390.0
20
-5.0
30
0.0
11
-390.0
21
5.0
31
0.0
39
0.0
210
0.0
220
0.0
230
1.0
0
LINE
5
31F
330
1F
100
AcDbEntity
67
0
8
0
62
5
6
ByLayer
370
-1
48
1.0
60
0
100
AcDbLine
10
-395.0
20
0.0
30
0.0
11
-385.0
21
0.0
31
0.0
39
0.0
210
0.0
220
0.0
230
1.0
0
LINE
5
320
330
1F
100
AcDbEntity
67
0
8
0
62
5
6
ByLayer
370
-1
48
1.0
60
0
100
AcDbLine
10
-390.0
20
-5.0
30
0.0
11
-390.0
21
5.0
31
0.0
39
0.0
210
0.0
220
0.0
230
1.0
0
LINE
5
323
330
1F
100
AcDbEntity
67
0
8
0
62
5
6
ByLayer
370
-1
48
1.0
60
0
100
AcDbLine
10
-395.0
20
0.0
30
0.0
11
-385.0
21
0.0
31
0.0
39
0.0
210
0.0
220
0.0
230
1.0
0
LINE
5
324
330
1F
100
AcDbEntity
67
0
8
0
62
5
6
ByLayer
370
-1
48
1.0
60
0
100
AcDbLine
10
-390.0
20
-5.0
30
0.0
11
-390.0
21
5.0
31
0.0
39
0.0
210
0.0
220
0.0
230
1.0
0
LINE
5
327
330
1F
100
AcDbEntity
67
0
8
0
62
5
6
ByLayer
370
-1
48
1.0
60
0
100
AcDbLine
10
-395.0
20
0.0
30
0.0
11
-385.0
21
0.0
31
0.0
39
0.0
210
0.0
220
0.0
230
1.0
0
LINE
5
328
330
1F
100
AcDbEntity
67
0
8
0
62
5
6
ByLayer
370
-1
48
1.0
60
0
100
AcDbLine
10
-390.0
20
-5.0
30
0.0
11
-390.0
21
5.0
31
0.0
39
0.0
210
0.0
220
0.0
230
1.0
0
LINE
5
32B
330
1F
100
AcDbEntity
67
0
8
0
62
5
6
ByLayer
370
-1
48
1.0
60
0
100
AcDbLine
10
-395.0
20
0.0
30
0.0
11
-385.0
21
0.0
31
0.0
39
0.0
210
0.0
220
0.0
230
1.0
0
LINE
5
32C
330
1F
100
AcDbEntity
67
0
8
0
62
5
6
ByLayer
370
-1
48
1.0
60
0
100
AcDbLine
10
-390.0
20
-5.0
30
0.0
11
-390.0
21
5.0
31
0.0
39
0.0
210
0.0
220
0.0
230
1.0
0
LINE
5
32F
330
1F
100
AcDbEntity
67
0
8
0
62
5
6
ByLayer
370
-1
48
1.0
60
0
100
AcDbLine
10
-395.0
20
0.0
30
0.0
11
-385.0
21
0.0
31
0.0
39
0.0
210
0.0
220
0.0
230
1.0
0
LINE
5
330
330
1F
100
AcDbEntity
67
0
8
0
62
5
6
ByLayer
370
-1
48
1.0
60
0
100
AcDbLine
10
-390.0
20
-5.0
30
0.0
11
-390.0
21
5.0
31
0.0
39
0.0
210
0.0
220
0.0
230
1.0
0
LINE
5
333
330
1F
100
AcDbEntity
67
0
8
0
62
5
6
ByLayer
370
-1
48
1.0
60
0
100
AcDbLine
10
-395.0
20
0.0
30
0.0
11
-385.0
21
0.0
31
0.0
39
0.0
210
0.0
220
0.0
230
1.0
0
LINE
5
334
330
1F
100
AcDbEntity
67
0
8
0
62
5
6
ByLayer
370
-1
48
1.0
60
0
100
AcDbLine
10
-390.0
20
-5.0
30
0.0
11
-390.0
21
5.0
31
0.0
39
0.0
210
0.0
220
0.0
230
1.0
0
LINE
5
337
330
1F
100
AcDbEntity
67
0
8
0
62
5
6
ByLayer
370
-1
48
1.0
60
0
100
AcDbLine
10
-395.0
20
0.0
30
0.0
11
-385.0
21
0.0
31
0.0
39
0.0
210
0.0
220
0.0
230
1.0
0
LINE
5
338
330
1F
100
AcDbEntity
67
0
8
0
62
5
6
ByLayer
370
-1
48
1.0
60
0
100
AcDbLine
10
-390.0
20
-5.0
30
0.0
11
-390.0
21
5.0
31
0.0
39
0.0
210
0.0
220
0.0
230
1.0
0
LINE
5
33B
330
1F
100
AcDbEntity
67
0
8
0
62
5
6
ByLayer
370
-1
48
1.0
60
0
100
AcDbLine
10
-395.0
20
0.0
30
0.0
11
-385.0
21
0.0
31
0.0
39
0.0
210
0.0
220
0.0
230
1.0
0
LINE
5
33C
330
1F
100
AcDbEntity
67
0
8
0
62
5
6
ByLayer
370
-1
48
1.0
60
0
100
AcDbLine
10
-390.0
20
-5.0
30
0.0
11
-390.0
21
5.0
31
0.0
39
0.0
210
0.0
220
0.0
230
1.0
0
LINE
5
33F
330
1F
100
AcDbEntity
67
0
8
0
62
5
6
ByLayer
370
-1
48
1.0
60
0
100
AcDbLine
10
-395.0
20
0.0
30
0.0
11
-385.0
21
0.0
31
0.0
39
0.0
210
0.0
220
0.0
230
1.0
0
LINE
5
340
330
1F
100
AcDbEntity
67
0
8
0
62
5
6
ByLayer
370
-1
48
1.0
60
0
100
AcDbLine
10
-390.0
20
-5.0
30
0.0
11
-390.0
21
5.0
31
0.0
39
0.0
210
0.0
220
0.0
230
1.0
0
LINE
5
343
330
1F
100
AcDbEntity
67
0
8
0
62
5
6
ByLayer
370
-1
48
1.0
60
0
100
AcDbLine
10
-395.0
20
0.0
30
0.0
11
-385.0
21
0.0
31
0.0
39
0.0
210
0.0
220
0.0
230
1.0
0
LINE
5
344
330
1F
100
AcDbEntity
67
0
8
0
62
5
6
ByLayer
370
-1
48
1.0
60
0
100
AcDbLine
10
-390.0
20
-5.0
30
0.0
11
-390.0
21
5.0
31
0.0
39
0.0
210
0.0
220
0.0
230
1.0
0
LINE
5
347
330
1F
100
AcDbEntity
67
0
8
0
62
5
6
ByLayer
370
-1
48
1.0
60
0
100
AcDbLine
10
-395.0
20
0.0
30
0.0
11
-385.0
21
0.0
31
0.0
39
0.0
210
0.0
220
0.0
230
1.0
0
LINE
5
348
330
1F
100
AcDbEntity
67
0
8
0
62
5
6
ByLayer
370
-1
48
1.0
60
0
100
AcDbLine
10
-390.0
20
-5.0
30
0.0
11
-390.0
21
5.0
31
0.0
39
0.0
210
0.0
220
0.0
230
1.0
0
LINE
5
34B
330
1F
100
AcDbEntity
67
0
8
0
62
5
6
ByLayer
370
-1
48
1.0
60
0
100
AcDbLine
10
-395.0
20
0.0
30
0.0
11
-385.0
21
0.0
31
0.0
39
0.0
210
0.0
220
0.0
230
1.0
0
LINE
5
34C
330
1F
100
AcDbEntity
67
0
8
0
62
5
6
ByLayer
370
-1
48
1.0
60
0
100
AcDbLine
10
-390.0
20
-5.0
30
0.0
11
-390.0
21
5.0
31
0.0
39
0.0
210
0.0
220
0.0
230
1.0
0
ENDSEC
0
SECTION
2
OBJECTS
0
DICTIONARY
5
34D
330
0
100
AcDbDictionary
280
1
281
1
3
ACAD_GROUP
350
D
3
ACAD_LAYOUT
350
1A
3
ACAD_DGNDEFINITIONS
350
AC
3
ACAD_DWFDEFINITIONS
350
AD
3
ACAD_PDFDEFINITIONS
350
AE
3
ACAD_MLINESTYLE
350
17
3
ACAD_IMAGE_DICT
350
AB
3
ACAD_IMAGE_VARS
350
AF
0
DICTIONARY
5
D
330
34D
100
AcDbDictionary
280
1
281
1
0
DICTIONARY
5
1A
330
34D
100
AcDbDictionary
280
1
281
1
3
Layout1
350
1E
3
Layout2
350
26
3
Model
350
22
0
DICTIONARY
5
AC
330
34D
100
AcDbDictionary
280
1
281
1
0
DICTIONARY
5
AD
330
34D
100
AcDbDictionary
280
1
281
1
0
DICTIONARY
5
AE
330
34D
100
AcDbDictionary
280
1
281
1
0
DICTIONARY
5
17
330
34D
100
AcDbDictionary
280
1
281
1
3
Standard
350
18
0
DICTIONARY
5
AB
330
34D
100
AcDbDictionary
280
1
281
1
0
DICTIONARY
5
A9
330
2
100
AcDbDictionary
280
1
281
1
3
ACAD_LAYERSTATES
360
34E
0
DICTIONARY
5
34E
330
A9
100
AcDbDictionary
280
1
281
1
0
LAYOUT
5
1E
330
1A
100
AcDbPlotSettings
1

2
none_device
4

6

40
0.0
41
0.0
42
0.0
43
0.0
44
0.0
45
0.0
46
0.0
47
0.0
48
0.0
49
0.0
140
0.0
141
0.0
142
1.0
143
1.0
70
688
72
1
73
0
74
5
7

75
16
76
0
77
2
78
300
147
1.0
148
0.0
149
0.0
100
AcDbLayout
1
Layout1
71
1
10
0.0
20
0.0
11
420.0
21
297.0
12
0.0
22
0.0
32
0.0
14
100000000000000000000.0
24
100000000000000000000.0
34
100000000000000000000.0
15
-100000000000000000000.0
25
-100000000000000000000.0
35
-100000000000000000000.0
146
0.0
13
0.0
23
0.0
33
0.0
16
1.0
26
0.0
36
0.0
17
0.0
27
1.0
37
0.0
76
0
330
1B
0
LAYOUT
5
26
330
1A
100
AcDbPlotSettings
1

2
none_device
4

6

40
0.0
41
0.0
42
0.0
43
0.0
44
0.0
45
0.0
46
0.0
47
0.0
48
0.0
49
0.0
140
0.0
141
0.0
142
1.0
143
1.0
70
688
72
1
73
0
74
5
7

75
16
76
0
77
2
78
300
147
1.0
148
0.0
149
0.0
100
AcDbLayout
1
Layout2
71
2
10
0.0
20
0.0
11
0.0
21
0.0
12
0.0
22
0.0
32
0.0
14
0.0
24
0.0
34
0.0
15
0.0
25
0.0
35
0.0
146
0.0
13
0.0
23
0.0
33
0.0
16
1.0
26
0.0
36
0.0
17
0.0
27
1.0
37
0.0
76
0
330
23
0
LAYOUT
5
22
330
1A
100
AcDbPlotSettings
1

2
none_device
4
ANSI_A_(11.00_x_8.50_Inches)
6

40
6.35
41
19.05
42
6.35000508
43
19.05000254
44
279.4
45
215.9
46
133.34999746
47
88.89999873
48
0.0
49
0.0
140
0.0
141
0.0
142
0.0044631148
143
1.0
70
1696
72
0
73
0
74
0
7

75
0
76
0
77
2
78
300
147
0.0044631148
148
-1300.4909072572
149
0.0
100
AcDbLayout
1
Model
71
3
10
0.0
20
0.0
11
420.0
21
297.0
12
0.0
22
0.0
32
0.0
14
-1220.0
24
-77.5
34
0.0
15
1220.0
25
77.5
35
0.0
146
0.0
13
0.0
23
0.0
33
0.0
16
1.0
26
0.0
36
0.0
17
0.0
27
1.0
37
0.0
76
0
330
1F
0
MLINESTYLE
5
18
330
17
100
AcDbMlineStyle
2
Standard
70
0
3

62
256
51
90.0
52
90.0
71
2
49
0.5
62
256
6
ByLayer
49
-0.5
62
256
6
ByLayer
0
RASTERVARIABLES
5
AF
330
AB
100
AcDbRasterVariables
90
0
70
1
71
1
72
0
0
ENDSEC
0
EOF
