0
SECTION
2
HEADER
9
$ACADVER
1
AC1015
9
$DWGCODEPAGE
3
ANSI_1254
9
$HANDSEED
5
1D7
9
$ANGBASE
50
0.0
9
$ANGDIR
70
0
9
$ATTMODE
70
1
9
$AUNITS
70
0
9
$AUPREC
70
2
9
$CECOLOR
62
256
9
$CELTSCALE
40
1.0
9
$CELTYPE
6
ByLayer
9
$CELWEIGHT
370
-1
9
$CLAYER
8
0
9
$CMLJUST
70
0
9
$CMLSCALE
40
20.0
9
$CMLSTYLE
2
Standard
9
$DIMSTYLE
2
ISO-25
9
$TEXTSIZE
40
3.5
9
$TEXTSTYLE
7
Standard
9
$LUNITS
70
2
9
$LUPREC
70
2
9
$MIRRTEXT
70
1
9
$EXTNAMES
290
1
9
$INSBASE
10
0.0
20
0.0
30
0.0
9
$INSUNITS
70
4
9
$LTSCALE
40
1.0
9
$LWDISPLAY
290
1
9
$PDMODE
70
0
9
$PDSIZE
40
-1.0
9
$PLINEGEN
70
0
9
$PSLTSCALE
70
1
9
$SPLINESEGS
70
6
9
$SURFU
70
6
9
$SURFV
70
6
9
$TDCREATE
40
2460916.37414487
9
$TDUCREATE
40
2460916.24914487
9
$TDUPDATE
40
2460916.37416935
9
$TDUUPDATE
40
2460916.24916935
9
$TDINDWG
40
0.0000000115740741
9
$UCSORG
10
0.0
20
0.0
30
0.0
9
$UCSXDIR
10
1.0
20
0.0
30
0.0
9
$UCSYDIR
10
0.0
20
1.0
30
0.0
9
$DIMADEC
70
0
9
$DIMALT
70
0
9
$DIMALTD
70
3
9
$DIMALTF
40
0.0393700787
9
$DIMALTRND
40
0.0
9
$DIMALTTD
70
3
9
$DIMALTTZ
70
0
9
$DIMALTU
70
2
9
$DIMALTZ
70
0
9
$DIMAPOST
1

9
$DIMATFIT
70
3
9
$DIMAUNIT
70
0
9
$DIMASZ
40
2.5
9
$DIMAZIN
70
3
9
$DIMSAH
70
0
9
$DIMBLK
1

9
$DIMLDRBLK
1

9
$DIMCEN
40
2.5
9
$DIMCLRD
70
0
9
$DIMCLRE
70
0
9
$DIMCLRT
70
0
9
$DIMDEC
70
2
9
$DIMDLE
40
0.0
9
$DIMDLI
40
3.75
9
$DIMDSEP
70
44
9
$DIMEXE
40
1.25
9
$DIMEXO
40
0.625
9
$DIMFXLON
70
0
9
$DIMFXL
40
1.0
9
$DIMGAP
40
0.625
9
$DIMJUST
70
0
9
$DIMLFAC
40
1.0
9
$DIMLUNIT
70
2
9
$DIMLWD
70
-2
9
$DIMLWE
70
-2
9
$DIMPOST
1

9
$DIMRND
40
0.0
9
$DIMSCALE
40
1.0
9
$DIMSD1
70
0
9
$DIMSD2
70
0
9
$DIMSE1
70
0
9
$DIMSE2
70
0
9
$DIMSOXD
70
0
9
$DIMTAD
70
1
9
$DIMTDEC
70
2
9
$DIMTFAC
40
1.0
9
$DIMTIH
70
0
9
$DIMTIX
70
0
9
$DIMTM
40
0.0
9
$DIMTMOVE
70
0
9
$DIMTOFL
70
1
9
$DIMTOH
70
0
9
$DIMTOL
70
0
9
$DIMLIM
70
0
9
$DIMTOLJ
70
0
9
$DIMTP
40
0.0
9
$DIMTXT
40
2.5
9
$DIMTXTDIRECTION
70
0
9
$DIMTZIN
70
8
9
$DIMZIN
70
8
9
$DIMFRAC
70
0
9
$DIMLTYPE
6
ByBlock
9
$DIMLTEX1
6
ByBlock
9
$DIMLTEX2
6
ByBlock
9
$EXTMIN
10
-785.0
20
-242.5
30
0.0
9
$EXTMAX
10
785.0
20
242.5
30
0.0
9
$LIMMIN
10
0.0
20
0.0
9
$LIMMAX
10
420.0
20
297.0
9
$ORTHOMODE
70
0
9
$REGENMODE
70
1
9
$FILLMODE
70
1
9
$QTEXTMODE
70
0
9
$TRACEWID
40
1.0
9
$DISPSILH
70
0
9
$SKETCHINC
40
1.0
9
$FILLETRAD
40
10.0
9
$MENU
1
.
9
$ELEVATION
40
0.0
9
$PELEVATION
40
0.0
9
$THICKNESS
40
0.0
9
$LIMCHECK
70
0
9
$CHAMFERA
40
0.0
9
$CHAMFERB
40
0.0
9
$CHAMFERC
40
0.0
9
$CHAMFERD
40
0.0
9
$SKPOLY
70
0
9
$TDUSRTIMER
40
0.0000000116
9
$USRTIMER
70
1
9
$PLINEWID
40
0.0
9
$SPLFRAME
70
0
9
$SPLINETYPE
70
6
9
$SURFTAB1
70
6
9
$SURFTAB2
70
6
9
$SURFTYPE
70
6
9
$UCSBASE
2

9
$UCSNAME
2

9
$UCSORTHOREF
2

9
$UCSORTHOVIEW
70
0
9
$UCSORGTOP
10
0.0
20
0.0
30
0.0
9
$UCSORGBOTTOM
10
0.0
20
0.0
30
0.0
9
$UCSORGLEFT
10
0.0
20
0.0
30
0.0
9
$UCSORGRIGHT
10
0.0
20
0.0
30
0.0
9
$UCSORGFRONT
10
0.0
20
0.0
30
0.0
9
$UCSORGBACK
10
0.0
20
0.0
30
0.0
9
$PUCSBASE
2

9
$PUCSNAME
2

9
$PUCSORG
10
0.0
20
0.0
30
0.0
9
$PUCSXDIR
10
1.0
20
0.0
30
0.0
9
$PUCSYDIR
10
0.0
20
1.0
30
0.0
9
$PUCSORTHOREF
2

9
$PUCSORTHOVIEW
70
0
9
$PUCSORGTOP
10
0.0
20
0.0
30
0.0
9
$PUCSORGBOTTOM
10
0.0
20
0.0
30
0.0
9
$PUCSORGLEFT
10
0.0
20
0.0
30
0.0
9
$PUCSORGRIGHT
10
0.0
20
0.0
30
0.0
9
$PUCSORGFRONT
10
0.0
20
0.0
30
0.0
9
$PUCSORGBACK
10
0.0
20
0.0
30
0.0
9
$USERI1
70
0
9
$USERI2
70
0
9
$USERI3
70
0
9
$USERI4
70
0
9
$USERI5
70
0
9
$USERR1
40
0.0
9
$USERR2
40
0.0
9
$USERR3
40
0.0
9
$USERR4
40
0.0
9
$USERR5
40
0.0
9
$WORLDVIEW
70
1
9
$SHADEDGE
70
3
9
$SHADEDIF
70
70
9
$TILEMODE
70
1
9
$MAXACTVP
70
64
9
$PINSBASE
10
0.0
20
0.0
30
0.0
9
$PLIMCHECK
70
0
9
$PEXTMIN
10
100000000000000000000.0
20
100000000000000000000.0
30
100000000000000000000.0
9
$PEXTMAX
10
-100000000000000000000.0
20
-100000000000000000000.0
30
-100000000000000000000.0
9
$PLIMMIN
10
0.0
20
0.0
9
$PLIMMAX
10
420.0
20
297.0
9
$UNITMODE
70
0
9
$VISRETAIN
70
1
9
$TREEDEPTH
70
3020
9
$PROXYGRAPHICS
70
1
9
$MEASUREMENT
70
1
9
$ENDCAPS
280
0
9
$JOINSTYLE
280
0
9
$HYPERLINKBASE
1

9
$STYLESHEET
1

9
$XEDIT
290
1
9
$CEPSNTYPE
380
0
9
$PSTYLEMODE
290
1
9
$FINGERPRINTGUID
2
{e478a9fc-e2ab-449f-858a-0b3715e431de}
9
$VERSIONGUID
2
{FAEB1C32-E019-11D5-929B-00C0DF256EC4}
9
$PSVPSCALE
40
0.0
9
$OLESTARTUP
290
0
0
ENDSEC
0
SECTION
2
CLASSES
0
CLASS
1
RASTERVARIABLES
2
AcDbRasterVariables
3
ISM
90
0
280
0
281
0
0
ENDSEC
0
SECTION
2
TABLES
0
TABLE
2
APPID
5
9
330
0
100
AcDbSymbolTable
70
5
0
APPID
5
12
330
9
100
AcDbSymbolTableRecord
100
AcDbRegAppTableRecord
2
ACAD
70
0
0
APPID
5
E1
330
9
100
AcDbSymbolTableRecord
100
AcDbRegAppTableRecord
2
AcCmTransparency
70
0
0
APPID
5
E2
330
9
100
AcDbSymbolTableRecord
100
AcDbRegAppTableRecord
2
AcAecLayerStandard
70
0
0
APPID
5
E3
330
9
100
AcDbSymbolTableRecord
100
AcDbRegAppTableRecord
2
GradientColor1ACI
70
0
0
APPID
5
E4
330
9
100
AcDbSymbolTableRecord
100
AcDbRegAppTableRecord
2
GradientColor2ACI
70
0
0
ENDTAB
0
TABLE
2
VPORT
5
8
330
0
100
AcDbSymbolTable
70
1
0
VPORT
5
D4
330
8
100
AcDbSymbolTableRecord
100
AcDbViewportTableRecord
2
*Active
70
0
10
0.0
20
0.0
11
1.0
21
1.0
12
0.0
22
0.0
13
0.0
23
0.0
14
0.5
24
0.5
15
10.0
25
10.0
16
0.0
26
0.0
36
1.0
17
0.0
27
0.0
37
0.0
40
10.0
41
1.0
75
0
76
1
0
ENDTAB
0
TABLE
2
LTYPE
5
5
330
0
100
AcDbSymbolTable
70
8
0
LTYPE
5
14
330
5
100
AcDbSymbolTableRecord
100
AcDbLinetypeTableRecord
2
ByBlock
70
0
3

72
65
73
0
40
0.0
0
LTYPE
5
15
330
5
100
AcDbSymbolTableRecord
100
AcDbLinetypeTableRecord
2
ByLayer
70
0
3

72
65
73
0
40
0.0
0
LTYPE
5
16
330
5
100
AcDbSymbolTableRecord
100
AcDbLinetypeTableRecord
2
Continuous
70
0
3
Solid line
72
65
73
0
40
0.0
0
LTYPE
5
6E
330
5
100
AcDbSymbolTableRecord
100
AcDbLinetypeTableRecord
2
HIDDEN
70
0
3
Hidden __ __ __ __ __ __ __ __ __ __ __ __ __ __
72
65
73
2
40
1.905
49
1.27
74
0
49
-0.635
74
0
0
LTYPE
5
6F
330
5
100
AcDbSymbolTableRecord
100
AcDbLinetypeTableRecord
2
PHANTOM
70
0
3
Phantom ______  __  __  ______  __  __  ______
72
65
73
6
40
12.7
49
6.35
74
0
49
-1.27
74
0
49
1.27
74
0
49
-1.27
74
0
49
1.27
74
0
49
-1.27
74
0
0
LTYPE
5
70
330
5
100
AcDbSymbolTableRecord
100
AcDbLinetypeTableRecord
2
CENTER
70
0
3
Center ____ _ ____ _ ____ _ ____ _ ____ _ ____
72
65
73
4
40
10.16
49
6.35
74
0
49
-1.27
74
0
49
1.27
74
0
49
-1.27
74
0
0
LTYPE
5
71
330
5
100
AcDbSymbolTableRecord
100
AcDbLinetypeTableRecord
2
CENTERX2
70
0
3
Center (2x) ________  __  ________  __  _____
72
65
73
4
40
20.32
49
12.7
74
0
49
-2.54
74
0
49
2.54
74
0
49
-2.54
74
0
0
LTYPE
5
72
330
5
100
AcDbSymbolTableRecord
100
AcDbLinetypeTableRecord
2
DOT2
70
0
3
Dot (.5x) ........................................
72
65
73
2
40
0.635
49
0.0
74
0
49
-0.635
74
0
0
ENDTAB
0
TABLE
2
LAYER
5
2
102
{ACAD_XDICTIONARY
360
D5
102
}
330
0
100
AcDbSymbolTable
70
1
0
LAYER
5
10
330
2
100
AcDbSymbolTableRecord
100
AcDbLayerTableRecord
2
0
70
0
62
7
6
Continuous
290
1
370
-3
390
0
0
ENDTAB
0
TABLE
2
STYLE
5
3
330
0
100
AcDbSymbolTable
70
1
0
STYLE
5
11
330
3
100
AcDbSymbolTableRecord
100
AcDbTextStyleTableRecord
2
Standard
3
txt.SHX
70
0
71
0
40
0.0
41
1.0
42
0.0
50
0.0
0
ENDTAB
0
TABLE
2
DIMSTYLE
5
A
330
0
100
AcDbSymbolTable
70
2
100
AcDbDimStyleTable
0
DIMSTYLE
105
27
330
A
100
AcDbSymbolTableRecord
100
AcDbDimStyleTableRecord
2
ISO-25
3

4

40
1.0
41
2.5
42
0.625
43
3.75
44
1.25
45
0.0
46
0.0
47
0.0
48
0.0
49
1.0
70
0
71
0
72
0
73
0
74
0
75
0
76
0
77
1
78
8
79
3
140
2.5
141
2.5
143
0.0393700787
144
1.0
146
1.0
147
0.625
148
0.0
170
0
171
3
172
1
174
0
175
0
176
0
177
0
178
0
179
0
271
2
272
2
273
2
274
3
275
0
276
0
277
2
278
44
279
0
280
0
281
0
282
0
283
0
284
8
285
0
286
0
289
3
290
0
294
0
340
11
173
0
345
14
346
14
347
14
371
-2
372
-2
0
DIMSTYLE
105
DE
330
A
100
AcDbSymbolTableRecord
100
AcDbDimStyleTableRecord
2
Standard
3

4

40
1.0
41
0.18
42
0.0625
43
0.38
44
0.18
45
0.0
46
0.0
47
0.0
48
0.0
49
1.0
70
0
71
0
72
0
73
0
74
0
75
0
76
0
77
0
78
0
79
0
140
0.18
141
0.09
143
25.4
144
1.0
146
1.0
147
0.09
148
0.0
170
0
171
2
172
0
174
0
175
0
176
0
177
0
178
0
179
0
271
4
272
4
273
2
274
2
275
0
276
0
277
2
278
46
279
0
280
0
281
0
282
0
283
1
284
0
285
0
286
0
289
3
290
0
294
0
340
11
173
0
345
14
346
14
347
14
371
-2
372
-2
0
ENDTAB
0
TABLE
2
VIEW
5
6
330
0
100
AcDbSymbolTable
70
0
0
ENDTAB
0
TABLE
2
UCS
5
7
330
0
100
AcDbSymbolTable
70
0
0
ENDTAB
0
TABLE
2
BLOCK_RECORD
5
1
330
0
100
AcDbSymbolTable
70
3
0
BLOCK_RECORD
5
1F
330
1
100
AcDbSymbolTableRecord
100
AcDbBlockTableRecord
2
*Model_Space
340
22
0
BLOCK_RECORD
5
1B
330
1
100
AcDbSymbolTableRecord
100
AcDbBlockTableRecord
2
*Paper_Space
340
1E
0
BLOCK_RECORD
5
23
330
1
100
AcDbSymbolTableRecord
100
AcDbBlockTableRecord
2
*Paper_Space0
340
26
0
ENDTAB
0
ENDSEC
0
SECTION
2
BLOCKS
0
BLOCK
5
20
330
1F
100
AcDbEntity
67
0
8
0
100
AcDbBlockBegin
2
*Model_Space
70
0
10
0.0
20
0.0
30
0.0
3
*Model_Space
4

0
ENDBLK
5
21
330
1F
100
AcDbEntity
8
0
100
AcDbBlockEnd
0
BLOCK
5
1C
330
1B
100
AcDbEntity
67
1
8
0
100
AcDbBlockBegin
2
*Paper_Space
70
0
10
0.0
20
0.0
30
0.0
3
*Paper_Space
4

0
ENDBLK
5
1D
330
1B
100
AcDbEntity
8
0
100
AcDbBlockEnd
0
BLOCK
5
24
330
23
100
AcDbEntity
67
1
8
0
100
AcDbBlockBegin
2
*Paper_Space0
70
0
10
0.0
20
0.0
30
0.0
3
*Paper_Space0
4

0
VIEWPORT
5
DD
330
23
100
AcDbEntity
67
1
8
0
62
256
6
ByLayer
370
-1
48
1.0
60
0
100
AcDbViewport
10
0.0
20
0.0
30
0.0
40
297.0
41
210.0
68
1
69
1
12
50.0
22
100.0
13
0.0
23
0.0
14
10.0
24
10.0
15
10.0
25
10.0
16
0.0
26
0.0
36
1.0
17
0.0
27
0.0
37
0.0
42
50.0
43
0.0
44
0.0
45
250.0
50
0.0
51
0.0
72
1000
90
819232
110
0.0
120
0.0
130
0.0
111
1.0
121
0.0
131
0.0
112
0.0
122
1.0
132
0.0
0
ENDBLK
5
25
330
23
100
AcDbEntity
8
0
100
AcDbBlockEnd
0
ENDSEC
0
SECTION
2
ENTITIES
0
VIEWPORT
5
DC
330
1B
100
AcDbEntity
67
1
8
0
62
256
6
ByLayer
370
-1
48
1.0
60
0
100
AcDbViewport
10
0.0
20
0.0
30
0.0
40
297.0
41
210.0
68
1
69
1
12
50.0
22
100.0
13
0.0
23
0.0
14
10.0
24
10.0
15
10.0
25
10.0
16
0.0
26
0.0
36
1.0
17
0.0
27
0.0
37
0.0
42
50.0
43
0.0
44
0.0
45
250.0
50
0.0
51
0.0
72
1000
90
819232
110
0.0
120
0.0
130
0.0
111
1.0
121
0.0
131
0.0
112
0.0
122
1.0
132
0.0
0
LINE
5
73
330
1F
100
AcDbEntity
67
0
8
0
62
7
6
Continuous
370
25
48
1.0
60
0
100
AcDbLine
10
-730.0
20
-15.0
30
0.0
11
-710.0
21
-15.0
31
0.0
39
0.0
210
0.0
220
0.0
230
1.0
0
ARC
5
74
330
1F
100
AcDbEntity
67
0
8
0
62
7
6
Continuous
370
25
48
1.0
60
0
100
AcDbCircle
39
0.0
10
-710.0
20
-10.0
30
0.0
40
5.00000000000001
210
0.0
220
0.0
230
1.0
100
AcDbArc
50
270.0
51
0.0
0
LINE
5
75
330
1F
100
AcDbEntity
67
0
8
0
62
7
6
Continuous
370
25
48
1.0
60
0
100
AcDbLine
10
-705.0
20
115.8578643763
30
0.0
11
-705.0
21
-10.0
31
0.0
39
0.0
210
0.0
220
0.0
230
1.0
0
ARC
5
76
330
1F
100
AcDbEntity
67
0
8
0
62
7
6
Continuous
370
25
48
1.0
60
0
100
AcDbCircle
39
0.0
10
-695.0
20
115.8578643763
30
0.0
40
10.0
210
0.0
220
0.0
230
1.0
100
AcDbArc
50
135.0
51
180.0
0
LINE
5
77
330
1F
100
AcDbEntity
67
0
8
0
62
7
6
Continuous
370
25
48
1.0
60
0
100
AcDbLine
10
-702.0710678119
20
122.9289321881
30
0.0
11
-647.9289321881
21
177.0710678119
31
0.0
39
0.0
210
0.0
220
0.0
230
1.0
0
ARC
5
78
330
1F
100
AcDbEntity
67
0
8
0
62
7
6
Continuous
370
25
48
1.0
60
0
100
AcDbCircle
39
0.0
10
-640.8578643763
20
170.0
30
0.0
40
10.0000000000001
210
0.0
220
0.0
230
1.0
100
AcDbArc
50
90.0
51
135.0
0
LINE
5
79
330
1F
100
AcDbEntity
67
0
8
0
62
7
6
Continuous
370
25
48
1.0
60
0
100
AcDbLine
10
-50.0
20
180.0
30
0.0
11
-640.8578643763
21
180.0
31
0.0
39
0.0
210
0.0
220
0.0
230
1.0
0
ARC
5
7A
330
1F
100
AcDbEntity
67
0
8
0
62
7
6
Continuous
370
25
48
1.0
60
0
100
AcDbCircle
39
0.0
10
-50.0
20
170.0
30
0.0
40
10.0
210
0.0
220
0.0
230
1.0
100
AcDbArc
50
0.0
51
90.0
0
LINE
5
7B
330
1F
100
AcDbEntity
67
0
8
0
62
7
6
Continuous
370
25
48
1.0
60
0
100
AcDbLine
10
-40.0
20
150.0
30
0.0
11
-40.0
21
170.0
31
0.0
39
0.0
210
0.0
220
0.0
230
1.0
0
ARC
5
7C
330
1F
100
AcDbEntity
67
0
8
0
62
7
6
Continuous
370
25
48
1.0
60
0
100
AcDbCircle
39
0.0
10
-30.0
20
150.0
30
0.0
40
10.0
210
0.0
220
0.0
230
1.0
100
AcDbArc
50
180.0
51
270.0
0
LINE
5
7D
330
1F
100
AcDbEntity
67
0
8
0
62
7
6
Continuous
370
25
48
1.0
60
0
100
AcDbLine
10
-30.0
20
140.0
30
0.0
11
30.0
21
140.0
31
0.0
39
0.0
210
0.0
220
0.0
230
1.0
0
ARC
5
7E
330
1F
100
AcDbEntity
67
0
8
0
62
7
6
Continuous
370
25
48
1.0
60
0
100
AcDbCircle
39
0.0
10
30.0
20
150.0
30
0.0
40
10.0
210
0.0
220
0.0
230
1.0
100
AcDbArc
50
270.0
51
0.0
0
LINE
5
7F
330
1F
100
AcDbEntity
67
0
8
0
62
7
6
Continuous
370
25
48
1.0
60
0
100
AcDbLine
10
40.0
20
150.0
30
0.0
11
40.0
21
170.0
31
0.0
39
0.0
210
0.0
220
0.0
230
1.0
0
ARC
5
80
330
1F
100
AcDbEntity
67
0
8
0
62
7
6
Continuous
370
25
48
1.0
60
0
100
AcDbCircle
39
0.0
10
50.0
20
170.0
30
0.0
40
10.0
210
0.0
220
0.0
230
1.0
100
AcDbArc
50
90.0
51
180.0
0
LINE
5
81
330
1F
100
AcDbEntity
67
0
8
0
62
7
6
Continuous
370
25
48
1.0
60
0
100
AcDbLine
10
640.8578643763
20
180.0
30
0.0
11
50.0
21
180.0
31
0.0
39
0.0
210
0.0
220
0.0
230
1.0
0
ARC
5
82
330
1F
100
AcDbEntity
67
0
8
0
62
7
6
Continuous
370
25
48
1.0
60
0
100
AcDbCircle
39
0.0
10
640.8578643763
20
170.0
30
0.0
40
10.0
210
0.0
220
0.0
230
1.0
100
AcDbArc
50
45.0
51
90.0
0
LINE
5
83
330
1F
100
AcDbEntity
67
0
8
0
62
7
6
Continuous
370
25
48
1.0
60
0
100
AcDbLine
10
647.9289321881
20
177.0710678119
30
0.0
11
702.0710678119
21
122.9289321881
31
0.0
39
0.0
210
0.0
220
0.0
230
1.0
0
ARC
5
84
330
1F
100
AcDbEntity
67
0
8
0
62
7
6
Continuous
370
25
48
1.0
60
0
100
AcDbCircle
39
0.0
10
695.0
20
115.8578643763
30
0.0
40
10.0
210
0.0
220
0.0
230
1.0
100
AcDbArc
50
16.0301038148
51
45.0
0
ARC
5
85
330
1F
100
AcDbEntity
67
0
8
0
62
7
6
Continuous
370
25
48
1.0
60
0
100
AcDbCircle
39
0.0
10
709.4167511068
20
120.0
30
0.0
40
5.00000000000001
210
0.0
220
0.0
230
1.0
100
AcDbArc
50
196.0301038148
51
270.0
0
LINE
5
86
330
1F
100
AcDbEntity
67
0
8
0
62
7
6
Continuous
370
25
48
1.0
60
0
100
AcDbLine
10
709.4167511068
20
115.0
30
0.0
11
730.0
21
115.0
31
0.0
39
0.0
210
0.0
220
0.0
230
1.0
0
ARC
5
87
330
1F
100
AcDbEntity
67
0
8
0
62
7
6
Continuous
370
25
48
1.0
60
0
100
AcDbCircle
39
0.0
10
730.0
20
110.0
30
0.0
40
5.0
210
0.0
220
0.0
230
1.0
100
AcDbArc
50
0.0
51
90.0
0
LINE
5
88
330
1F
100
AcDbEntity
67
0
8
0
62
7
6
Continuous
370
25
48
1.0
60
0
100
AcDbLine
10
735.0
20
110.0
30
0.0
11
735.0
21
20.0
31
0.0
39
0.0
210
0.0
220
0.0
230
1.0
0
ARC
5
89
330
1F
100
AcDbEntity
67
0
8
0
62
7
6
Continuous
370
25
48
1.0
60
0
100
AcDbCircle
39
0.0
10
730.0
20
20.0
30
0.0
40
5.0
210
0.0
220
0.0
230
1.0
100
AcDbArc
50
270.0
51
0.0
0
LINE
5
8A
330
1F
100
AcDbEntity
67
0
8
0
62
7
6
Continuous
370
25
48
1.0
60
0
100
AcDbLine
10
730.0
20
15.0
30
0.0
11
710.0
21
15.0
31
0.0
39
0.0
210
0.0
220
0.0
230
1.0
0
ARC
5
8B
330
1F
100
AcDbEntity
67
0
8
0
62
7
6
Continuous
370
25
48
1.0
60
0
100
AcDbCircle
39
0.0
10
710.0
20
10.0
30
0.0
40
5.0
210
0.0
220
0.0
230
1.0
100
AcDbArc
50
90.0
51
180.0
0
LINE
5
8C
330
1F
100
AcDbEntity
67
0
8
0
62
7
6
Continuous
370
25
48
1.0
60
0
100
AcDbLine
10
705.0
20
-115.8578643763
30
0.0
11
705.0
21
10.0
31
0.0
39
0.0
210
0.0
220
0.0
230
1.0
0
ARC
5
8D
330
1F
100
AcDbEntity
67
0
8
0
62
7
6
Continuous
370
25
48
1.0
60
0
100
AcDbCircle
39
0.0
10
695.0
20
-115.8578643763
30
0.0
40
10.0
210
0.0
220
0.0
230
1.0
100
AcDbArc
50
315.0
51
0.0
0
LINE
5
8E
330
1F
100
AcDbEntity
67
0
8
0
62
7
6
Continuous
370
25
48
1.0
60
0
100
AcDbLine
10
702.0710678119
20
-122.9289321881
30
0.0
11
647.9289321881
21
-177.0710678119
31
0.0
39
0.0
210
0.0
220
0.0
230
1.0
0
ARC
5
8F
330
1F
100
AcDbEntity
67
0
8
0
62
7
6
Continuous
370
25
48
1.0
60
0
100
AcDbCircle
39
0.0
10
640.8578643763
20
-170.0
30
0.0
40
10.0000000000001
210
0.0
220
0.0
230
1.0
100
AcDbArc
50
270.0
51
315.0
0
LINE
5
90
330
1F
100
AcDbEntity
67
0
8
0
62
7
6
Continuous
370
25
48
1.0
60
0
100
AcDbLine
10
50.0
20
-180.0
30
0.0
11
640.8578643763
21
-180.0
31
0.0
39
0.0
210
0.0
220
0.0
230
1.0
0
ARC
5
91
330
1F
100
AcDbEntity
67
0
8
0
62
7
6
Continuous
370
25
48
1.0
60
0
100
AcDbCircle
39
0.0
10
50.0
20
-170.0
30
0.0
40
10.0
210
0.0
220
0.0
230
1.0
100
AcDbArc
50
180.0
51
270.0
0
LINE
5
92
330
1F
100
AcDbEntity
67
0
8
0
62
7
6
Continuous
370
25
48
1.0
60
0
100
AcDbLine
10
40.0
20
-150.0
30
0.0
11
40.0
21
-170.0
31
0.0
39
0.0
210
0.0
220
0.0
230
1.0
0
ARC
5
93
330
1F
100
AcDbEntity
67
0
8
0
62
7
6
Continuous
370
25
48
1.0
60
0
100
AcDbCircle
39
0.0
10
30.0
20
-150.0
30
0.0
40
10.0
210
0.0
220
0.0
230
1.0
100
AcDbArc
50
0.0
51
90.0
0
LINE
5
94
330
1F
100
AcDbEntity
67
0
8
0
62
7
6
Continuous
370
25
48
1.0
60
0
100
AcDbLine
10
-30.0
20
-140.0
30
0.0
11
30.0
21
-140.0
31
0.0
39
0.0
210
0.0
220
0.0
230
1.0
0
ARC
5
95
330
1F
100
AcDbEntity
67
0
8
0
62
7
6
Continuous
370
25
48
1.0
60
0
100
AcDbCircle
39
0.0
10
-30.0
20
-150.0
30
0.0
40
10.0
210
0.0
220
0.0
230
1.0
100
AcDbArc
50
90.0
51
180.0
0
LINE
5
96
330
1F
100
AcDbEntity
67
0
8
0
62
7
6
Continuous
370
25
48
1.0
60
0
100
AcDbLine
10
-40.0
20
-150.0
30
0.0
11
-40.0
21
-170.0
31
0.0
39
0.0
210
0.0
220
0.0
230
1.0
0
ARC
5
97
330
1F
100
AcDbEntity
67
0
8
0
62
7
6
Continuous
370
25
48
1.0
60
0
100
AcDbCircle
39
0.0
10
-50.0
20
-170.0
30
0.0
40
10.0
210
0.0
220
0.0
230
1.0
100
AcDbArc
50
270.0
51
0.0
0
LINE
5
98
330
1F
100
AcDbEntity
67
0
8
0
62
7
6
Continuous
370
25
48
1.0
60
0
100
AcDbLine
10
-640.8578643763
20
-180.0
30
0.0
11
-50.0
21
-180.0
31
0.0
39
0.0
210
0.0
220
0.0
230
1.0
0
ARC
5
99
330
1F
100
AcDbEntity
67
0
8
0
62
7
6
Continuous
370
25
48
1.0
60
0
100
AcDbCircle
39
0.0
10
-640.8578643763
20
-170.0
30
0.0
40
10.0
210
0.0
220
0.0
230
1.0
100
AcDbArc
50
225.0
51
270.0
0
LINE
5
9A
330
1F
100
AcDbEntity
67
0
8
0
62
7
6
Continuous
370
25
48
1.0
60
0
100
AcDbLine
10
-647.9289321881
20
-177.0710678119
30
0.0
11
-702.0710678119
21
-122.9289321881
31
0.0
39
0.0
210
0.0
220
0.0
230
1.0
0
ARC
5
9B
330
1F
100
AcDbEntity
67
0
8
0
62
7
6
Continuous
370
25
48
1.0
60
0
100
AcDbCircle
39
0.0
10
-695.0
20
-115.8578643763
30
0.0
40
10.0
210
0.0
220
0.0
230
1.0
100
AcDbArc
50
196.0301038148
51
225.0
0
ARC
5
9C
330
1F
100
AcDbEntity
67
0
8
0
62
7
6
Continuous
370
25
48
1.0
60
0
100
AcDbCircle
39
0.0
10
-709.4167511068
20
-120.0
30
0.0
40
5.00000000000001
210
0.0
220
0.0
230
1.0
100
AcDbArc
50
16.0301038148
51
90.0
0
LINE
5
9D
330
1F
100
AcDbEntity
67
0
8
0
62
7
6
Continuous
370
25
48
1.0
60
0
100
AcDbLine
10
-709.4167511068
20
-115.0
30
0.0
11
-730.0
21
-115.0
31
0.0
39
0.0
210
0.0
220
0.0
230
1.0
0
ARC
5
9E
330
1F
100
AcDbEntity
67
0
8
0
62
7
6
Continuous
370
25
48
1.0
60
0
100
AcDbCircle
39
0.0
10
-730.0
20
-110.0
30
0.0
40
5.0
210
0.0
220
0.0
230
1.0
100
AcDbArc
50
180.0
51
270.0
0
LINE
5
9F
330
1F
100
AcDbEntity
67
0
8
0
62
7
6
Continuous
370
25
48
1.0
60
0
100
AcDbLine
10
-735.0
20
-110.0
30
0.0
11
-735.0
21
-20.0
31
0.0
39
0.0
210
0.0
220
0.0
230
1.0
0
ARC
5
A0
330
1F
100
AcDbEntity
67
0
8
0
62
7
6
Continuous
370
25
48
1.0
60
0
100
AcDbCircle
39
0.0
10
-730.0
20
-20.0
30
0.0
40
5.0
210
0.0
220
0.0
230
1.0
100
AcDbArc
50
90.0
51
180.0
0
LINE
5
BB
330
1F
100
AcDbEntity
67
0
8
0
62
7
6
Continuous
370
25
48
1.0
60
0
100
AcDbLine
10
-250.5
20
242.5
30
0.0
11
-250.5
21
191.5
31
0.0
39
0.0
210
0.0
220
0.0
230
1.0
0
LINE
5
BC
330
1F
100
AcDbEntity
67
0
8
0
62
7
6
Continuous
370
25
48
1.0
60
0
100
AcDbLine
10
-250.5
20
242.5
30
0.0
11
-734.0
21
242.5
31
0.0
39
0.0
210
0.0
220
0.0
230
1.0
0
LINE
5
BD
330
1F
100
AcDbEntity
67
0
8
0
62
7
6
Continuous
370
25
48
1.0
60
0
100
AcDbLine
10
-734.0
20
201.5
30
0.0
11
-734.0
21
242.5
31
0.0
39
0.0
210
0.0
220
0.0
230
1.0
0
ARC
5
BE
330
1F
100
AcDbEntity
67
0
8
0
62
7
6
Continuous
370
25
48
1.0
60
0
100
AcDbCircle
39
0.0
10
-744.0
20
201.5
30
0.0
40
10.0
210
0.0
220
0.0
230
1.0
100
AcDbArc
50
270.0
51
0.0
0
LINE
5
BF
330
1F
100
AcDbEntity
67
0
8
0
62
7
6
Continuous
370
25
48
1.0
60
0
100
AcDbLine
10
-785.0
20
191.5
30
0.0
11
-744.0
21
191.5
31
0.0
39
0.0
210
0.0
220
0.0
230
1.0
0
LINE
5
C0
330
1F
100
AcDbEntity
67
0
8
0
62
7
6
Continuous
370
25
48
1.0
60
0
100
AcDbLine
10
-785.0
20
191.5
30
0.0
11
-785.0
21
-191.5
31
0.0
39
0.0
210
0.0
220
0.0
230
1.0
0
LINE
5
C1
330
1F
100
AcDbEntity
67
0
8
0
62
7
6
Continuous
370
25
48
1.0
60
0
100
AcDbLine
10
-744.0
20
-191.5
30
0.0
11
-785.0
21
-191.5
31
0.0
39
0.0
210
0.0
220
0.0
230
1.0
0
ARC
5
C2
330
1F
100
AcDbEntity
67
0
8
0
62
7
6
Continuous
370
25
48
1.0
60
0
100
AcDbCircle
39
0.0
10
-744.0
20
-201.5
30
0.0
40
10.0
210
0.0
220
0.0
230
1.0
100
AcDbArc
50
0.0
51
90.0
0
LINE
5
C3
330
1F
100
AcDbEntity
67
0
8
0
62
7
6
Continuous
370
25
48
1.0
60
0
100
AcDbLine
10
-734.0
20
-242.5
30
0.0
11
-734.0
21
-201.5
31
0.0
39
0.0
210
0.0
220
0.0
230
1.0
0
LINE
5
C4
330
1F
100
AcDbEntity
67
0
8
0
62
7
6
Continuous
370
25
48
1.0
60
0
100
AcDbLine
10
-734.0
20
-242.5
30
0.0
11
734.0
21
-242.5
31
0.0
39
0.0
210
0.0
220
0.0
230
1.0
0
LINE
5
C5
330
1F
100
AcDbEntity
67
0
8
0
62
7
6
Continuous
370
25
48
1.0
60
0
100
AcDbLine
10
734.0
20
-201.5
30
0.0
11
734.0
21
-242.5
31
0.0
39
0.0
210
0.0
220
0.0
230
1.0
0
ARC
5
C6
330
1F
100
AcDbEntity
67
0
8
0
62
7
6
Continuous
370
25
48
1.0
60
0
100
AcDbCircle
39
0.0
10
744.0
20
-201.5
30
0.0
40
10.0
210
0.0
220
0.0
230
1.0
100
AcDbArc
50
90.0
51
180.0
0
LINE
5
C7
330
1F
100
AcDbEntity
67
0
8
0
62
7
6
Continuous
370
25
48
1.0
60
0
100
AcDbLine
10
785.0
20
-191.5
30
0.0
11
744.0
21
-191.5
31
0.0
39
0.0
210
0.0
220
0.0
230
1.0
0
LINE
5
C8
330
1F
100
AcDbEntity
67
0
8
0
62
7
6
Continuous
370
25
48
1.0
60
0
100
AcDbLine
10
785.0
20
-191.5
30
0.0
11
785.0
21
191.5
31
0.0
39
0.0
210
0.0
220
0.0
230
1.0
0
LINE
5
C9
330
1F
100
AcDbEntity
67
0
8
0
62
7
6
Continuous
370
25
48
1.0
60
0
100
AcDbLine
10
744.0
20
191.5
30
0.0
11
785.0
21
191.5
31
0.0
39
0.0
210
0.0
220
0.0
230
1.0
0
ARC
5
CA
330
1F
100
AcDbEntity
67
0
8
0
62
7
6
Continuous
370
25
48
1.0
60
0
100
AcDbCircle
39
0.0
10
744.0
20
201.5
30
0.0
40
10.0
210
0.0
220
0.0
230
1.0
100
AcDbArc
50
180.0
51
270.0
0
LINE
5
CB
330
1F
100
AcDbEntity
67
0
8
0
62
7
6
Continuous
370
25
48
1.0
60
0
100
AcDbLine
10
734.0
20
242.5
30
0.0
11
734.0
21
201.5
31
0.0
39
0.0
210
0.0
220
0.0
230
1.0
0
LINE
5
CC
330
1F
100
AcDbEntity
67
0
8
0
62
7
6
Continuous
370
25
48
1.0
60
0
100
AcDbLine
10
734.0
20
242.5
30
0.0
11
250.5
21
242.5
31
0.0
39
0.0
210
0.0
220
0.0
230
1.0
0
LINE
5
CD
330
1F
100
AcDbEntity
67
0
8
0
62
7
6
Continuous
370
25
48
1.0
60
0
100
AcDbLine
10
250.5
20
191.5
30
0.0
11
250.5
21
242.5
31
0.0
39
0.0
210
0.0
220
0.0
230
1.0
0
LINE
5
CE
330
1F
100
AcDbEntity
67
0
8
0
62
7
6
Continuous
370
25
48
1.0
60
0
100
AcDbLine
10
199.5
20
191.5
30
0.0
11
250.5
21
191.5
31
0.0
39
0.0
210
0.0
220
0.0
230
1.0
0
LINE
5
CF
330
1F
100
AcDbEntity
67
0
8
0
62
7
6
Continuous
370
25
48
1.0
60
0
100
AcDbLine
10
199.5
20
242.5
30
0.0
11
199.5
21
191.5
31
0.0
39
0.0
210
0.0
220
0.0
230
1.0
0
LINE
5
D0
330
1F
100
AcDbEntity
67
0
8
0
62
7
6
Continuous
370
25
48
1.0
60
0
100
AcDbLine
10
199.5
20
242.5
30
0.0
11
-199.5
21
242.5
31
0.0
39
0.0
210
0.0
220
0.0
230
1.0
0
LINE
5
D1
330
1F
100
AcDbEntity
67
0
8
0
62
7
6
Continuous
370
25
48
1.0
60
0
100
AcDbLine
10
-199.5
20
191.5
30
0.0
11
-199.5
21
242.5
31
0.0
39
0.0
210
0.0
220
0.0
230
1.0
0
LINE
5
D2
330
1F
100
AcDbEntity
67
0
8
0
62
7
6
Continuous
370
25
48
1.0
60
0
100
AcDbLine
10
-250.5
20
191.5
30
0.0
11
-199.5
21
191.5
31
0.0
39
0.0
210
0.0
220
0.0
230
1.0
0
LINE
5
DF
330
1F
100
AcDbEntity
67
0
8
0
62
5
6
ByLayer
370
-1
48
1.0
60
0
100
AcDbLine
10
-705.0
20
162.5
30
0.0
11
-695.0
21
162.5
31
0.0
39
0.0
210
0.0
220
0.0
230
1.0
0
LINE
5
E0
330
1F
100
AcDbEntity
67
0
8
0
62
5
6
ByLayer
370
-1
48
1.0
60
0
100
AcDbLine
10
-700.0
20
157.5
30
0.0
11
-700.0
21
167.5
31
0.0
39
0.0
210
0.0
220
0.0
230
1.0
0
LINE
5
E7
330
1F
100
AcDbEntity
67
0
8
0
62
5
6
ByLayer
370
-1
48
1.0
60
0
100
AcDbLine
10
-705.0
20
162.5
30
0.0
11
-695.0
21
162.5
31
0.0
39
0.0
210
0.0
220
0.0
230
1.0
0
LINE
5
E8
330
1F
100
AcDbEntity
67
0
8
0
62
5
6
ByLayer
370
-1
48
1.0
60
0
100
AcDbLine
10
-700.0
20
157.5
30
0.0
11
-700.0
21
167.5
31
0.0
39
0.0
210
0.0
220
0.0
230
1.0
0
LINE
5
EB
330
1F
100
AcDbEntity
67
0
8
0
62
5
6
ByLayer
370
-1
48
1.0
60
0
100
AcDbLine
10
-705.0
20
162.5
30
0.0
11
-695.0
21
162.5
31
0.0
39
0.0
210
0.0
220
0.0
230
1.0
0
LINE
5
EC
330
1F
100
AcDbEntity
67
0
8
0
62
5
6
ByLayer
370
-1
48
1.0
60
0
100
AcDbLine
10
-700.0
20
157.5
30
0.0
11
-700.0
21
167.5
31
0.0
39
0.0
210
0.0
220
0.0
230
1.0
0
LINE
5
EF
330
1F
100
AcDbEntity
67
0
8
0
62
5
6
ByLayer
370
-1
48
1.0
60
0
100
AcDbLine
10
-705.0
20
162.5
30
0.0
11
-695.0
21
162.5
31
0.0
39
0.0
210
0.0
220
0.0
230
1.0
0
LINE
5
F0
330
1F
100
AcDbEntity
67
0
8
0
62
5
6
ByLayer
370
-1
48
1.0
60
0
100
AcDbLine
10
-700.0
20
157.5
30
0.0
11
-700.0
21
167.5
31
0.0
39
0.0
210
0.0
220
0.0
230
1.0
0
LINE
5
F3
330
1F
100
AcDbEntity
67
0
8
0
62
5
6
ByLayer
370
-1
48
1.0
60
0
100
AcDbLine
10
-705.0
20
162.5
30
0.0
11
-695.0
21
162.5
31
0.0
39
0.0
210
0.0
220
0.0
230
1.0
0
LINE
5
F4
330
1F
100
AcDbEntity
67
0
8
0
62
5
6
ByLayer
370
-1
48
1.0
60
0
100
AcDbLine
10
-700.0
20
157.5
30
0.0
11
-700.0
21
167.5
31
0.0
39
0.0
210
0.0
220
0.0
230
1.0
0
LINE
5
F7
330
1F
100
AcDbEntity
67
0
8
0
62
5
6
ByLayer
370
-1
48
1.0
60
0
100
AcDbLine
10
-705.0
20
162.5
30
0.0
11
-695.0
21
162.5
31
0.0
39
0.0
210
0.0
220
0.0
230
1.0
0
LINE
5
F8
330
1F
100
AcDbEntity
67
0
8
0
62
5
6
ByLayer
370
-1
48
1.0
60
0
100
AcDbLine
10
-700.0
20
157.5
30
0.0
11
-700.0
21
167.5
31
0.0
39
0.0
210
0.0
220
0.0
230
1.0
0
LINE
5
FB
330
1F
100
AcDbEntity
67
0
8
0
62
5
6
ByLayer
370
-1
48
1.0
60
0
100
AcDbLine
10
-705.0
20
162.5
30
0.0
11
-695.0
21
162.5
31
0.0
39
0.0
210
0.0
220
0.0
230
1.0
0
LINE
5
FC
330
1F
100
AcDbEntity
67
0
8
0
62
5
6
ByLayer
370
-1
48
1.0
60
0
100
AcDbLine
10
-700.0
20
157.5
30
0.0
11
-700.0
21
167.5
31
0.0
39
0.0
210
0.0
220
0.0
230
1.0
0
LINE
5
FF
330
1F
100
AcDbEntity
67
0
8
0
62
5
6
ByLayer
370
-1
48
1.0
60
0
100
AcDbLine
10
-705.0
20
162.5
30
0.0
11
-695.0
21
162.5
31
0.0
39
0.0
210
0.0
220
0.0
230
1.0
0
LINE
5
100
330
1F
100
AcDbEntity
67
0
8
0
62
5
6
ByLayer
370
-1
48
1.0
60
0
100
AcDbLine
10
-700.0
20
157.5
30
0.0
11
-700.0
21
167.5
31
0.0
39
0.0
210
0.0
220
0.0
230
1.0
0
LINE
5
103
330
1F
100
AcDbEntity
67
0
8
0
62
5
6
ByLayer
370
-1
48
1.0
60
0
100
AcDbLine
10
-705.0
20
162.5
30
0.0
11
-695.0
21
162.5
31
0.0
39
0.0
210
0.0
220
0.0
230
1.0
0
LINE
5
104
330
1F
100
AcDbEntity
67
0
8
0
62
5
6
ByLayer
370
-1
48
1.0
60
0
100
AcDbLine
10
-700.0
20
157.5
30
0.0
11
-700.0
21
167.5
31
0.0
39
0.0
210
0.0
220
0.0
230
1.0
0
LINE
5
107
330
1F
100
AcDbEntity
67
0
8
0
62
5
6
ByLayer
370
-1
48
1.0
60
0
100
AcDbLine
10
-705.0
20
162.5
30
0.0
11
-695.0
21
162.5
31
0.0
39
0.0
210
0.0
220
0.0
230
1.0
0
LINE
5
108
330
1F
100
AcDbEntity
67
0
8
0
62
5
6
ByLayer
370
-1
48
1.0
60
0
100
AcDbLine
10
-700.0
20
157.5
30
0.0
11
-700.0
21
167.5
31
0.0
39
0.0
210
0.0
220
0.0
230
1.0
0
LINE
5
10B
330
1F
100
AcDbEntity
67
0
8
0
62
5
6
ByLayer
370
-1
48
1.0
60
0
100
AcDbLine
10
-705.0
20
162.5
30
0.0
11
-695.0
21
162.5
31
0.0
39
0.0
210
0.0
220
0.0
230
1.0
0
LINE
5
10C
330
1F
100
AcDbEntity
67
0
8
0
62
5
6
ByLayer
370
-1
48
1.0
60
0
100
AcDbLine
10
-700.0
20
157.5
30
0.0
11
-700.0
21
167.5
31
0.0
39
0.0
210
0.0
220
0.0
230
1.0
0
LINE
5
10F
330
1F
100
AcDbEntity
67
0
8
0
62
5
6
ByLayer
370
-1
48
1.0
60
0
100
AcDbLine
10
-705.0
20
162.5
30
0.0
11
-695.0
21
162.5
31
0.0
39
0.0
210
0.0
220
0.0
230
1.0
0
LINE
5
110
330
1F
100
AcDbEntity
67
0
8
0
62
5
6
ByLayer
370
-1
48
1.0
60
0
100
AcDbLine
10
-700.0
20
157.5
30
0.0
11
-700.0
21
167.5
31
0.0
39
0.0
210
0.0
220
0.0
230
1.0
0
LINE
5
113
330
1F
100
AcDbEntity
67
0
8
0
62
5
6
ByLayer
370
-1
48
1.0
60
0
100
AcDbLine
10
-705.0
20
162.5
30
0.0
11
-695.0
21
162.5
31
0.0
39
0.0
210
0.0
220
0.0
230
1.0
0
LINE
5
114
330
1F
100
AcDbEntity
67
0
8
0
62
5
6
ByLayer
370
-1
48
1.0
60
0
100
AcDbLine
10
-700.0
20
157.5
30
0.0
11
-700.0
21
167.5
31
0.0
39
0.0
210
0.0
220
0.0
230
1.0
0
LINE
5
117
330
1F
100
AcDbEntity
67
0
8
0
62
5
6
ByLayer
370
-1
48
1.0
60
0
100
AcDbLine
10
-705.0
20
162.5
30
0.0
11
-695.0
21
162.5
31
0.0
39
0.0
210
0.0
220
0.0
230
1.0
0
LINE
5
118
330
1F
100
AcDbEntity
67
0
8
0
62
5
6
ByLayer
370
-1
48
1.0
60
0
100
AcDbLine
10
-700.0
20
157.5
30
0.0
11
-700.0
21
167.5
31
0.0
39
0.0
210
0.0
220
0.0
230
1.0
0
LINE
5
11B
330
1F
100
AcDbEntity
67
0
8
0
62
5
6
ByLayer
370
-1
48
1.0
60
0
100
AcDbLine
10
-705.0
20
162.5
30
0.0
11
-695.0
21
162.5
31
0.0
39
0.0
210
0.0
220
0.0
230
1.0
0
LINE
5
11C
330
1F
100
AcDbEntity
67
0
8
0
62
5
6
ByLayer
370
-1
48
1.0
60
0
100
AcDbLine
10
-700.0
20
157.5
30
0.0
11
-700.0
21
167.5
31
0.0
39
0.0
210
0.0
220
0.0
230
1.0
0
LINE
5
11F
330
1F
100
AcDbEntity
67
0
8
0
62
5
6
ByLayer
370
-1
48
1.0
60
0
100
AcDbLine
10
-705.0
20
162.5
30
0.0
11
-695.0
21
162.5
31
0.0
39
0.0
210
0.0
220
0.0
230
1.0
0
LINE
5
120
330
1F
100
AcDbEntity
67
0
8
0
62
5
6
ByLayer
370
-1
48
1.0
60
0
100
AcDbLine
10
-700.0
20
157.5
30
0.0
11
-700.0
21
167.5
31
0.0
39
0.0
210
0.0
220
0.0
230
1.0
0
LINE
5
123
330
1F
100
AcDbEntity
67
0
8
0
62
5
6
ByLayer
370
-1
48
1.0
60
0
100
AcDbLine
10
-705.0
20
162.5
30
0.0
11
-695.0
21
162.5
31
0.0
39
0.0
210
0.0
220
0.0
230
1.0
0
LINE
5
124
330
1F
100
AcDbEntity
67
0
8
0
62
5
6
ByLayer
370
-1
48
1.0
60
0
100
AcDbLine
10
-700.0
20
157.5
30
0.0
11
-700.0
21
167.5
31
0.0
39
0.0
210
0.0
220
0.0
230
1.0
0
LINE
5
127
330
1F
100
AcDbEntity
67
0
8
0
62
5
6
ByLayer
370
-1
48
1.0
60
0
100
AcDbLine
10
-5.0
20
162.5
30
0.0
11
5.0
21
162.5
31
0.0
39
0.0
210
0.0
220
0.0
230
1.0
0
LINE
5
128
330
1F
100
AcDbEntity
67
0
8
0
62
5
6
ByLayer
370
-1
48
1.0
60
0
100
AcDbLine
10
0.0
20
157.5
30
0.0
11
0.0
21
167.5
31
0.0
39
0.0
210
0.0
220
0.0
230
1.0
0
LINE
5
12B
330
1F
100
AcDbEntity
67
0
8
0
62
5
6
ByLayer
370
-1
48
1.0
60
0
100
AcDbLine
10
-5.0
20
-162.5
30
0.0
11
5.0
21
-162.5
31
0.0
39
0.0
210
0.0
220
0.0
230
1.0
0
LINE
5
12C
330
1F
100
AcDbEntity
67
0
8
0
62
5
6
ByLayer
370
-1
48
1.0
60
0
100
AcDbLine
10
0.0
20
-167.5
30
0.0
11
0.0
21
-157.5
31
0.0
39
0.0
210
0.0
220
0.0
230
1.0
0
LINE
5
12F
330
1F
100
AcDbEntity
67
0
8
0
62
5
6
ByLayer
370
-1
48
1.0
60
0
100
AcDbLine
10
-5.0
20
-162.5
30
0.0
11
5.0
21
-162.5
31
0.0
39
0.0
210
0.0
220
0.0
230
1.0
0
LINE
5
130
330
1F
100
AcDbEntity
67
0
8
0
62
5
6
ByLayer
370
-1
48
1.0
60
0
100
AcDbLine
10
0.0
20
-167.5
30
0.0
11
0.0
21
-157.5
31
0.0
39
0.0
210
0.0
220
0.0
230
1.0
0
LINE
5
133
330
1F
100
AcDbEntity
67
0
8
0
62
5
6
ByLayer
370
-1
48
1.0
60
0
100
AcDbLine
10
-5.0
20
-162.5
30
0.0
11
5.0
21
-162.5
31
0.0
39
0.0
210
0.0
220
0.0
230
1.0
0
LINE
5
134
330
1F
100
AcDbEntity
67
0
8
0
62
5
6
ByLayer
370
-1
48
1.0
60
0
100
AcDbLine
10
0.0
20
-167.5
30
0.0
11
0.0
21
-157.5
31
0.0
39
0.0
210
0.0
220
0.0
230
1.0
0
LINE
5
137
330
1F
100
AcDbEntity
67
0
8
0
62
5
6
ByLayer
370
-1
48
1.0
60
0
100
AcDbLine
10
-705.0
20
-162.5
30
0.0
11
-695.0
21
-162.5
31
0.0
39
0.0
210
0.0
220
0.0
230
1.0
0
LINE
5
138
330
1F
100
AcDbEntity
67
0
8
0
62
5
6
ByLayer
370
-1
48
1.0
60
0
100
AcDbLine
10
-700.0
20
-167.5
30
0.0
11
-700.0
21
-157.5
31
0.0
39
0.0
210
0.0
220
0.0
230
1.0
0
LINE
5
13B
330
1F
100
AcDbEntity
67
0
8
0
62
5
6
ByLayer
370
-1
48
1.0
60
0
100
AcDbLine
10
15.0
20
-215.0
30
0.0
11
25.0
21
-215.0
31
0.0
39
0.0
210
0.0
220
0.0
230
1.0
0
LINE
5
13C
330
1F
100
AcDbEntity
67
0
8
0
62
5
6
ByLayer
370
-1
48
1.0
60
0
100
AcDbLine
10
20.0
20
-220.0
30
0.0
11
20.0
21
-210.0
31
0.0
39
0.0
210
0.0
220
0.0
230
1.0
0
LINE
5
13F
330
1F
100
AcDbEntity
67
0
8
0
62
5
6
ByLayer
370
-1
48
1.0
60
0
100
AcDbLine
10
-25.0
20
-215.0
30
0.0
11
-15.0
21
-215.0
31
0.0
39
0.0
210
0.0
220
0.0
230
1.0
0
LINE
5
140
330
1F
100
AcDbEntity
67
0
8
0
62
5
6
ByLayer
370
-1
48
1.0
60
0
100
AcDbLine
10
-20.0
20
-220.0
30
0.0
11
-20.0
21
-210.0
31
0.0
39
0.0
210
0.0
220
0.0
230
1.0
0
LINE
5
143
330
1F
100
AcDbEntity
67
0
8
0
62
5
6
ByLayer
370
-1
48
1.0
60
0
100
AcDbLine
10
-25.0
20
-235.0
30
0.0
11
-15.0
21
-235.0
31
0.0
39
0.0
210
0.0
220
0.0
230
1.0
0
LINE
5
144
330
1F
100
AcDbEntity
67
0
8
0
62
5
6
ByLayer
370
-1
48
1.0
60
0
100
AcDbLine
10
-20.0
20
-240.0
30
0.0
11
-20.0
21
-230.0
31
0.0
39
0.0
210
0.0
220
0.0
230
1.0
0
LINE
5
147
330
1F
100
AcDbEntity
67
0
8
0
62
5
6
ByLayer
370
-1
48
1.0
60
0
100
AcDbLine
10
15.0
20
-235.0
30
0.0
11
25.0
21
-235.0
31
0.0
39
0.0
210
0.0
220
0.0
230
1.0
0
LINE
5
148
330
1F
100
AcDbEntity
67
0
8
0
62
5
6
ByLayer
370
-1
48
1.0
60
0
100
AcDbLine
10
20.0
20
-240.0
30
0.0
11
20.0
21
-230.0
31
0.0
39
0.0
210
0.0
220
0.0
230
1.0
0
LINE
5
14B
330
1F
100
AcDbEntity
67
0
8
0
62
5
6
ByLayer
370
-1
48
1.0
60
0
100
AcDbLine
10
-239.5
20
-215.0
30
0.0
11
-229.5
21
-215.0
31
0.0
39
0.0
210
0.0
220
0.0
230
1.0
0
LINE
5
14C
330
1F
100
AcDbEntity
67
0
8
0
62
5
6
ByLayer
370
-1
48
1.0
60
0
100
AcDbLine
10
-234.5
20
-220.0
30
0.0
11
-234.5
21
-210.0
31
0.0
39
0.0
210
0.0
220
0.0
230
1.0
0
LINE
5
14F
330
1F
100
AcDbEntity
67
0
8
0
62
5
6
ByLayer
370
-1
48
1.0
60
0
100
AcDbLine
10
-279.5
20
-215.0
30
0.0
11
-269.5
21
-215.0
31
0.0
39
0.0
210
0.0
220
0.0
230
1.0
0
LINE
5
150
330
1F
100
AcDbEntity
67
0
8
0
62
5
6
ByLayer
370
-1
48
1.0
60
0
100
AcDbLine
10
-274.5
20
-220.0
30
0.0
11
-274.5
21
-210.0
31
0.0
39
0.0
210
0.0
220
0.0
230
1.0
0
LINE
5
153
330
1F
100
AcDbEntity
67
0
8
0
62
5
6
ByLayer
370
-1
48
1.0
60
0
100
AcDbLine
10
-279.5
20
-235.0
30
0.0
11
-269.5
21
-235.0
31
0.0
39
0.0
210
0.0
220
0.0
230
1.0
0
LINE
5
154
330
1F
100
AcDbEntity
67
0
8
0
62
5
6
ByLayer
370
-1
48
1.0
60
0
100
AcDbLine
10
-274.5
20
-240.0
30
0.0
11
-274.5
21
-230.0
31
0.0
39
0.0
210
0.0
220
0.0
230
1.0
0
LINE
5
157
330
1F
100
AcDbEntity
67
0
8
0
62
5
6
ByLayer
370
-1
48
1.0
60
0
100
AcDbLine
10
-239.5
20
-235.0
30
0.0
11
-229.5
21
-235.0
31
0.0
39
0.0
210
0.0
220
0.0
230
1.0
0
LINE
5
158
330
1F
100
AcDbEntity
67
0
8
0
62
5
6
ByLayer
370
-1
48
1.0
60
0
100
AcDbLine
10
-234.5
20
-240.0
30
0.0
11
-234.5
21
-230.0
31
0.0
39
0.0
210
0.0
220
0.0
230
1.0
0
LINE
5
15B
330
1F
100
AcDbEntity
67
0
8
0
62
5
6
ByLayer
370
-1
48
1.0
60
0
100
AcDbLine
10
-539.5
20
-215.0
30
0.0
11
-529.5
21
-215.0
31
0.0
39
0.0
210
0.0
220
0.0
230
1.0
0
LINE
5
15C
330
1F
100
AcDbEntity
67
0
8
0
62
5
6
ByLayer
370
-1
48
1.0
60
0
100
AcDbLine
10
-534.5
20
-220.0
30
0.0
11
-534.5
21
-210.0
31
0.0
39
0.0
210
0.0
220
0.0
230
1.0
0
LINE
5
15F
330
1F
100
AcDbEntity
67
0
8
0
62
5
6
ByLayer
370
-1
48
1.0
60
0
100
AcDbLine
10
-539.5
20
-235.0
30
0.0
11
-529.5
21
-235.0
31
0.0
39
0.0
210
0.0
220
0.0
230
1.0
0
LINE
5
160
330
1F
100
AcDbEntity
67
0
8
0
62
5
6
ByLayer
370
-1
48
1.0
60
0
100
AcDbLine
10
-534.5
20
-240.0
30
0.0
11
-534.5
21
-230.0
31
0.0
39
0.0
210
0.0
220
0.0
230
1.0
0
LINE
5
163
330
1F
100
AcDbEntity
67
0
8
0
62
5
6
ByLayer
370
-1
48
1.0
60
0
100
AcDbLine
10
-579.5
20
-235.0
30
0.0
11
-569.5
21
-235.0
31
0.0
39
0.0
210
0.0
220
0.0
230
1.0
0
LINE
5
164
330
1F
100
AcDbEntity
67
0
8
0
62
5
6
ByLayer
370
-1
48
1.0
60
0
100
AcDbLine
10
-574.5
20
-240.0
30
0.0
11
-574.5
21
-230.0
31
0.0
39
0.0
210
0.0
220
0.0
230
1.0
0
LINE
5
167
330
1F
100
AcDbEntity
67
0
8
0
62
5
6
ByLayer
370
-1
48
1.0
60
0
100
AcDbLine
10
-579.5
20
-215.0
30
0.0
11
-569.5
21
-215.0
31
0.0
39
0.0
210
0.0
220
0.0
230
1.0
0
LINE
5
168
330
1F
100
AcDbEntity
67
0
8
0
62
5
6
ByLayer
370
-1
48
1.0
60
0
100
AcDbLine
10
-574.5
20
-220.0
30
0.0
11
-574.5
21
-210.0
31
0.0
39
0.0
210
0.0
220
0.0
230
1.0
0
LINE
5
16B
330
1F
100
AcDbEntity
67
0
8
0
62
5
6
ByLayer
370
-1
48
1.0
60
0
100
AcDbLine
10
229.5
20
-215.0
30
0.0
11
239.5
21
-215.0
31
0.0
39
0.0
210
0.0
220
0.0
230
1.0
0
LINE
5
16C
330
1F
100
AcDbEntity
67
0
8
0
62
5
6
ByLayer
370
-1
48
1.0
60
0
100
AcDbLine
10
234.5
20
-220.0
30
0.0
11
234.5
21
-210.0
31
0.0
39
0.0
210
0.0
220
0.0
230
1.0
0
LINE
5
16F
330
1F
100
AcDbEntity
67
0
8
0
62
5
6
ByLayer
370
-1
48
1.0
60
0
100
AcDbLine
10
229.5
20
-235.0
30
0.0
11
239.5
21
-235.0
31
0.0
39
0.0
210
0.0
220
0.0
230
1.0
0
LINE
5
170
330
1F
100
AcDbEntity
67
0
8
0
62
5
6
ByLayer
370
-1
48
1.0
60
0
100
AcDbLine
10
234.5
20
-240.0
30
0.0
11
234.5
21
-230.0
31
0.0
39
0.0
210
0.0
220
0.0
230
1.0
0
LINE
5
173
330
1F
100
AcDbEntity
67
0
8
0
62
5
6
ByLayer
370
-1
48
1.0
60
0
100
AcDbLine
10
269.5
20
-215.0
30
0.0
11
279.5
21
-215.0
31
0.0
39
0.0
210
0.0
220
0.0
230
1.0
0
LINE
5
174
330
1F
100
AcDbEntity
67
0
8
0
62
5
6
ByLayer
370
-1
48
1.0
60
0
100
AcDbLine
10
274.5
20
-220.0
30
0.0
11
274.5
21
-210.0
31
0.0
39
0.0
210
0.0
220
0.0
230
1.0
0
LINE
5
177
330
1F
100
AcDbEntity
67
0
8
0
62
5
6
ByLayer
370
-1
48
1.0
60
0
100
AcDbLine
10
269.5
20
-235.0
30
0.0
11
279.5
21
-235.0
31
0.0
39
0.0
210
0.0
220
0.0
230
1.0
0
LINE
5
178
330
1F
100
AcDbEntity
67
0
8
0
62
5
6
ByLayer
370
-1
48
1.0
60
0
100
AcDbLine
10
274.5
20
-240.0
30
0.0
11
274.5
21
-230.0
31
0.0
39
0.0
210
0.0
220
0.0
230
1.0
0
LINE
5
17B
330
1F
100
AcDbEntity
67
0
8
0
62
5
6
ByLayer
370
-1
48
1.0
60
0
100
AcDbLine
10
269.5
20
-235.0
30
0.0
11
279.5
21
-235.0
31
0.0
39
0.0
210
0.0
220
0.0
230
1.0
0
LINE
5
17C
330
1F
100
AcDbEntity
67
0
8
0
62
5
6
ByLayer
370
-1
48
1.0
60
0
100
AcDbLine
10
274.5
20
-240.0
30
0.0
11
274.5
21
-230.0
31
0.0
39
0.0
210
0.0
220
0.0
230
1.0
0
LINE
5
17F
330
1F
100
AcDbEntity
67
0
8
0
62
5
6
ByLayer
370
-1
48
1.0
60
0
100
AcDbLine
10
269.5
20
-235.0
30
0.0
11
279.5
21
-235.0
31
0.0
39
0.0
210
0.0
220
0.0
230
1.0
0
LINE
5
180
330
1F
100
AcDbEntity
67
0
8
0
62
5
6
ByLayer
370
-1
48
1.0
60
0
100
AcDbLine
10
274.5
20
-240.0
30
0.0
11
274.5
21
-230.0
31
0.0
39
0.0
210
0.0
220
0.0
230
1.0
0
LINE
5
183
330
1F
100
AcDbEntity
67
0
8
0
62
5
6
ByLayer
370
-1
48
1.0
60
0
100
AcDbLine
10
269.5
20
-235.0
30
0.0
11
279.5
21
-235.0
31
0.0
39
0.0
210
0.0
220
0.0
230
1.0
0
LINE
5
184
330
1F
100
AcDbEntity
67
0
8
0
62
5
6
ByLayer
370
-1
48
1.0
60
0
100
AcDbLine
10
274.5
20
-240.0
30
0.0
11
274.5
21
-230.0
31
0.0
39
0.0
210
0.0
220
0.0
230
1.0
0
LINE
5
187
330
1F
100
AcDbEntity
67
0
8
0
62
5
6
ByLayer
370
-1
48
1.0
60
0
100
AcDbLine
10
269.5
20
-235.0
30
0.0
11
279.5
21
-235.0
31
0.0
39
0.0
210
0.0
220
0.0
230
1.0
0
LINE
5
188
330
1F
100
AcDbEntity
67
0
8
0
62
5
6
ByLayer
370
-1
48
1.0
60
0
100
AcDbLine
10
274.5
20
-240.0
30
0.0
11
274.5
21
-230.0
31
0.0
39
0.0
210
0.0
220
0.0
230
1.0
0
LINE
5
18B
330
1F
100
AcDbEntity
67
0
8
0
62
5
6
ByLayer
370
-1
48
1.0
60
0
100
AcDbLine
10
269.5
20
-235.0
30
0.0
11
279.5
21
-235.0
31
0.0
39
0.0
210
0.0
220
0.0
230
1.0
0
LINE
5
18C
330
1F
100
AcDbEntity
67
0
8
0
62
5
6
ByLayer
370
-1
48
1.0
60
0
100
AcDbLine
10
274.5
20
-240.0
30
0.0
11
274.5
21
-230.0
31
0.0
39
0.0
210
0.0
220
0.0
230
1.0
0
LINE
5
18F
330
1F
100
AcDbEntity
67
0
8
0
62
5
6
ByLayer
370
-1
48
1.0
60
0
100
AcDbLine
10
269.5
20
-235.0
30
0.0
11
279.5
21
-235.0
31
0.0
39
0.0
210
0.0
220
0.0
230
1.0
0
LINE
5
190
330
1F
100
AcDbEntity
67
0
8
0
62
5
6
ByLayer
370
-1
48
1.0
60
0
100
AcDbLine
10
274.5
20
-240.0
30
0.0
11
274.5
21
-230.0
31
0.0
39
0.0
210
0.0
220
0.0
230
1.0
0
LINE
5
193
330
1F
100
AcDbEntity
67
0
8
0
62
5
6
ByLayer
370
-1
48
1.0
60
0
100
AcDbLine
10
269.5
20
-235.0
30
0.0
11
279.5
21
-235.0
31
0.0
39
0.0
210
0.0
220
0.0
230
1.0
0
LINE
5
194
330
1F
100
AcDbEntity
67
0
8
0
62
5
6
ByLayer
370
-1
48
1.0
60
0
100
AcDbLine
10
274.5
20
-240.0
30
0.0
11
274.5
21
-230.0
31
0.0
39
0.0
210
0.0
220
0.0
230
1.0
0
LINE
5
197
330
1F
100
AcDbEntity
67
0
8
0
62
5
6
ByLayer
370
-1
48
1.0
60
0
100
AcDbLine
10
269.5
20
-235.0
30
0.0
11
279.5
21
-235.0
31
0.0
39
0.0
210
0.0
220
0.0
230
1.0
0
LINE
5
198
330
1F
100
AcDbEntity
67
0
8
0
62
5
6
ByLayer
370
-1
48
1.0
60
0
100
AcDbLine
10
274.5
20
-240.0
30
0.0
11
274.5
21
-230.0
31
0.0
39
0.0
210
0.0
220
0.0
230
1.0
0
LINE
5
19B
330
1F
100
AcDbEntity
67
0
8
0
62
5
6
ByLayer
370
-1
48
1.0
60
0
100
AcDbLine
10
695.0
20
-162.5
30
0.0
11
705.0
21
-162.5
31
0.0
39
0.0
210
0.0
220
0.0
230
1.0
0
LINE
5
19C
330
1F
100
AcDbEntity
67
0
8
0
62
5
6
ByLayer
370
-1
48
1.0
60
0
100
AcDbLine
10
700.0
20
-167.5
30
0.0
11
700.0
21
-157.5
31
0.0
39
0.0
210
0.0
220
0.0
230
1.0
0
LINE
5
19F
330
1F
100
AcDbEntity
67
0
8
0
62
5
6
ByLayer
370
-1
48
1.0
60
0
100
AcDbLine
10
695.0
20
162.5
30
0.0
11
705.0
21
162.5
31
0.0
39
0.0
210
0.0
220
0.0
230
1.0
0
LINE
5
1A0
330
1F
100
AcDbEntity
67
0
8
0
62
5
6
ByLayer
370
-1
48
1.0
60
0
100
AcDbLine
10
700.0
20
157.5
30
0.0
11
700.0
21
167.5
31
0.0
39
0.0
210
0.0
220
0.0
230
1.0
0
LINE
5
1A3
330
1F
100
AcDbEntity
67
0
8
0
62
5
6
ByLayer
370
-1
48
1.0
60
0
100
AcDbLine
10
569.5
20
-215.0
30
0.0
11
579.5
21
-215.0
31
0.0
39
0.0
210
0.0
220
0.0
230
1.0
0
LINE
5
1A4
330
1F
100
AcDbEntity
67
0
8
0
62
5
6
ByLayer
370
-1
48
1.0
60
0
100
AcDbLine
10
574.5
20
-220.0
30
0.0
11
574.5
21
-210.0
31
0.0
39
0.0
210
0.0
220
0.0
230
1.0
0
LINE
5
1A7
330
1F
100
AcDbEntity
67
0
8
0
62
5
6
ByLayer
370
-1
48
1.0
60
0
100
AcDbLine
10
529.5
20
-215.0
30
0.0
11
539.5
21
-215.0
31
0.0
39
0.0
210
0.0
220
0.0
230
1.0
0
LINE
5
1A8
330
1F
100
AcDbEntity
67
0
8
0
62
5
6
ByLayer
370
-1
48
1.0
60
0
100
AcDbLine
10
534.5
20
-220.0
30
0.0
11
534.5
21
-210.0
31
0.0
39
0.0
210
0.0
220
0.0
230
1.0
0
LINE
5
1AB
330
1F
100
AcDbEntity
67
0
8
0
62
5
6
ByLayer
370
-1
48
1.0
60
0
100
AcDbLine
10
529.5
20
-235.0
30
0.0
11
539.5
21
-235.0
31
0.0
39
0.0
210
0.0
220
0.0
230
1.0
0
LINE
5
1AC
330
1F
100
AcDbEntity
67
0
8
0
62
5
6
ByLayer
370
-1
48
1.0
60
0
100
AcDbLine
10
534.5
20
-240.0
30
0.0
11
534.5
21
-230.0
31
0.0
39
0.0
210
0.0
220
0.0
230
1.0
0
LINE
5
1AF
330
1F
100
AcDbEntity
67
0
8
0
62
5
6
ByLayer
370
-1
48
1.0
60
0
100
AcDbLine
10
569.5
20
-235.0
30
0.0
11
579.5
21
-235.0
31
0.0
39
0.0
210
0.0
220
0.0
230
1.0
0
LINE
5
1B0
330
1F
100
AcDbEntity
67
0
8
0
62
5
6
ByLayer
370
-1
48
1.0
60
0
100
AcDbLine
10
574.5
20
-240.0
30
0.0
11
574.5
21
-230.0
31
0.0
39
0.0
210
0.0
220
0.0
230
1.0
0
LINE
5
1B3
330
1F
100
AcDbEntity
67
0
8
0
62
5
6
ByLayer
370
-1
48
1.0
60
0
100
AcDbLine
10
569.5
20
-235.0
30
0.0
11
579.5
21
-235.0
31
0.0
39
0.0
210
0.0
220
0.0
230
1.0
0
LINE
5
1B4
330
1F
100
AcDbEntity
67
0
8
0
62
5
6
ByLayer
370
-1
48
1.0
60
0
100
AcDbLine
10
574.5
20
-240.0
30
0.0
11
574.5
21
-230.0
31
0.0
39
0.0
210
0.0
220
0.0
230
1.0
0
LINE
5
1B7
330
1F
100
AcDbEntity
67
0
8
0
62
5
6
ByLayer
370
-1
48
1.0
60
0
100
AcDbLine
10
569.5
20
-235.0
30
0.0
11
579.5
21
-235.0
31
0.0
39
0.0
210
0.0
220
0.0
230
1.0
0
LINE
5
1B8
330
1F
100
AcDbEntity
67
0
8
0
62
5
6
ByLayer
370
-1
48
1.0
60
0
100
AcDbLine
10
574.5
20
-240.0
30
0.0
11
574.5
21
-230.0
31
0.0
39
0.0
210
0.0
220
0.0
230
1.0
0
LINE
5
1BB
330
1F
100
AcDbEntity
67
0
8
0
62
5
6
ByLayer
370
-1
48
1.0
60
0
100
AcDbLine
10
569.5
20
-235.0
30
0.0
11
579.5
21
-235.0
31
0.0
39
0.0
210
0.0
220
0.0
230
1.0
0
LINE
5
1BC
330
1F
100
AcDbEntity
67
0
8
0
62
5
6
ByLayer
370
-1
48
1.0
60
0
100
AcDbLine
10
574.5
20
-240.0
30
0.0
11
574.5
21
-230.0
31
0.0
39
0.0
210
0.0
220
0.0
230
1.0
0
LINE
5
1BF
330
1F
100
AcDbEntity
67
0
8
0
62
5
6
ByLayer
370
-1
48
1.0
60
0
100
AcDbLine
10
569.5
20
-235.0
30
0.0
11
579.5
21
-235.0
31
0.0
39
0.0
210
0.0
220
0.0
230
1.0
0
LINE
5
1C0
330
1F
100
AcDbEntity
67
0
8
0
62
5
6
ByLayer
370
-1
48
1.0
60
0
100
AcDbLine
10
574.5
20
-240.0
30
0.0
11
574.5
21
-230.0
31
0.0
39
0.0
210
0.0
220
0.0
230
1.0
0
LINE
5
1C3
330
1F
100
AcDbEntity
67
0
8
0
62
5
6
ByLayer
370
-1
48
1.0
60
0
100
AcDbLine
10
569.5
20
-235.0
30
0.0
11
579.5
21
-235.0
31
0.0
39
0.0
210
0.0
220
0.0
230
1.0
0
LINE
5
1C4
330
1F
100
AcDbEntity
67
0
8
0
62
5
6
ByLayer
370
-1
48
1.0
60
0
100
AcDbLine
10
574.5
20
-240.0
30
0.0
11
574.5
21
-230.0
31
0.0
39
0.0
210
0.0
220
0.0
230
1.0
0
LINE
5
1C7
330
1F
100
AcDbEntity
67
0
8
0
62
5
6
ByLayer
370
-1
48
1.0
60
0
100
AcDbLine
10
569.5
20
-235.0
30
0.0
11
579.5
21
-235.0
31
0.0
39
0.0
210
0.0
220
0.0
230
1.0
0
LINE
5
1C8
330
1F
100
AcDbEntity
67
0
8
0
62
5
6
ByLayer
370
-1
48
1.0
60
0
100
AcDbLine
10
574.5
20
-240.0
30
0.0
11
574.5
21
-230.0
31
0.0
39
0.0
210
0.0
220
0.0
230
1.0
0
LINE
5
1CB
330
1F
100
AcDbEntity
67
0
8
0
62
5
6
ByLayer
370
-1
48
1.0
60
0
100
AcDbLine
10
569.5
20
-235.0
30
0.0
11
579.5
21
-235.0
31
0.0
39
0.0
210
0.0
220
0.0
230
1.0
0
LINE
5
1CC
330
1F
100
AcDbEntity
67
0
8
0
62
5
6
ByLayer
370
-1
48
1.0
60
0
100
AcDbLine
10
574.5
20
-240.0
30
0.0
11
574.5
21
-230.0
31
0.0
39
0.0
210
0.0
220
0.0
230
1.0
0
LINE
5
1CF
330
1F
100
AcDbEntity
67
0
8
0
62
5
6
ByLayer
370
-1
48
1.0
60
0
100
AcDbLine
10
569.5
20
-235.0
30
0.0
11
579.5
21
-235.0
31
0.0
39
0.0
210
0.0
220
0.0
230
1.0
0
LINE
5
1D0
330
1F
100
AcDbEntity
67
0
8
0
62
5
6
ByLayer
370
-1
48
1.0
60
0
100
AcDbLine
10
574.5
20
-240.0
30
0.0
11
574.5
21
-230.0
31
0.0
39
0.0
210
0.0
220
0.0
230
1.0
0
LINE
5
1D3
330
1F
100
AcDbEntity
67
0
8
0
62
5
6
ByLayer
370
-1
48
1.0
60
0
100
AcDbLine
10
569.5
20
-235.0
30
0.0
11
579.5
21
-235.0
31
0.0
39
0.0
210
0.0
220
0.0
230
1.0
0
LINE
5
1D4
330
1F
100
AcDbEntity
67
0
8
0
62
5
6
ByLayer
370
-1
48
1.0
60
0
100
AcDbLine
10
574.5
20
-240.0
30
0.0
11
574.5
21
-230.0
31
0.0
39
0.0
210
0.0
220
0.0
230
1.0
0
ENDSEC
0
SECTION
2
OBJECTS
0
DICTIONARY
5
1D5
330
0
100
AcDbDictionary
280
1
281
1
3
ACAD_GROUP
350
D
3
ACAD_LAYOUT
350
1A
3
ACAD_DGNDEFINITIONS
350
D8
3
ACAD_DWFDEFINITIONS
350
D9
3
ACAD_PDFDEFINITIONS
350
DA
3
ACAD_MLINESTYLE
350
17
3
ACAD_IMAGE_DICT
350
D7
3
ACAD_IMAGE_VARS
350
DB
0
DICTIONARY
5
D
330
1D5
100
AcDbDictionary
280
1
281
1
0
DICTIONARY
5
1A
330
1D5
100
AcDbDictionary
280
1
281
1
3
Layout1
350
1E
3
Layout2
350
26
3
Model
350
22
0
DICTIONARY
5
D8
330
1D5
100
AcDbDictionary
280
1
281
1
0
DICTIONARY
5
D9
330
1D5
100
AcDbDictionary
280
1
281
1
0
DICTIONARY
5
DA
330
1D5
100
AcDbDictionary
280
1
281
1
0
DICTIONARY
5
17
330
1D5
100
AcDbDictionary
280
1
281
1
3
Standard
350
18
0
DICTIONARY
5
D7
330
1D5
100
AcDbDictionary
280
1
281
1
0
DICTIONARY
5
D5
330
2
100
AcDbDictionary
280
1
281
1
3
ACAD_LAYERSTATES
360
1D6
0
DICTIONARY
5
1D6
330
D5
100
AcDbDictionary
280
1
281
1
0
LAYOUT
5
1E
330
1A
100
AcDbPlotSettings
1

2
none_device
4

6

40
0.0
41
0.0
42
0.0
43
0.0
44
0.0
45
0.0
46
0.0
47
0.0
48
0.0
49
0.0
140
0.0
141
0.0
142
1.0
143
1.0
70
688
72
1
73
0
74
5
7

75
16
76
0
77
2
78
300
147
1.0
148
0.0
149
0.0
100
AcDbLayout
1
Layout1
71
1
10
0.0
20
0.0
11
420.0
21
297.0
12
0.0
22
0.0
32
0.0
14
100000000000000000000.0
24
100000000000000000000.0
34
100000000000000000000.0
15
-100000000000000000000.0
25
-100000000000000000000.0
35
-100000000000000000000.0
146
0.0
13
0.0
23
0.0
33
0.0
16
1.0
26
0.0
36
0.0
17
0.0
27
1.0
37
0.0
76
0
330
1B
0
LAYOUT
5
26
330
1A
100
AcDbPlotSettings
1

2
none_device
4

6

40
0.0
41
0.0
42
0.0
43
0.0
44
0.0
45
0.0
46
0.0
47
0.0
48
0.0
49
0.0
140
0.0
141
0.0
142
1.0
143
1.0
70
688
72
1
73
0
74
5
7

75
16
76
0
77
2
78
300
147
1.0
148
0.0
149
0.0
100
AcDbLayout
1
Layout2
71
2
10
0.0
20
0.0
11
0.0
21
0.0
12
0.0
22
0.0
32
0.0
14
0.0
24
0.0
34
0.0
15
0.0
25
0.0
35
0.0
146
0.0
13
0.0
23
0.0
33
0.0
16
1.0
26
0.0
36
0.0
17
0.0
27
1.0
37
0.0
76
0
330
23
0
LAYOUT
5
22
330
1A
100
AcDbPlotSettings
1

2
none_device
4
ANSI_A_(11.00_x_8.50_Inches)
6

40
6.35
41
19.05
42
6.35000508
43
19.05000254
44
279.4
45
215.9
46
133.34999746
47
88.89999873
48
0.0
49
0.0
140
0.0
141
0.0
142
0.0069363057
143
1.0
70
1696
72
0
73
0
74
0
7

75
0
76
0
77
2
78
300
147
0.0069363057
148
-1300.4909072572
149
0.0
100
AcDbLayout
1
Model
71
3
10
0.0
20
0.0
11
420.0
21
297.0
12
0.0
22
0.0
32
0.0
14
-785.0
24
-242.5
34
0.0
15
785.0
25
242.5
35
0.0
146
0.0
13
0.0
23
0.0
33
0.0
16
1.0
26
0.0
36
0.0
17
0.0
27
1.0
37
0.0
76
0
330
1F
0
MLINESTYLE
5
18
330
17
100
AcDbMlineStyle
2
Standard
70
0
3

62
256
51
90.0
52
90.0
71
2
49
0.5
62
256
6
ByLayer
49
-0.5
62
256
6
ByLayer
0
RASTERVARIABLES
5
DB
330
D7
100
AcDbRasterVariables
90
0
70
1
71
1
72
0
0
ENDSEC
0
EOF
